<svg width="26" height="26" viewBox="0 0 26 26" fill="none" xmlns="http://www.w3.org/2000/svg">
<path d="M11.0835 2.32581C10.782 2.6274 10.782 3.11638 11.0835 3.41796L11.6083 3.94277C9.76286 4.21855 8.02022 5.00545 6.58481 6.2282C4.76955 7.77453 3.56436 9.91682 3.18527 12.2711C2.80616 14.6253 3.27792 17.0377 4.51599 19.0757C5.75407 21.1137 7.67751 22.6441 9.94157 23.3927C12.2056 24.1413 14.6623 24.059 16.8712 23.1607C19.0801 22.2624 20.8969 20.6067 21.9959 18.4905C23.0949 16.3742 23.4042 13.9357 22.8685 11.6121C22.3328 9.28845 20.987 7.23156 19.0724 5.81011C18.7299 5.55588 18.2462 5.62737 17.992 5.96982C17.7377 6.3123 17.8092 6.796 18.1517 7.05026C19.7716 8.2529 20.9102 9.99315 21.3634 11.9591C21.8167 13.925 21.5549 15.9882 20.6251 17.7786C19.6953 19.5691 18.1582 20.9699 16.2893 21.73C14.4204 22.49 12.342 22.5596 10.4264 21.9262C8.5109 21.2929 6.88355 19.9981 5.83606 18.2738C4.78857 16.5495 4.38943 14.5085 4.71016 12.5166C5.03091 10.5248 6.05058 8.71228 7.5864 7.40396C8.76493 6.40005 10.1883 5.74339 11.6983 5.49219L11.0835 6.107C10.782 6.40858 10.782 6.89755 11.0835 7.19915C11.3851 7.50075 11.8741 7.50075 12.1757 7.19915L14.0574 5.31742C14.0604 5.31452 14.0634 5.31158 14.0664 5.30862C14.2172 5.15782 14.2926 4.96014 14.2926 4.76247C14.2926 4.56481 14.2172 4.36714 14.0664 4.21634C14.0634 4.21338 14.0604 4.21044 14.0574 4.20753L12.1757 2.32581C11.8741 2.02421 11.3851 2.02421 11.0835 2.32581Z" fill="white"/>
<path d="M8.97377 8.91376C9.63126 8.29665 10.7082 8.76283 10.7082 9.66456V17.9739C10.7082 18.4004 10.3624 18.7461 9.9359 18.7461C9.50937 18.7461 9.16362 18.4004 9.16362 17.9739V10.8539L8.72365 11.2669C8.41266 11.5588 7.92393 11.5433 7.63204 11.2323C7.34014 10.9213 7.35562 10.4326 7.66661 10.1407L8.97377 8.91376Z" fill="white"/>
<path fill-rule="evenodd" clip-rule="evenodd" d="M15.356 8.98535C13.9027 8.98535 12.7246 10.1635 12.7246 11.6168V16.1153C12.7246 17.5685 13.9027 18.7467 15.356 18.7467C16.8093 18.7467 17.9874 17.5685 17.9874 16.1153V11.6168C17.9874 10.1635 16.8093 8.98535 15.356 8.98535ZM16.4429 16.1153V11.6168C16.4429 11.0165 15.9563 10.5299 15.356 10.5299C14.7558 10.5299 14.2692 11.0165 14.2692 11.6168V16.1153C14.2692 16.7155 14.7558 17.2021 15.356 17.2021C15.9563 17.2021 16.4429 16.7155 16.4429 16.1153Z" fill="white"/>
</svg>
