<svg width="30" height="30" viewBox="0 0 30 30" fill="none" xmlns="http://www.w3.org/2000/svg">
<path fill-rule="evenodd" clip-rule="evenodd" d="M15 5C10.8579 5 7.5 8.35786 7.5 12.5V18.75C7.5 19.0815 7.3683 19.3995 7.13389 19.6339L6.25 20.5177V21.25H23.75V20.5177L22.8661 19.6339C22.6318 19.3995 22.5 19.0815 22.5 18.75V12.5C22.5 8.35786 19.1421 5 15 5ZM5 12.5C5 6.97715 9.47715 2.5 15 2.5C20.5229 2.5 25 6.97715 25 12.5V18.2323L25.8839 19.1161C26.1182 19.3505 26.25 19.6685 26.25 20V22.5C26.25 23.1904 25.6904 23.75 25 23.75H5C4.30965 23.75 3.75 23.1904 3.75 22.5V20C3.75 19.6685 3.8817 19.3505 4.11611 19.1161L5 18.2323V12.5Z" fill="black"/>
<path fill-rule="evenodd" clip-rule="evenodd" d="M17.5 25C17.5 26.3807 16.3807 27.5 15 27.5C13.6193 27.5 12.5 26.3807 12.5 25H17.5Z" fill="#581958"/>
</svg>
