<svg width="40" height="40" viewBox="0 0 40 40" fill="none" xmlns="http://www.w3.org/2000/svg">
<g clip-path="url(#clip0_2387_14405)">
<path d="M37.3205 30C37.5994 29.5169 37.7728 28.9725 37.7728 28.4837V11.5161C37.7728 11.0273 37.5997 10.4831 37.3207 10L25.8036 11.0376L17.8807 19.9999L24.1769 28.9794L37.3205 30Z" fill="#004482"/>
<path d="M21.5391 39.6334L36.2336 31.1496C36.6568 30.9052 37.0416 30.4832 37.3205 29.9999L20 20L8.60118 20.4029L2.67957 30.0001C2.95843 30.4832 3.34332 30.9054 3.7665 31.1496L18.4609 39.6334C19.3074 40.1222 20.6927 40.1222 21.5391 39.6334Z" fill="#004482"/>
<path d="M37.3206 9.99994C37.0416 9.51668 36.6568 9.09467 36.2336 8.85026L21.5392 0.366609C20.6927 -0.122203 19.3074 -0.122203 18.4609 0.366609L3.76652 8.85034C2.91993 9.339 2.22742 10.5388 2.22742 11.5162V28.4838C2.22742 28.9726 2.40064 29.5169 2.67966 30.0001L20.0001 20L37.3206 9.99994Z" fill="#004482"/>
<path d="M20.0001 31.8483C13.4668 31.8483 8.15161 26.5331 8.15161 19.9998C8.15161 13.4666 13.4668 8.15137 20.0001 8.15137C24.2158 8.15137 28.1475 10.42 30.2607 14.0719L25.1331 17.0391C24.0754 15.2112 22.1085 14.0756 20.0001 14.0756C16.7335 14.0756 14.0759 16.7332 14.0759 19.9998C14.0759 23.2664 16.7334 25.924 20.0001 25.924C22.1087 25.924 24.0757 24.7884 25.1335 22.9602L30.2611 25.9273C28.1478 29.5796 24.216 31.8483 20.0001 31.8483Z" fill="white"/>
<path d="M31.8485 19.3418H30.532V18.0254H29.2156V19.3418H27.899V20.6583H29.2156V21.9749H30.532V20.6583H31.8485V19.3418Z" fill="white"/>
<path d="M36.7853 19.3418H35.4687V18.0254H34.1524V19.3418H32.8358V20.6583H34.1524V21.9749H35.4687V20.6583H36.7853V19.3418Z" fill="white"/>
</g>
<defs>
<clipPath id="clip0_2387_14405">
<rect width="40" height="40" fill="white"/>
</clipPath>
</defs>
</svg>
