<svg width="40" height="40" viewBox="0 0 40 40" fill="none" xmlns="http://www.w3.org/2000/svg">
<path d="M34.1693 7.86133L31.5876 36.7831L19.9826 40.0004L8.40967 36.7877L5.83069 7.86133H34.1693Z" fill="#004CE8"/>
<path d="M29.3773 34.9416L31.5836 10.2266H20V37.5413L29.3773 34.9416Z" fill="#0065F4"/>
<path d="M11.7429 20.9551L12.0609 24.5027H20L21.526 22.7289L20 20.9551H11.7429Z" fill="#EBEBEB"/>
<path d="M19.9999 13.7744H19.9877H11.104L11.4265 17.3221H19.9999L21.526 15.5482L19.9999 13.7744Z" fill="#EBEBEB"/>
<path d="M19.9999 33.8596L21.5259 31.9783L19.9999 30.1686L19.9844 30.1727L16.0333 29.1058L15.7807 26.2764H13.8608H12.2194L12.7164 31.8468L19.9836 33.8642L19.9999 33.8596Z" fill="#EBEBEB"/>
<path d="M24.3563 24.5027L23.9445 29.1038L19.9877 30.1718V33.8627L27.2606 31.847L27.314 31.2476L28.1477 21.9077L28.2342 20.955L28.8747 13.7744H19.9877V17.3221H24.9867L24.6639 20.955H19.9877V24.5027H24.3563Z" fill="white"/>
</svg>
