<svg width="142" height="93" viewBox="0 0 142 93" fill="none" xmlns="http://www.w3.org/2000/svg">
<path d="M7.25936 91.9996C7.25998 91.9996 136.561 91.9996 136.586 91.9996C137.929 91.9996 140.464 85.4741 140.877 84.3609C141.945 81.4865 142.344 79.1805 141.666 76.2205C140.345 70.4515 136.409 65.8502 131.904 62.1092C126.837 57.9008 121.039 54.4496 116.78 49.4503C115.515 47.9657 114.388 46.3356 113.733 44.5094C112.263 40.4109 113.317 35.895 113.005 31.56C112.619 26.1848 110.007 20.9963 105.894 17.4332C103.109 15.0207 99.6575 13.3726 96.0213 12.6534C91.9095 11.8399 88.1717 12.686 84.1002 13.2897C76.4277 14.4276 68.6243 14.0401 61.0934 12.1587C55.0725 10.6546 48.7312 8.38712 42.3357 9.03219C36.3787 9.63304 30.6921 12.2166 26.2298 16.119C20.6996 20.9554 16.9234 27.8402 15.4827 35.1959C14.7537 38.9173 14.4779 42.727 13.6324 46.4185C11.0499 57.6952 0.257522 67.1779 0.00430893 77.571C-0.121365 82.7473 2.50679 88.1606 7.25936 91.9996Z" fill="#9A289A"/>
<path d="M30.522 31.3471H44.5862V27.4219H30.522C29.4192 27.4219 28.5251 28.3005 28.5251 29.3844C28.5251 30.4685 29.4192 31.3471 30.522 31.3471Z" fill="#DBB997"/>
<path d="M42.8293 31.3471H52.6038V27.4219H42.8293C41.7264 27.4219 40.8324 28.3005 40.8324 29.3844C40.8322 30.4685 41.7262 31.3471 42.8293 31.3471Z" fill="#DBB997"/>
<path d="M42.9632 28.1494H52.6038V30.6201H42.9632C42.2691 30.6201 41.7063 30.0669 41.7063 29.3847C41.7063 28.7026 42.2689 28.1494 42.9632 28.1494Z" fill="#F2DBAA"/>
<path d="M41.6554 31.2207C41.1565 30.8208 40.8285 30.1478 40.8285 29.3845C40.8285 28.6212 41.1562 27.9482 41.6554 27.5483" stroke="#B28F6F" stroke-width="1.5" stroke-miterlimit="10"/>
<path d="M30.9876 31.2207C30.4887 30.8208 30.1607 30.1478 30.1607 29.3845C30.1607 28.6212 30.4885 27.9482 30.9876 27.5483" stroke="#B28F6F" stroke-width="1.5" stroke-miterlimit="10"/>
<path d="M29.9212 22.2422C28.4303 22.2422 27.2219 23.4298 27.2219 24.895C27.2219 26.3603 28.4303 27.5479 29.9212 27.5479H41.8749V22.2422H29.9212Z" fill="#F7BC81"/>
<path d="M39.5 22.2422C38.0091 22.2422 36.8007 23.4298 36.8007 24.895C36.8007 26.3603 38.0091 27.5479 39.5 27.5479H52.7123V22.2422H39.5Z" fill="#F7BC81"/>
<path d="M39.681 23.2258C38.7426 23.2258 37.9821 23.9734 37.9821 24.8954C37.9821 25.8175 38.7428 26.5651 39.681 26.5651H52.7123V23.2256L39.681 23.2258Z" fill="#FFE6C2"/>
<path d="M37.3403 26.9277C36.8972 26.4852 36.606 25.74 36.606 24.8952C36.606 24.0504 36.8972 23.3053 37.3403 22.8628" stroke="#CC8F58" stroke-width="1.5" stroke-miterlimit="10"/>
<path d="M29.2887 26.9277C28.8456 26.4852 28.5544 25.74 28.5544 24.8952C28.5544 24.0504 28.8456 23.3053 29.2887 22.8628" stroke="#CC8F58" stroke-width="1.5" stroke-miterlimit="10"/>
<path d="M54.2484 16.1747L50.1319 17.4761L54.714 31.4666L58.8305 30.1652L54.2484 16.1747Z" fill="#F2DBAA"/>
<path d="M50.6774 18.6896L54.4603 17.4932" stroke="#F7EAB5" stroke-width="1.5" stroke-miterlimit="10"/>
<path d="M51.0399 19.683L54.8228 18.4868" stroke="#F7EAB5" stroke-width="1.5" stroke-miterlimit="10"/>
<path d="M54.5586 30.4301L58.3414 29.2339" stroke="#F7EAB5" stroke-width="1.5" stroke-miterlimit="10"/>
<path d="M64.7114 29.6712L59.2575 31.4688L54.6768 17.4773L60.131 15.6797L64.7114 29.6712Z" fill="#FFE7B0"/>
<path d="M55.7977 18.9946L60.0661 17.5879" stroke="#E5CA9A" stroke-width="1.5" stroke-miterlimit="10"/>
<path d="M60.6679 26.5853C61.3375 26.3735 61.3875 24.6968 60.7797 22.8403C60.1719 20.9838 59.1363 19.6504 58.4667 19.8622C57.7971 20.0739 57.747 21.7506 58.3548 23.6071C58.9627 25.4637 59.9983 26.797 60.6679 26.5853Z" stroke="#E5CA9A" stroke-width="1.5" stroke-miterlimit="10"/>
<path d="M59.1005 29.0158L63.369 27.6089" stroke="#E5CA9A" stroke-width="1.5" stroke-miterlimit="10"/>
<path d="M59.5057 30.2546L63.7742 28.8477" stroke="#E5CA9A" stroke-width="1.5" stroke-miterlimit="10"/>
<path d="M121.449 27.7993H105.661V37.6521H121.449V27.7993Z" fill="#DBB997"/>
<path d="M118.05 30.8554H109.059C108.809 30.8554 108.607 30.6563 108.607 30.4105V30.319C108.607 30.0732 108.809 29.874 109.059 29.874H118.05C118.3 29.874 118.502 30.0732 118.502 30.319V30.4105C118.502 30.6561 118.3 30.8554 118.05 30.8554Z" fill="#AF8B6D"/>
<path d="M121.926 25.5078H105.182V28.7578H121.926V25.5078Z" fill="#DBB997"/>
<path d="M121.449 28.791H105.661" stroke="#292944" stroke-width="1.5" stroke-miterlimit="10"/>
<path d="M127.841 37.4644H110.222V32.5474H127.841C129.222 32.5474 130.342 33.6482 130.342 35.006C130.342 36.3638 129.222 37.4644 127.841 37.4644Z" fill="#EAC88B"/>
<path d="M117.178 37.4644H109.62V32.5474H117.178C118.559 32.5474 119.679 33.6482 119.679 35.006C119.679 36.3638 118.559 37.4644 117.178 37.4644Z" fill="#EAC88B"/>
<path d="M117.01 33.459H109.619V36.5539H117.01C117.879 36.5539 118.584 35.8611 118.584 35.0065C118.584 34.1518 117.879 33.459 117.01 33.459Z" fill="#F2DBAA"/>
<path d="M118.74 37.0385C119.401 36.596 119.835 35.8509 119.835 35.0061C119.835 34.1613 119.401 33.4161 118.74 32.9736" stroke="#292944" stroke-width="1.5" stroke-miterlimit="10"/>
<path d="M120.039 37.0385C120.7 36.596 121.134 35.8509 121.134 35.0061C121.134 34.1613 120.7 33.4161 120.039 32.9736" stroke="#292944" stroke-width="1.5" stroke-miterlimit="10"/>
<path d="M126.472 32.9731H121.475C122.042 33.4156 122.414 34.1608 122.414 35.0056C122.414 35.8504 122.042 36.5955 121.475 37.038H126.472C127.038 36.5955 127.41 35.8504 127.41 35.0056C127.41 34.1608 127.038 33.4158 126.472 32.9731Z" fill="#DDB576"/>
<path d="M127.903 37.0385C128.563 36.596 128.998 35.8509 128.998 35.0061C128.998 34.1613 128.563 33.4161 127.903 32.9736" stroke="#292944" stroke-width="1.5" stroke-miterlimit="10"/>
<path d="M118.556 34.7178H109.619" stroke="#E0BF85" stroke-width="1.5" stroke-miterlimit="10"/>
<path d="M118.325 35.7065H109.619" stroke="#E0BF85" stroke-width="1.5" stroke-miterlimit="10"/>
<path d="M15.429 49.8398H55.6621" stroke="#C6AC8F" stroke-width="1.5" stroke-miterlimit="10"/>
<path d="M19.336 31.4683H66.5577" stroke="#C6AC8F" stroke-width="1.5" stroke-miterlimit="10"/>
<path d="M100.507 37.6523H133.643" stroke="#C6AC8F" stroke-width="1.5" stroke-miterlimit="10"/>
<path d="M39.7391 39.6711C40.4087 39.3244 41.0838 38.7588 41.0877 38.0149C41.0896 37.6827 40.9527 37.3539 41.0014 37.0252C41.0359 36.7928 41.1607 36.5823 41.3063 36.396C41.8274 35.7293 42.6099 35.3211 43.3473 34.8949C44.0848 34.4687 44.8343 33.9688 45.2076 33.2122C45.5808 32.4556 45.4149 31.3817 44.6495 31.0063C44.3762 30.8724 44.0564 30.8376 43.8011 30.6729C43.4168 30.4252 43.2677 29.9438 43.2163 29.495C43.153 28.9427 43.1949 28.3842 43.1709 27.829C43.1468 27.2737 43.0495 26.7026 42.7399 26.2373C42.4303 25.7719 41.8691 25.4363 41.31 25.5202C40.5576 25.6329 40.1072 26.4125 39.9345 27.1412C39.7617 27.8698 39.7418 28.6576 39.344 29.2953C38.8235 30.1301 37.782 30.5084 37.1437 31.2601C36.6707 31.8171 36.4484 32.5728 36.546 33.2921C36.6508 34.0625 37.0898 34.8869 36.7008 35.5638C36.4334 36.0289 35.8358 36.2643 35.6392 36.7624C35.4488 37.2447 35.6697 37.7465 35.6862 38.2362C35.7236 39.3348 34.8101 40.1172 34.7512 41.1538C34.7254 41.6049 35.0276 42.0853 35.5135 42.1291C36.038 42.1764 36.3322 41.7282 36.6394 41.4005C37.4948 40.4876 38.6551 40.2324 39.7391 39.6711Z" fill="#C1B376"/>
<path d="M41.9413 25.6953C41.4328 26.7075 41.2219 27.8619 41.3407 28.9845C41.3936 29.4857 41.5097 29.9987 41.3776 30.4856C41.0771 31.5929 39.657 32.0804 39.2393 33.1504C38.8405 34.1722 39.4678 35.4525 38.8484 36.362C38.4467 36.9516 37.5921 37.2414 37.4421 37.9356C37.3764 38.2399 37.4693 38.5583 37.4245 38.8664C37.3486 39.3886 36.9065 39.7708 36.5251 40.1421C35.7499 40.8968 35.0896 41.9852 35.4488 42.9975" stroke="#898050" stroke-width="1.5" stroke-miterlimit="10"/>
<path d="M43.3334 43.522H23.7373V49.6953H43.3334V43.522Z" fill="white"/>
<path d="M23.7373 44.6885H43.3334" stroke="#E0D1AF" stroke-width="1.5" stroke-miterlimit="10"/>
<path d="M28.3153 33.2894C28.2132 33.0481 28.1228 32.8019 28.0409 32.5548C27.4702 30.8344 26.7699 29.4043 24.78 29.0513C24.1714 28.9432 23.5436 28.9818 22.9345 28.8758C21.9847 28.7107 21.1372 28.2069 20.2877 27.756C19.4383 27.3052 18.52 26.8894 17.5563 26.9261C16.5926 26.963 15.588 27.5926 15.4468 28.5332C15.3502 29.177 15.6621 29.8107 16.0219 30.3565C16.3819 30.9023 16.8068 31.4269 16.9819 32.0547C17.2011 32.8412 17.0047 33.7168 17.3321 34.4658C17.6583 35.212 18.4466 35.6718 19.2456 35.8703C20.0447 36.069 20.8796 36.0558 21.699 36.141C23.6183 36.3405 23.4829 38.3854 24.9528 39.0902C25.2902 39.252 25.6751 39.2771 26.0453 39.337C27.246 39.531 28.3765 40.127 29.207 41.004C29.5674 41.3845 29.875 41.8178 30.285 42.1462C30.5477 42.3565 30.8632 42.5236 31.2014 42.5336C31.7839 42.5509 32.2893 42.0913 32.5208 41.5641C33.3179 39.7473 32.1348 37.2528 30.7122 36.0686C30.3314 35.7519 29.9088 35.4847 29.5467 35.1474C28.9957 34.635 28.6081 33.9826 28.3153 33.2894Z" fill="#998C53"/>
<path d="M40.9624 39.3823C39.3279 40.1543 35.2501 40.0791 35.2553 42.4597C35.2561 42.7899 35.4372 43.1363 35.7661 43.2717C36.1974 43.449 36.6837 43.225 37.1302 43.0825C37.9324 42.8266 38.8341 42.8408 39.6261 43.1221C40.6508 43.4859 41.7505 44.4579 42.932 44.1196C43.3921 43.9877 43.6122 43.6559 44.1053 43.62C44.7633 43.5721 45.4993 44.0564 45.9977 44.3904C46.7273 44.8796 47.5327 45.434 48.4313 45.3398C48.7364 45.3078 49.0487 45.1849 49.21 44.946C49.2919 44.825 49.3293 44.6829 49.3517 44.5421C49.4456 43.953 49.2899 43.3336 48.924 42.8414C48.3913 42.1244 47.7834 41.7227 47.5056 40.8575C47.1503 39.751 46.2884 39.6847 45.2273 39.3358C44.3475 39.0464 43.4006 38.8352 42.4597 38.9204C41.9002 38.9708 41.4274 39.1626 40.9624 39.3823Z" fill="#998C53"/>
<path d="M16.0831 27.5547C17.7241 28.0604 18.7552 29.7196 20.3462 30.3622C21.3271 30.7584 22.4791 30.7491 23.3468 31.3493C24.5463 32.1792 24.7632 33.8383 25.6428 34.9939C26.4557 36.0621 27.7709 36.6224 28.7989 37.4917C30.4474 38.8854 31.2672 40.9814 32.0247 42.9875" stroke="#605534" stroke-width="1.5" stroke-miterlimit="10"/>
<path d="M26.2298 40.0362C28.0459 40.0295 29.8916 40.7008 31.4428 41.5964C31.7109 41.7511 31.9837 41.9282 32.1323 42.1966C32.2808 42.465 32.2578 42.8492 32.0025 43.0239C31.7943 43.1664 31.5164 43.1287 31.2628 43.1303C30.7099 43.1338 30.162 43.3633 29.7765 43.7527C29.1328 44.4031 28.9113 45.475 28.0701 45.8492C27.7191 46.0053 27.3142 46.0067 26.9588 46.1527C26.0588 46.5222 26.5592 47.5708 26.5187 48.275C26.4804 48.9427 25.949 49.4803 25.392 49.8645C24.835 50.2487 24.2052 50.5606 23.7838 51.0856C22.9528 52.121 23.1204 53.7448 22.1486 54.654C21.3562 55.3955 19.9889 55.3361 19.1494 54.6466C18.3099 53.9571 17.9887 52.7764 18.1838 51.7182C18.4066 50.5106 19.2203 49.4294 19.234 48.2022C19.2413 47.5415 19.0123 46.895 19.0177 46.2342C19.0273 45.07 19.794 43.9924 20.8107 43.395C21.312 43.1005 21.8763 42.903 22.3244 42.535C22.7805 42.1605 23.0803 41.6394 23.4484 41.181C24.1148 40.3509 25.1241 40.0403 26.2298 40.0362Z" fill="#998C53"/>
<path d="M20.2398 54.8894C20.0664 53.7064 20.3466 52.466 21.0144 51.4612C21.3313 50.9841 21.7325 50.5573 21.987 50.0463C22.2201 49.5778 22.3196 49.0593 22.4196 48.5483C22.6998 47.1167 23.1197 45.5237 24.4144 44.7816C24.8754 44.5173 25.4181 44.3848 25.83 44.053C26.1106 43.8269 26.3107 43.5239 26.5388 43.2479C27.4683 42.1233 28.9316 41.0791 30.5067 41.3486C31.2236 41.4712 31.8461 41.8909 32.5701 41.9934" stroke="#605534" stroke-width="1.5" stroke-miterlimit="10"/>
<path d="M49.0383 45.1337C48.6072 44.3569 48.1408 43.5441 47.2994 43.0505C46.4759 42.5672 45.626 42.1323 44.8081 41.639C43.1997 40.6695 41.9612 41.3635 40.2395 41.4988C39.4519 41.5608 38.6593 41.5257 37.8712 41.5832C36.9724 41.6488 36.0454 41.8467 35.3806 42.3532" stroke="#605534" stroke-width="1.5" stroke-miterlimit="10"/>
<path d="M36.7708 43.5216C36.3374 41.0975 34.4216 40.8947 33.1819 40.9422C32.2744 40.9768 31.4038 41.3526 30.7143 41.9252C29.9696 42.5433 29.848 43.5761 29.6995 44.4624C29.629 44.8835 29.6064 45.3439 29.4262 45.7369C29.2365 46.1506 28.8783 46.4733 28.6097 46.8359C27.7045 48.0575 28.4521 49.4971 28.6174 50.8208C28.724 51.674 28.7937 52.6256 28.6462 53.4711C28.4741 54.4569 28.2813 55.432 28.2717 56.4366C28.2618 57.4752 28.5463 58.5269 29.0058 59.4805C29.4907 60.4864 30.268 61.3418 30.6802 62.3718C30.893 62.9034 31.0871 63.5621 31.6471 63.715C32.0656 63.8293 32.5154 63.5737 32.7566 63.2185C32.9977 62.8634 33.077 62.4287 33.151 62.008C33.2615 61.3783 33.3723 60.7472 33.4167 60.1097C33.461 59.473 33.4411 58.8196 33.6514 58.2159C33.8853 57.5445 34.3816 56.9973 34.735 56.3785C35.2456 55.4847 35.4392 54.3415 34.9419 53.4407C34.6058 52.8315 33.9782 52.3623 33.8482 51.6812C33.6079 50.4222 35.1809 49.4355 35.179 48.1543C35.1779 47.461 34.7149 46.8652 34.4001 46.2446C34.0738 45.6014 33.8965 44.8856 33.8853 44.1669C33.8799 43.8214 33.9055 43.2135 34.2733 43.0429C34.5842 42.8988 34.8233 43.5218 34.8233 43.5218" fill="#C1B376"/>
<path d="M32.2847 63.5297C31.7078 62.0591 31.1209 60.4922 31.4218 58.944C31.5079 58.5007 31.6668 58.065 31.6578 57.6137C31.6259 56.0118 30.3563 55.1144 30.8352 53.3821C31.0288 52.6816 31.3343 52.0092 31.4521 51.2926C31.6995 49.7895 30.6914 48.7572 30.6529 47.3443C30.6446 47.04 30.6813 46.7361 30.7476 46.4392C30.8152 46.1361 30.937 45.9951 31.0958 45.7417C31.4131 45.2357 31.6692 44.6797 31.7468 44.0855C31.7966 43.7048 31.7725 43.3139 31.8681 42.9417C32.0378 42.2806 32.5923 41.7417 33.2692 41.588C33.8015 41.4671 34.4065 41.6353 34.8617 41.9202C35.4658 42.2985 35.7754 42.9042 36.0398 43.5342" stroke="#898050" stroke-width="1.5" stroke-miterlimit="10"/>
<path d="M131.967 84.1943C134.116 84.1943 135.858 85.9062 135.858 88.0181C135.858 90.1298 134.116 91.8417 131.967 91.8417H120.622V84.1943H131.967Z" fill="#EF750D"/>
<path d="M124.045 84.1943C126.194 84.1943 127.936 85.9062 127.936 88.0181C127.936 90.1298 126.194 91.8417 124.045 91.8417H105.002V84.1943H124.045Z" fill="#D3691A"/>
<path d="M123.784 85.6113C125.136 85.6113 126.233 86.6889 126.233 88.018C126.233 89.347 125.136 90.4246 123.784 90.4246H105.002V85.6113H123.784Z" fill="white"/>
<path d="M118.078 88.9756H105.002" stroke="#D3B997" stroke-width="1.5" stroke-miterlimit="10"/>
<path d="M125.931 88.9756H121.214" stroke="#D3B997" stroke-width="1.5" stroke-miterlimit="10"/>
<path d="M126.152 87.2334H105.002" stroke="#D3B997" stroke-width="1.5" stroke-miterlimit="10"/>
<path d="M128.643 85.3574C129.401 86.166 129.814 87.1916 129.794 88.2145C129.773 89.2376 129.319 90.2512 128.529 91.0388" stroke="#292944" stroke-width="1.5" stroke-miterlimit="10"/>
<path d="M129.908 85.3574C130.666 86.166 131.079 87.1916 131.059 88.2145C131.038 89.2374 130.584 90.2512 129.794 91.0388" stroke="#292944" stroke-width="1.5" stroke-miterlimit="10"/>
<path d="M130.024 78.1182C131.734 78.1182 133.119 79.4799 133.119 81.1597C133.119 82.8395 131.734 84.2012 130.024 84.2012H121.307V78.1184H130.024V78.1182Z" fill="#6B543C"/>
<path d="M124.029 78.1182C125.739 78.1182 127.124 79.4799 127.124 81.1597C127.124 82.8395 125.739 84.2012 124.029 84.2012H102.689V78.1184H124.029V78.1182Z" fill="#9B6F48"/>
<path d="M123.822 79.2451C124.898 79.2451 125.77 80.1022 125.77 81.1595C125.77 82.2167 124.898 83.074 123.822 83.074H102.689V79.2453H123.822V79.2451Z" fill="white"/>
<path d="M119.283 81.9209H102.689" stroke="#D3B997" stroke-width="1.5" stroke-miterlimit="10"/>
<path d="M125.705 81.9209H121.778" stroke="#D3B997" stroke-width="1.5" stroke-miterlimit="10"/>
<path d="M125.705 80.5356H102.689" stroke="#D3B997" stroke-width="1.5" stroke-miterlimit="10"/>
<path d="M119.261 58.5462L115.031 58.8628L116.946 83.4733L121.176 83.1567L119.261 58.5462Z" fill="#D5A47B"/>
<path d="M119.378 60.0718L116.682 60.2742" stroke="#BA855D" stroke-width="1.5" stroke-miterlimit="10"/>
<path d="M119.482 61.4199L117.776 61.5482" stroke="#BA855D" stroke-width="1.5" stroke-miterlimit="10"/>
<path d="M119.587 62.7681L117.881 62.8961" stroke="#BA855D" stroke-width="1.5" stroke-miterlimit="10"/>
<path d="M119.691 64.1157L117.986 64.2438" stroke="#BA855D" stroke-width="1.5" stroke-miterlimit="10"/>
<path d="M119.797 65.4639L117.1 65.6665" stroke="#BA855D" stroke-width="1.5" stroke-miterlimit="10"/>
<path d="M119.901 66.812L118.195 66.9401" stroke="#BA855D" stroke-width="1.5" stroke-miterlimit="10"/>
<path d="M120.005 68.1597L118.299 68.2878" stroke="#BA855D" stroke-width="1.5" stroke-miterlimit="10"/>
<path d="M120.11 69.5073L118.404 69.6354" stroke="#BA855D" stroke-width="1.5" stroke-miterlimit="10"/>
<path d="M120.215 70.8555L117.519 71.0579" stroke="#BA855D" stroke-width="1.5" stroke-miterlimit="10"/>
<path d="M120.319 72.2036L118.613 72.3319" stroke="#BA855D" stroke-width="1.5" stroke-miterlimit="10"/>
<path d="M120.424 73.5508L118.718 73.6789" stroke="#BA855D" stroke-width="1.5" stroke-miterlimit="10"/>
<path d="M120.528 74.8999L118.823 75.028" stroke="#BA855D" stroke-width="1.5" stroke-miterlimit="10"/>
<path d="M120.633 76.2471L117.937 76.4497" stroke="#BA855D" stroke-width="1.5" stroke-miterlimit="10"/>
<path d="M120.738 77.5952L119.032 77.7233" stroke="#BA855D" stroke-width="1.5" stroke-miterlimit="10"/>
<path d="M120.842 78.9438L119.136 79.0719" stroke="#BA855D" stroke-width="1.5" stroke-miterlimit="10"/>
<path d="M120.947 80.2915L119.241 80.4196" stroke="#BA855D" stroke-width="1.5" stroke-miterlimit="10"/>
<path d="M121.052 81.6392L118.356 81.8416" stroke="#BA855D" stroke-width="1.5" stroke-miterlimit="10"/>
<path d="M115.987 66.9198L114.11 67.1855L116.883 86.0827L118.76 85.817L115.987 66.9198Z" fill="#EF750D"/>
<path d="M118.579 86.8183L117.343 86.9936C117.166 87.0186 117.002 86.8982 116.977 86.7245L116.881 86.0744L118.757 85.8086L118.853 86.4588C118.878 86.6322 118.756 86.7932 118.579 86.8183Z" fill="#6B543C"/>
<path d="M116.881 86.075L118.757 85.8086" stroke="#231F20" stroke-width="1.5" stroke-miterlimit="10"/>
<path d="M114.108 67.1786L114.804 65.395L115.984 66.9128" fill="#F9E4CA"/>
<path d="M114.804 65.395L114.495 66.1875L115.329 66.0694L114.804 65.395Z" fill="#292944"/>
<path d="M120.162 86.7997C120.162 86.7997 121.037 86.9079 120.751 86.2265C120.655 85.9983 119.677 83.6723 119.515 83.2871C119.353 82.9019 118.863 82.3155 118.641 81.7875C118.419 81.2596 118.646 81.0674 118.646 81.0674" stroke="#8C7E56" stroke-width="1.5" stroke-miterlimit="10" stroke-linecap="round"/>
<path d="M120.208 88.8866C120.511 88.7637 120.655 88.4229 120.53 88.1254L120.335 87.6625L120.497 87.5969L110.633 64.1162L108.883 64.8271L118.746 88.3078L118.908 88.242L119.103 88.7048C119.228 89.0024 119.575 89.1438 119.877 89.0209L120.208 88.8866Z" fill="#6B543C"/>
<path d="M108.978 62.9221L108.862 64.8351L110.634 64.1159L109.177 62.8414C109.102 62.7762 108.984 62.8243 108.978 62.9221Z" fill="#6B543C"/>
<path d="M120.497 87.5972L118.746 88.3079" stroke="#8C7E56" stroke-width="1.5" stroke-miterlimit="10"/>
<path d="M110.634 64.1162L108.862 64.8355" stroke="#8C7E56" stroke-width="1.5" stroke-miterlimit="10"/>
<path d="M117.351 80.1113L115.613 80.8546" stroke="#8C7E56" stroke-width="1.5" stroke-miterlimit="10"/>
<path d="M124.993 65.9008C124.993 65.9008 123.885 65.1216 123.664 65.826C123.59 66.062 122.836 68.4669 122.711 68.8653C122.585 69.2636 122.73 70.0656 122.559 70.6114C122.388 71.1572 121.902 71.1089 121.902 71.1089" stroke="#8C7E56" stroke-width="2" stroke-miterlimit="10" stroke-linecap="round"/>
<path d="M126.082 64.1919C125.703 64.0788 125.318 64.2365 125.222 64.5441L125.072 65.0228L124.87 64.9623L117.264 89.2413L119.455 89.8958L127.06 65.6168L126.857 65.5562L127.007 65.0775C127.103 64.7697 126.875 64.4287 126.496 64.3156L126.082 64.1919Z" fill="#C1B376"/>
<path d="M117.981 91.2582L119.481 89.9039L117.264 89.2417L117.733 91.1839C117.757 91.2833 117.905 91.3275 117.981 91.2582Z" fill="#C1B376"/>
<path d="M124.87 64.9629L127.061 65.6171" stroke="#8C7E56" stroke-width="1.5" stroke-miterlimit="10"/>
<path d="M117.265 89.2417L119.482 89.9037" stroke="#8C7E56" stroke-width="1.5" stroke-miterlimit="10"/>
<path d="M122.447 72.7036L124.649 73.3244" stroke="#8C7E56" stroke-width="1.5" stroke-miterlimit="10"/>
<path d="M123.009 91.9223H113.936L112.387 74.2905H124.558L123.009 91.9223Z" fill="#FFBF66"/>
<path d="M112.554 76.1958H124.365" stroke="#292944" stroke-width="1.5" stroke-miterlimit="10"/>
<path d="M113.756 89.8794H123.235" stroke="#292944" stroke-width="1.5" stroke-miterlimit="10"/>
<path d="M11.6662 78.8535H30.4646V73.6069H11.6662C10.1921 73.6069 8.99701 74.7815 8.99701 76.2302C8.99722 77.6789 10.1921 78.8535 11.6662 78.8535Z" fill="#31212F"/>
<path d="M14.3363 73.6069C12.8618 73.6069 11.6662 74.7815 11.6662 76.2302C11.6662 77.6789 12.8615 78.8535 14.3363 78.8535" stroke="#5B465A" stroke-width="1.5" stroke-miterlimit="10"/>
<path d="M15.3852 73.6069C13.9107 73.6069 12.7152 74.7815 12.7152 76.2302C12.7152 77.6789 13.9105 78.8535 15.3852 78.8535" stroke="#5B465A" stroke-width="1.5" stroke-miterlimit="10"/>
<path d="M25.2404 73.6069C23.7659 73.6069 22.5704 74.7815 22.5704 76.2302C22.5704 77.6789 23.7657 78.8535 25.2404 78.8535" stroke="#5B465A" stroke-width="1.5" stroke-miterlimit="10"/>
<path d="M28.1162 78.8535H41.181V73.6069H28.1162C26.6421 73.6069 25.447 74.7815 25.447 76.2302C25.447 77.6789 26.6421 78.8535 28.1162 78.8535Z" fill="#5B465A"/>
<path d="M28.2951 74.5791H41.1808V77.8813H28.2951C27.3673 77.8813 26.6151 77.1421 26.6151 76.2302C26.6151 75.3183 27.3673 74.5791 28.2951 74.5791Z" fill="white"/>
<path d="M30.1697 75.646H26.7253" stroke="#292944" stroke-width="1.5" stroke-miterlimit="10"/>
<path d="M41.181 76.98H26.7253" stroke="#292944" stroke-width="1.5" stroke-miterlimit="10"/>
<path d="M18.1459 76.6999C18.2757 76.0465 18.9198 75.6201 19.5847 75.7475C19.9578 75.8191 20.2581 76.05 20.4269 76.3541C20.5393 75.5384 19.9877 74.768 19.155 74.6084C18.2913 74.4427 17.4545 74.9967 17.2861 75.8454C17.1303 76.6296 17.6003 77.3901 18.3537 77.632C18.1639 77.3719 18.0785 77.0389 18.1459 76.6999Z" stroke="#5B465A" stroke-width="1.5" stroke-miterlimit="10" stroke-linejoin="round"/>
<path d="M15.9936 74.8159V75.1399" stroke="#5B465A" stroke-width="1.5" stroke-miterlimit="10" stroke-linecap="round"/>
<path d="M15.9936 75.5229V75.8471" stroke="#5B465A" stroke-width="1.5" stroke-miterlimit="10" stroke-linecap="round"/>
<path d="M16.5184 75.3311H16.1888" stroke="#5B465A" stroke-width="1.5" stroke-miterlimit="10" stroke-linecap="round"/>
<path d="M15.7988 75.3311H15.469" stroke="#5B465A" stroke-width="1.5" stroke-miterlimit="10" stroke-linecap="round"/>
<path d="M20.6369 77.2485V77.5725" stroke="#5B465A" stroke-width="1.5" stroke-miterlimit="10" stroke-linecap="round"/>
<path d="M20.6369 77.9551V78.2793" stroke="#5B465A" stroke-width="1.5" stroke-miterlimit="10" stroke-linecap="round"/>
<path d="M21.1619 77.7637H20.8321" stroke="#5B465A" stroke-width="1.5" stroke-miterlimit="10" stroke-linecap="round"/>
<path d="M20.4421 77.7637H20.1125" stroke="#5B465A" stroke-width="1.5" stroke-miterlimit="10" stroke-linecap="round"/>
<path d="M21.3567 74.063V74.3872" stroke="#5B465A" stroke-width="1.5" stroke-miterlimit="10" stroke-linecap="round"/>
<path d="M21.3567 74.7705V75.0945" stroke="#5B465A" stroke-width="1.5" stroke-miterlimit="10" stroke-linecap="round"/>
<path d="M21.8815 74.5791H21.5519" stroke="#5B465A" stroke-width="1.5" stroke-miterlimit="10" stroke-linecap="round"/>
<path d="M21.1619 74.5791H20.8321" stroke="#5B465A" stroke-width="1.5" stroke-miterlimit="10" stroke-linecap="round"/>
<path d="M41.181 75.646H32.3121" stroke="#292944" stroke-width="1.5" stroke-miterlimit="10"/>
<path d="M15.6745 66.5149C13.682 66.5149 12.0667 68.1024 12.0667 70.0606C12.0667 72.0189 13.682 73.6064 15.6745 73.6064H31.652V66.5146H15.6745V66.5149Z" fill="#FFF3C0"/>
<path d="M28.4776 66.5149C26.4851 66.5149 24.8698 68.1024 24.8698 70.0606C24.8698 72.0189 26.4851 73.6064 28.4776 73.6064H46.1374V66.5146H28.4776V66.5149Z" fill="#DDCF94"/>
<path d="M28.7197 67.8291C27.4654 67.8291 26.4489 68.8284 26.4489 70.0609C26.4489 71.2933 27.4656 72.2926 28.7197 72.2926H46.1373V67.8291H28.7197Z" fill="white"/>
<path d="M34.0114 70.9497H46.1375" stroke="#DBC97D" stroke-width="1.5" stroke-miterlimit="10"/>
<path d="M26.7286 70.9497H31.1029" stroke="#DBC97D" stroke-width="1.5" stroke-miterlimit="10"/>
<path d="M40.1255 69.3145C40.9222 70.5318 40.4332 72.1952 41.359 73.3402C41.5817 73.6158 41.9006 73.8281 42.0979 74.1182C42.8693 75.2522 42.7704 76.4186 42.7704 76.4186L46.2351 76.2678C46.2351 76.2678 46.373 75.4587 46.0427 74.9538C45.6464 74.3483 44.9898 73.9276 44.4826 73.4007C43.9162 72.8125 43.7663 71.9967 43.7634 71.2493C43.7609 70.6639 43.6665 69.7459 43.1947 69.3312" fill="#E05D4F"/>
<path d="M26.5243 69.3345H46.1375" stroke="#DBC97D" stroke-width="1.5" stroke-miterlimit="10"/>
<path d="M24.1447 67.5054C22.8664 68.8601 22.8148 71.7284 24.2889 72.8897" stroke="#DBC97D" stroke-width="1.5" stroke-miterlimit="10"/>
<path d="M14.7126 67.5054C13.4343 68.8601 13.3826 71.7284 14.8567 72.8897" stroke="#DBC97D" stroke-width="1.5" stroke-miterlimit="10"/>
<path d="M15.9664 67.5054C14.6881 68.8601 14.6364 71.7284 16.1106 72.8897" stroke="#DBC97D" stroke-width="1.5" stroke-miterlimit="10"/>
<path d="M8.94568 86.7897H37.4196V78.8428H8.94568C6.7128 78.8428 4.90277 80.6217 4.90277 82.8161C4.90277 85.0108 6.7128 86.7897 8.94568 86.7897Z" fill="#FEC74F"/>
<path d="M18.689 85.1291C18.1598 84.7361 17.7902 83.8498 17.7902 82.8172C17.7902 81.7847 18.16 80.8983 18.689 80.5054V80.2881H12.8325C11.9991 80.2881 11.3232 81.4205 11.3232 82.8172C11.3232 84.214 11.9989 85.3464 12.8325 85.3464H18.689V85.1291Z" fill="#EFB745"/>
<path d="M26.1784 86.7897H42.7229V78.8428H26.1784C23.9455 78.8428 22.1355 80.6217 22.1355 82.8161C22.1355 85.0108 23.9455 86.7897 26.1784 86.7897Z" fill="#FEC74F"/>
<path d="M24.1577 79.3789C22.9499 80.0662 22.1355 81.3465 22.1355 82.8165C22.1355 84.2864 22.9499 85.5667 24.1577 86.254" stroke="#292944" stroke-width="1.5" stroke-miterlimit="10"/>
<path d="M7.80748 79.3789C6.59972 80.0662 5.78528 81.3465 5.78528 82.8165C5.78528 84.2864 6.59972 85.5667 7.80748 86.254" stroke="#292944" stroke-width="1.5" stroke-miterlimit="10"/>
<path d="M11.8212 79.3789C10.6134 80.0662 9.79895 81.3465 9.79895 82.8165C9.79895 84.2864 10.6134 85.5667 11.8212 86.254" stroke="#292944" stroke-width="1.5" stroke-miterlimit="10"/>
<path d="M8.41305 82.8166C8.41305 80.6222 10.2231 78.8433 12.456 78.8433H10.8388C8.60591 78.8433 6.79588 80.6222 6.79588 82.8166C6.79588 85.0111 8.60591 86.79 10.8388 86.79H12.456C10.2233 86.79 8.41305 85.0111 8.41305 82.8166Z" fill="#EFB745"/>
<path d="M20.6465 82.8166C20.6465 80.6222 22.4565 78.8433 24.6894 78.8433H23.0725C20.8396 78.8433 19.0295 80.6222 19.0295 82.8166C19.0295 85.0111 20.8396 86.79 23.0725 86.79H24.6894C22.4565 86.79 20.6465 85.0111 20.6465 82.8166Z" fill="#EFB745"/>
<path d="M26.4497 80.3154H42.7229V85.3172H26.4497C25.0442 85.3172 23.9049 84.1975 23.9049 82.8162C23.9049 81.4352 25.0442 80.3154 26.4497 80.3154Z" fill="#EDCFB4"/>
<path d="M23.9779 83.4111H36.8084" stroke="#D6AA83" stroke-width="1.5" stroke-miterlimit="10"/>
<path d="M39.2849 83.4111H42.7229" stroke="#D6AA83" stroke-width="1.5" stroke-miterlimit="10"/>
<path d="M31.6031 81.6636L28.8221 81.6874C29.0544 82.86 29.4853 83.9942 30.0915 85.0298L33.1568 84.9886C32.3706 83.9881 31.8631 82.9017 31.6031 81.6636Z" fill="#6B543C"/>
<path d="M39.8393 81.6636L37.5027 81.6819C37.6217 82.5846 37.8424 83.458 38.1528 84.2551L40.635 84.2235C40.2322 83.4533 39.9724 82.6168 39.8393 81.6636Z" fill="#FFF3C0"/>
<path d="M42.7229 81.6636H24.1571" stroke="#D6AA83" stroke-width="1.5" stroke-miterlimit="10"/>
<path d="M41.0153 92.0004H22.3481V86.7905H41.0153C42.4792 86.7905 43.6659 87.9568 43.6659 89.3955C43.6657 90.8342 42.479 92.0004 41.0153 92.0004Z" fill="#98A48D"/>
<path d="M29.7175 92.0004H11.0503V86.7905H29.7175C31.1814 86.7905 32.3681 87.9568 32.3681 89.3955C32.3681 90.8342 31.1814 92.0004 29.7175 92.0004Z" fill="#6C7761"/>
<path d="M29.7176 86.7905C31.182 86.7905 32.369 87.9568 32.369 89.3955C32.369 90.8342 31.182 92.0004 29.7176 92.0004" stroke="#292944" stroke-width="1.5" stroke-miterlimit="10"/>
<path d="M40.635 86.7905C41.6899 86.7905 42.545 87.9568 42.545 89.3955C42.545 90.8342 41.6899 92.0004 40.635 92.0004" stroke="#292944" stroke-width="1.5" stroke-miterlimit="10"/>
<path d="M29.5396 87.7559H11.0503V91.035H29.5396C30.461 91.035 31.208 90.3009 31.208 89.3953C31.208 88.49 30.461 87.7559 29.5396 87.7559Z" fill="white"/>
<path d="M11.0503 90.249H30.9639" stroke="#292944" stroke-width="1.5" stroke-miterlimit="10"/>
<path d="M24.3506 88.9126C24.3506 88.9126 24.5797 90.4184 23.4406 91.5004L22.5121 91.0355L21.0071 91.5004C22.1463 90.4184 21.9171 88.9126 21.9171 88.9126" fill="#EF750D"/>
<path d="M31.1342 88.9126H11.0503" stroke="#292944" stroke-width="1.5" stroke-miterlimit="10"/>
<path opacity="0.35" d="M73.9797 23.7876L34.7497 91.9997H118.268L98.469 23.7876H73.9797Z" fill="#FFFFE6"/>
<path d="M86.2244 17.5878V0" stroke="#292944" stroke-width="1.5" stroke-miterlimit="10"/>
<path d="M90.304 26.4781C90.8309 24.2645 89.4322 22.0501 87.1798 21.5322C84.9274 21.0143 82.6743 22.389 82.1473 24.6027C81.6204 26.8163 83.0191 29.0307 85.2715 29.5486C87.5239 30.0665 89.777 28.6918 90.304 26.4781Z" fill="white"/>
<path d="M86.2244 15.8594L73.9797 23.7884H98.469L86.2244 15.8594Z" fill="#FEC74F"/>
<path d="M75.6944 22.5381H96.7544" stroke="#292944" stroke-width="1.5" stroke-miterlimit="10"/>
<path d="M81.1655 38.4174C84.3298 38.1147 87.5363 39.201 90.1839 41.1277C92.8316 43.0542 94.6916 45.3683 96.1489 48.7958L92.0377 51.7732C92.0377 51.7732 91.4071 48.7278 89.1304 45.2656C87.7841 43.218 85.005 40.9123 82.1881 40.3072" fill="#E05D4F"/>
<path d="M79.4969 38.2206C81.8347 36.1032 85.0589 35.0682 88.353 35.0348C91.6472 35.0013 94.551 35.7438 97.8172 37.6134L96.3662 42.4255C96.3662 42.4255 93.9939 40.3706 90.0529 38.9594C87.7223 38.1248 84.0904 37.9336 81.4724 39.1213" fill="#E05D4F"/>
<path d="M79.4857 38.772C81.7949 37.3236 84.6139 36.8435 87.3534 36.8577C88.8702 36.8657 90.395 37.0169 91.8507 37.4366C93.3061 37.8562 94.6934 38.5524 95.8071 39.5648" stroke="#231F20" stroke-width="1.5" stroke-miterlimit="10"/>
<path d="M82.1962 39.4253C84.5309 39.6081 86.8127 40.404 88.7426 41.7082C90.6723 43.0124 92.2451 44.8219 93.2544 46.899" stroke="#231F20" stroke-width="1.5" stroke-miterlimit="10"/>
<path d="M70.5473 53.0507L70.3084 57.638C70.3084 57.638 71.2025 61.3264 75.8486 61.3264C80.4948 61.3264 81.9772 57.5141 81.9772 57.5141L81.1529 51.9351" fill="#FFBF82"/>
<path d="M69.9626 47.8282C69.4067 47.3892 68.6356 47.2135 67.9403 47.3716C67.3828 47.4982 66.9415 47.8977 66.7312 48.3609C66.5209 48.824 66.5203 49.3425 66.6317 49.8306C66.8681 50.8662 67.6721 51.8439 68.8299 52.1841C69.0545 52.2501 69.2947 52.2919 69.529 52.2599C70.1109 52.1802 70.477 51.6907 70.7677 51.2484" fill="#E89D60"/>
<path d="M67.2987 49.1279C68.4153 49.5282 69.5013 49.9921 70.5473 50.5155" stroke="#231F20" stroke-width="1.5" stroke-miterlimit="10"/>
<path d="M81.9577 47.8282C82.5137 47.3892 83.2847 47.2135 83.9801 47.3716C84.5375 47.4982 84.9786 47.8977 85.1891 48.3609C85.3994 48.824 85.4 49.3425 85.2887 49.8306C85.0523 50.8662 84.2482 51.8439 83.0904 52.1841C82.8658 52.2501 82.6257 52.2919 82.3913 52.2599C81.8094 52.1802 81.4434 51.6907 81.1526 51.2484" fill="#E89D60"/>
<path d="M84.6218 49.1279C83.5053 49.5282 82.4192 49.9921 81.3732 50.5155" stroke="#231F20" stroke-width="1.5" stroke-miterlimit="10"/>
<path d="M69.0486 50.2279C69.3163 51.5368 69.6664 52.8632 70.4343 53.9645C71.948 56.1349 74.83 56.9071 77.3679 56.4282C85.6576 54.8633 84.1823 36.6109 75.521 36.7148C72.947 36.7456 70.7437 37.7932 69.5326 40.0916C67.8918 43.2059 68.3752 46.9365 69.0486 50.2279Z" fill="#FFBF82"/>
<path d="M79.532 37.0243C79.3312 36.9362 79.1261 36.8518 78.9169 36.7705C77.7111 36.3011 76.3943 35.8052 75.0749 35.9316C73.7139 36.062 72.3758 36.5459 71.2373 37.2864C70.7533 37.6011 70.3031 37.9634 69.8684 38.3415C69.5364 38.6303 69.2118 38.9299 68.9345 39.2699C68.4078 39.916 67.724 40.3813 67.2576 41.0543C66.7259 41.8216 66.2525 42.6766 66.2133 43.625C66.1247 45.7634 67.4567 47.4418 68.7958 48.989C68.7724 48.3021 68.7491 47.61 68.862 46.9317C68.9866 46.1812 69.3877 45.0407 70.0778 44.6106C70.7721 45.717 71.9909 46.363 73.3381 46.1056C73.9497 45.9886 74.5139 45.709 75.0963 45.4911C75.8321 45.216 76.3795 45.2578 77.1265 45.3026C77.7064 45.3375 78.4513 45.237 79.0143 45.0786C79.7257 44.8787 80.8938 43.7589 80.8938 43.7589C80.8938 43.7589 80.9081 44.7413 81.3544 45.4873C81.5531 45.8193 81.9135 46.027 82.173 46.3158C82.8084 47.0228 82.7862 48.8514 82.7862 48.8514C82.7862 48.8514 83.5394 48.38 83.6591 48.2275C83.8814 47.9447 84.0699 47.6363 84.2215 47.3114C84.5164 46.6794 84.7101 45.9291 84.6576 45.229C84.5367 43.6164 84.4011 42.0683 83.6396 40.5924C82.7476 38.8627 81.3123 37.8045 79.532 37.0243Z" fill="#31212F"/>
<path d="M83.2762 39.5593C82.3239 40.1375 81.0419 40.6421 79.8814 40.8694C76.2765 41.575 71.931 40.9499 69.2263 38.6978L67.0191 40.8562C70.3248 44.2959 75.6357 44.673 80.0413 43.5952C81.4594 43.2483 83.0261 42.4775 84.1902 41.5942L83.2762 39.5593Z" fill="#E05D4F"/>
<path d="M75.2297 48.2402C75.2814 49.1558 75.2484 50.0976 74.9928 50.9752C74.8362 51.5129 74.7717 52.4743 75.4212 52.7325C75.8596 52.9068 76.4767 52.6585 76.8095 52.3805" stroke="#231F20" stroke-width="1.5" stroke-miterlimit="10"/>
<path d="M75.8486 53.9157C76.1978 53.6882 76.5697 53.4773 76.9811 53.4C77.3925 53.3226 77.8536 53.3986 78.1551 53.6844" stroke="#231F20" stroke-width="1.5" stroke-miterlimit="10"/>
<path d="M77.8827 48.0851C78.0855 48.1489 78.3095 48.1065 78.5038 48.0213C78.6983 47.9361 78.871 47.8107 79.0515 47.6997C79.667 47.321 80.3853 47.1056 81.1112 47.0825" stroke="#231F20" stroke-width="1.5" stroke-miterlimit="10"/>
<path d="M72.7041 48.1157C72.3425 47.8836 71.978 47.65 71.5766 47.4935C71.1752 47.3369 70.7294 47.2613 70.3084 47.3563" stroke="#231F20" stroke-width="1.5" stroke-miterlimit="10"/>
<path d="M80.003 50.338C80.003 50.6866 79.7765 50.9691 79.4971 50.9691C79.2176 50.9691 78.9911 50.6866 78.9911 50.338C78.9911 49.9895 79.2176 49.707 79.4971 49.707C79.7765 49.707 80.003 49.9895 80.003 50.338Z" fill="#231F20"/>
<path d="M72.3859 50.338C72.3859 50.6866 72.1594 50.9691 71.8799 50.9691C71.6005 50.9691 71.374 50.6866 71.374 50.338C71.374 49.9895 71.6005 49.707 71.8799 49.707C72.1594 49.707 72.3859 49.9895 72.3859 50.338Z" fill="#231F20"/>
<path d="M71.8172 52.5359C73.3024 52.5359 74.5065 51.2159 74.5065 49.5875C74.5065 47.9592 73.3024 46.6392 71.8172 46.6392C70.3319 46.6392 69.1278 47.9592 69.1278 49.5875C69.1278 51.2159 70.3319 52.5359 71.8172 52.5359Z" stroke="#FFF2CC" stroke-width="1.5" stroke-miterlimit="10"/>
<path d="M79.392 52.5359C80.8772 52.5359 82.0813 51.2159 82.0813 49.5875C82.0813 47.9592 80.8772 46.6392 79.392 46.6392C77.9067 46.6392 76.7026 47.9592 76.7026 49.5875C76.7026 51.2159 77.9067 52.5359 79.392 52.5359Z" stroke="#FFF2CC" stroke-width="1.5" stroke-miterlimit="10"/>
<path d="M74.4523 48.9961H76.7034" stroke="#FFF2CC" stroke-width="1.5" stroke-miterlimit="10"/>
<path d="M70.6944 54.3415C71.4389 55.3316 72.3761 56.2137 73.4864 56.707C76.2767 57.9462 79.6102 56.6501 81.2833 54.0588C81.3138 54.0115 81.3435 53.9636 81.3729 53.9155" stroke="#231F20" stroke-width="1.5" stroke-miterlimit="10"/>
<path d="M83.0686 39.5156C83.5389 40.0561 83.9005 40.6874 84.1271 41.3626" stroke="#231F20" stroke-width="1.5" stroke-miterlimit="10"/>
<path d="M81.7713 38.3666C82.4287 38.335 83.0886 38.3586 83.7418 38.4377" stroke="#231F20" stroke-width="1.5" stroke-miterlimit="10"/>
<path d="M67.4891 40.3677C70.8787 44.1564 77.3855 44.1633 81.7951 42.3422C82.5695 42.0224 83.3324 41.659 83.9826 41.1316" stroke="#231F20" stroke-width="1.5" stroke-miterlimit="10"/>
<path d="M68.8265 39.0874C68.8265 39.0874 70.3211 41.344 75.6943 41.6365C81.3731 41.9457 83.4042 39.866 83.4042 39.866" stroke="#231F20" stroke-width="1.5" stroke-miterlimit="10"/>
<path d="M93.7353 70.6113L83.6018 57.6958L76.3279 61.3414L68.6627 57.7616L58.5061 71.2097L57.1046 92.0001H95.4817L93.7353 70.9105" fill="#989DD8"/>
<path d="M70.3085 57.2681C70.3085 57.2681 61.1293 59.0466 58.3452 60.8935C55.5611 62.7405 52.9164 66.0922 50.8282 71.8382C48.7401 77.5841 46.861 85.519 47.8353 88.1183C48.8098 90.7175 50.2714 91.9999 53.6121 91.9999C56.9531 91.9999 59.855 91.9999 59.855 91.9999L63.5804 70.4859" fill="#989DD8"/>
<path d="M50.1793 81.1593C51.3463 80.0456 52.9605 79.4499 54.5818 79.3205C56.2032 79.191 57.835 79.5006 59.3776 80.0083" stroke="#231F20" stroke-width="1.5" stroke-miterlimit="10"/>
<path d="M59.8554 91.9998L63.369 72.7035C63.4242 72.026 63.2751 70.7742 63.0495 69.3144C62.8427 67.9768 62.1098 66.2354 61.3902 65.082" stroke="#231F20" stroke-width="1.5" stroke-miterlimit="10"/>
<path d="M82.0871 57.2681C82.0871 57.2681 91.2663 59.0466 94.0504 60.8935C96.8345 62.7405 100.769 67.8929 103.384 73.4267C106.103 79.1806 108.282 85.0727 107.307 87.6721C106.333 90.2716 104.167 91.9999 100.826 91.9999C97.4852 91.9999 94.731 90.1674 94.731 90.1674L90.691 69.7487" fill="#989DD8"/>
<path d="M94.7308 90.168C94.0914 86.9365 93.4521 83.7051 92.8125 80.4734C92.355 78.1615 91.8977 75.8496 91.4402 73.5378C90.9782 71.2031 90.5045 69.0691 91.5344 66.7575C91.6443 66.5111 91.7679 66.2706 91.905 66.0376" stroke="#231F20" stroke-width="1.5" stroke-miterlimit="10"/>
<path d="M70.4013 55.8521L68.6627 57.7616C68.6627 57.7616 70.3084 63.2434 74.2464 64.3528L76.3217 61.8485L78.6817 64.3175C81.6425 63.5026 83.6018 57.6958 83.6018 57.6958L81.7317 55.8521C81.7317 55.8521 78.5577 60.198 76.1429 60.198C73.7282 60.198 70.4013 55.8521 70.4013 55.8521Z" fill="#989DD8"/>
<path d="M68.6627 57.7616C68.6627 57.7616 70.3084 63.2434 74.2464 64.3528L76.3217 61.8485L78.6817 64.3175C81.6425 63.5027 83.6018 57.6958 83.6018 57.6958" stroke="#231F20" stroke-width="1.5" stroke-miterlimit="10"/>
<path d="M94.1418 81.4404C94.6057 81.2915 95.0696 81.1423 95.5336 80.9933C96.49 80.6859 97.4523 80.3773 98.4483 80.2363C100.85 79.8961 103.385 80.5958 105.256 82.1153" stroke="#231F20" stroke-width="1.5" stroke-miterlimit="10"/>
<path d="M90.3171 72.4321H83.2319V73.4267H90.3171V72.4321Z" stroke="#231F20" stroke-width="1.5" stroke-miterlimit="10"/>
<path d="M76.3217 61.8486V92.0002" stroke="#231F20" stroke-width="1.5" stroke-miterlimit="10"/>
<path d="M100.861 80.2341C102.36 80.0804 104.283 80.3676 105.542 80.6831" stroke="#231F20" stroke-width="1.5" stroke-miterlimit="10"/>
<path d="M56.93 86.8939C56.93 86.8939 59.833 87.3607 61.2025 87.3625C61.9489 87.3635 62.6971 87.3044 63.4117 87.1493C64.1351 86.9924 64.699 86.6854 65.34 86.395C66.0177 86.0878 66.6867 85.8791 67.4526 85.7462C67.9206 85.6649 68.6568 85.41 68.8524 85.0388C69.066 84.6332 68.6519 84.1602 68.1633 83.927C66.572 83.1678 64.3883 83.9272 62.8219 83.1348" fill="#EAA56C"/>
<path d="M60.3125 71.8755L61.4969 71.3584L69.0593 85.7402L67.8751 86.2575L60.3125 71.8755Z" fill="#EF750D"/>
<path d="M60.2399 71.0042L60.7975 70.7607C60.9705 70.6851 61.1782 70.7517 61.2612 70.9095L61.497 71.3579L60.3125 71.8751L60.0767 71.4267C59.9939 71.269 60.0669 71.0798 60.2399 71.0042Z" fill="#6B543C"/>
<path d="M61.4973 71.3584L60.3125 71.8755" stroke="#231F20" stroke-width="1.5" stroke-miterlimit="10"/>
<path d="M69.0596 85.7397L69.128 87.2547L67.875 86.257" fill="#F9E4CA"/>
<path d="M69.1278 87.255L69.0975 86.582L68.571 86.8117L69.1278 87.255Z" fill="#292944"/>
<path d="M55.5636 80.4548C56.2392 79.8839 56.9332 79.3308 57.6443 78.7968C58.2092 78.3725 59.0833 78.1819 59.7975 78.1501C60.6142 78.1138 61.4273 78.2599 62.2195 78.4444C62.8319 78.5869 63.3865 78.863 63.9787 79.0518C65.0449 79.3917 65.4885 79.8318 66.1608 80.6444C66.548 81.1123 66.9406 81.927 67.4773 82.3709C67.7446 82.592 68.1154 83.0447 67.8153 83.4348C67.6432 83.6586 67.2361 83.9091 66.9408 83.9568C65.5839 84.1759 64.6882 83.2866 63.6778 82.6083C63.4078 82.4271 63.1366 82.2451 62.8413 82.1C61.885 81.6302 60.7214 81.5817 59.6733 81.8418" fill="#FFBF82"/>
<path d="M55.9089 88.7615C58.2662 88.7615 60.9551 88.7615 61.3205 88.7615C61.6859 88.7615 62.4354 88.5091 62.6113 88.3496C63.1859 87.8278 63.1859 87.4974 63.0491 87.2869C63.6239 87.2775 64.1364 86.9165 64.4049 86.4449C64.6735 85.9731 64.5775 85.5208 64.1845 85.1664C64.8628 85.169 65.3278 84.3128 65.2245 83.5854C65.1212 82.858 64.6301 82.2718 64.1233 81.7824C62.2413 79.9658 60.693 77.6258 58.1024 78.7556C57.0889 79.1975 54.681 81.1496 53.8129 81.7914C52.8647 82.4923 52.0711 83.4745 52.0188 84.5861C51.9294 86.4897 53.6947 88.7615 55.9089 88.7615Z" fill="#FFBF82"/>
<path d="M63.0495 87.3472C62.897 87.2043 62.7318 87.0731 62.5557 86.9551C62.4145 86.8605 62.2662 86.7743 62.1104 86.7009C61.4744 86.4011 60.744 86.3259 60.0321 86.2554" stroke="#231F20" stroke-width="1.5" stroke-miterlimit="10"/>
<path d="M64.3406 85.2269C64.1307 85.116 63.9723 84.9411 63.7844 84.8011C63.4982 84.5877 63.0606 84.3305 62.7114 84.2274C62.4205 84.1413 62.1295 84.0553 61.8387 83.9693C61.3097 83.813 60.7626 83.6546 60.2089 83.7011" stroke="#231F20" stroke-width="1.5" stroke-miterlimit="10"/>
<path d="M60.3124 80.4541C60.9346 80.4998 61.57 80.5485 62.1415 80.7769C62.468 80.9074 62.7641 81.0931 63.0509 81.2859C63.5158 81.5987 63.9495 81.9263 64.3404 82.3076C64.6892 82.648 65.07 82.9062 65.1876 83.3898C65.2311 83.569 65.2535 83.695 65.2738 83.8776" stroke="#231F20" stroke-width="1.5" stroke-miterlimit="10"/>
<path d="M66.9739 81.832C66.7364 81.918 66.4991 82.004 66.2615 82.0901C66.1462 82.1318 66.0257 82.1771 65.9485 82.2657C65.8705 82.3554 65.8497 82.4769 65.8593 82.591C65.8844 82.8915 66.1468 83.1831 66.4773 83.196C66.5771 83.1998 66.6762 83.1795 66.7723 83.1542C67.1173 83.0631 67.4407 82.9051 67.7145 82.6936" stroke="#231F20" stroke-width="1.5" stroke-miterlimit="10"/>
<path d="M54.5134 88.4294C53.694 87.9082 53.1974 86.9917 53.2415 86.082" stroke="#231F20" stroke-width="1.5" stroke-miterlimit="10"/>
<path d="M53.6403 82.6744C54.3301 81.7057 55.8135 80.1589 56.7743 79.4062" stroke="#231F20" stroke-width="1.5" stroke-miterlimit="10"/>
<path d="M83.4585 87.263C78.0181 87.5806 77.0017 90.3991 77.0017 90.3991C77.0017 90.3991 75.9851 87.5808 70.5449 87.263C67.0671 87.06 51.6658 89.0592 51.6658 89.0592V91.475H102.338V89.0592C102.338 89.0592 86.9363 87.06 83.4585 87.263Z" fill="white"/>
<path d="M102.338 89.6613C102.338 89.6613 86.9363 88.3408 83.4585 88.4749C78.0181 88.6846 77.0017 90.5247 77.0017 90.5247C77.0017 90.5247 75.9851 88.6848 70.5449 88.4749C67.0671 88.3408 51.6658 89.6613 51.6658 89.6613" stroke="#EDD9C5" stroke-width="1.5" stroke-miterlimit="10"/>
<path d="M102.338 90.116C102.338 90.116 86.9363 89.3959 83.4585 89.4691C78.0181 89.5834 77.0017 90.8613 77.0017 90.8613C77.0017 90.8613 75.9851 89.5834 70.5449 89.4691C67.0671 89.3959 51.6658 90.116 51.6658 90.116" stroke="#EDD9C5" stroke-width="1.5" stroke-miterlimit="10"/>
<path d="M103.236 90.8618H50.7677V91.9194H103.236V90.8618Z" fill="#FEC74F"/>
<path d="M91.063 81.2754C90.3867 81.9166 89.7179 82.5582 89.2596 83.3959C88.7354 84.3538 87.7895 86.4996 88.6673 87.5615C89.067 88.0447 90.1852 87.9243 90.5195 87.4025C90.6371 88.0011 91.0589 88.4095 91.6414 88.4727C92.2239 88.5359 92.8635 88.2834 93.3299 87.9245C93.6182 88.3761 94.1487 88.38 94.6565 88.4727C95.4359 88.6152 96.4398 88.0688 96.4398 88.0688C96.9332 88.3545 97.4574 88.5184 97.9987 88.6873C98.759 88.9246 99.9817 87.9047 100.098 87.8539C100.225 87.7987 100.984 87.8166 101.416 87.6697C102.469 86.551 102.339 85.8649 102.168 85.035C101.997 84.205 101.611 83.4301 101.138 82.7223C100.697 82.0625 100.167 81.4442 99.4956 81.0115C98.7563 80.5356 97.9921 80.5739 97.1941 80.3246C96.3042 80.0468 95.4029 79.9508 94.4784 79.8242C93.3017 79.663 92.101 79.5907 90.9326 79.8086C89.4305 80.0886 88.305 81.1067 87.461 82.3742C86.5954 83.6743 86.0919 85.3022 85.0313 86.4454C84.7576 86.7403 84.4056 87.0242 84.4668 87.4889C84.5058 87.7842 84.7115 88.0298 84.9747 88.1501C85.973 88.6062 87.0562 88.0588 87.7559 87.2749C88.3834 86.5715 88.7905 85.689 89.3148 84.8988C89.8345 84.1156 90.4736 83.4193 91.2015 82.8438" fill="#FFBF82"/>
<path d="M90.4336 87.6697C90.9686 85.8951 92.0227 84.5776 93.1914 83.6001" stroke="#231F20" stroke-width="1.5" stroke-miterlimit="10"/>
<path d="M93.3299 88.2209C93.3299 88.2209 93.5925 86.5877 95.1872 85.5244" stroke="#231F20" stroke-width="1.5" stroke-miterlimit="10"/>
<path d="M88.3544 86.6276C88.2629 85.7143 88.4432 84.7877 88.8042 83.958C89.2172 83.0084 89.8883 82.1885 90.7013 81.584" stroke="#231F20" stroke-width="1.5" stroke-miterlimit="10"/>
<path d="M84.6728 86.8429C84.8633 87.0755 85.0927 87.3188 85.3746 87.4236C85.7298 87.5555 86.1322 87.2921 86.3195 86.9915C86.4635 86.7604 86.4498 86.5248 86.2306 86.3617C85.9986 86.1893 85.7667 86.0169 85.5348 85.8442" stroke="#231F20" stroke-width="1.5" stroke-miterlimit="10"/>
<path d="M96.4398 88.1611C96.945 87.9434 97.3808 87.6094 97.8917 87.4033" stroke="#231F20" stroke-width="1.5" stroke-miterlimit="10"/>
<path d="M100.12 87.8761C100.735 87.4302 101.197 86.7847 101.417 86.0654" stroke="#231F20" stroke-width="1.5" stroke-miterlimit="10"/>
<path d="M4.56546 92H137.255" stroke="#231F20" stroke-width="1.5" stroke-miterlimit="10"/>
<path d="M99.2874 59.1685V59.8567" stroke="#8C7E56" stroke-width="1.5" stroke-miterlimit="10"/>
<path d="M99.2874 60.6914V61.3795" stroke="#8C7E56" stroke-width="1.5" stroke-miterlimit="10"/>
<path d="M100.413 60.2739H99.7123" stroke="#8C7E56" stroke-width="1.5" stroke-miterlimit="10"/>
<path d="M98.8629 60.2739H98.1623" stroke="#8C7E56" stroke-width="1.5" stroke-miterlimit="10"/>
<path d="M93.1238 28.4448V29.1331" stroke="#8C7E56" stroke-width="1.5" stroke-miterlimit="10"/>
<path d="M93.1238 29.9688V30.657" stroke="#8C7E56" stroke-width="1.5" stroke-miterlimit="10"/>
<path d="M94.249 29.5508H93.5485" stroke="#8C7E56" stroke-width="1.5" stroke-miterlimit="10"/>
<path d="M92.6991 29.5508H91.9987" stroke="#8C7E56" stroke-width="1.5" stroke-miterlimit="10"/>
<path d="M72.6241 32.2861V32.9742" stroke="#8C7E56" stroke-width="1.5" stroke-miterlimit="10"/>
<path d="M72.6241 33.8096V34.4979" stroke="#8C7E56" stroke-width="1.5" stroke-miterlimit="10"/>
<path d="M73.7495 33.3916H73.049" stroke="#8C7E56" stroke-width="1.5" stroke-miterlimit="10"/>
<path d="M72.1996 33.3916H71.499" stroke="#8C7E56" stroke-width="1.5" stroke-miterlimit="10"/>
<path d="M49.2805 52.4458V53.1341" stroke="#8C7E56" stroke-width="1.5" stroke-miterlimit="10"/>
<path d="M49.2805 53.9692V54.6573" stroke="#8C7E56" stroke-width="1.5" stroke-miterlimit="10"/>
<path d="M50.406 53.5513H49.7055" stroke="#8C7E56" stroke-width="1.5" stroke-miterlimit="10"/>
<path d="M48.8561 53.5513H48.1555" stroke="#8C7E56" stroke-width="1.5" stroke-miterlimit="10"/>
<path d="M99.9608 50.5149C99.9608 50.8801 99.6593 51.1763 99.2876 51.1763C98.9158 51.1763 98.6144 50.8801 98.6144 50.5149C98.6144 50.1497 98.9158 49.8535 99.2876 49.8535C99.6595 49.8535 99.9608 50.1497 99.9608 50.5149Z" stroke="#EF750D" stroke-width="1.5" stroke-miterlimit="10"/>
<path d="M101.318 46.675C102.062 46.675 102.665 46.0824 102.665 45.3514C102.665 44.6204 102.062 44.0278 101.318 44.0278C100.574 44.0278 99.9711 44.6204 99.9711 45.3514C99.9711 46.0824 100.574 46.675 101.318 46.675Z" stroke="#EF750D" stroke-width="1.5" stroke-miterlimit="10"/>
<path d="M57.778 39.3748C57.778 39.74 57.4766 40.0361 57.1049 40.0361C56.7331 40.0361 56.4317 39.74 56.4317 39.3748C56.4317 39.0095 56.7331 38.7134 57.1049 38.7134C57.4766 38.7134 57.778 39.0095 57.778 39.3748Z" stroke="#EF750D" stroke-width="1.5" stroke-miterlimit="10"/>
<path d="M48.6978 62.7678C48.6978 63.1331 48.3964 63.4292 48.0246 63.4292C47.6529 63.4292 47.3515 63.1331 47.3515 62.7678C47.3515 62.4026 47.6529 62.1064 48.0246 62.1064C48.3964 62.1064 48.6978 62.4026 48.6978 62.7678Z" stroke="#EF750D" stroke-width="1.5" stroke-miterlimit="10"/>
<path d="M62.6822 53.5518C63.3368 53.5518 63.8675 53.0304 63.8675 52.3873C63.8675 51.7441 63.3368 51.2227 62.6822 51.2227C62.0275 51.2227 61.4968 51.7441 61.4968 52.3873C61.4968 53.0304 62.0275 53.5518 62.6822 53.5518Z" stroke="#EF750D" stroke-width="1.5" stroke-miterlimit="10"/>
<path d="M78.2808 30.3655C78.2808 30.7307 77.9794 31.0269 77.6077 31.0269C77.2359 31.0269 76.9345 30.7307 76.9345 30.3655C76.9345 30.0002 77.2359 29.7041 77.6077 29.7041C77.9794 29.7041 78.2808 30.0002 78.2808 30.3655Z" stroke="#EF750D" stroke-width="1.5" stroke-miterlimit="10"/>
</svg>
