<svg width="5" height="5" viewBox="0 0 20 20" fill="none" xmlns="http://www.w3.org/2000/svg">
<g clip-path="url(#clip0_2387_16120)">
<path d="M10.0227 18.1187C5.60768 18.1255 1.6703 15.3421 0.20402 11.1777C-0.0679761 10.4158 -0.0679761 9.58316 0.20402 8.82122C2.10832 3.41105 8.0379 0.568969 13.4481 2.47332C16.4166 3.5182 18.7511 5.85278 19.796 8.82127C20.068 9.58321 20.068 10.4158 19.796 11.1777C18.3352 15.3264 14.421 18.1063 10.0227 18.1187ZM10.0227 3.01311C6.09569 3.01688 2.59741 5.49534 1.29163 9.19886C1.11031 9.71718 1.11031 10.2817 1.29163 10.8001C2.98232 15.6221 8.26198 18.1605 13.084 16.4698C15.7372 15.5395 17.8235 13.4533 18.7537 10.8001C18.9351 10.2817 18.9351 9.71718 18.7537 9.19886C17.4479 5.49534 13.9497 3.01688 10.0227 3.01311Z" fill="#747474"/>
<path d="M10.0227 14.3425C7.62419 14.3425 5.67981 12.3981 5.67981 9.99961C5.67981 7.60112 7.62419 5.65674 10.0227 5.65674C12.4212 5.65674 14.3656 7.60112 14.3656 9.99961C14.3614 12.3964 12.4194 14.3383 10.0227 14.3425ZM10.0227 6.78966C8.24989 6.78966 6.81273 8.22682 6.81273 9.99961C6.81273 11.7724 8.24989 13.2096 10.0227 13.2096C11.7955 13.2096 13.2326 11.7724 13.2326 9.99961C13.2285 8.22857 11.7937 6.79381 10.0227 6.78966Z" fill="#747474"/>
</g>
<defs>
<clipPath id="clip0_2387_16120">
<rect width="20" height="20" fill="white"/>
</clipPath>
</defs>
</svg>
