<svg width="5" height="5" viewBox="0 0 20 20" fill="none" xmlns="http://www.w3.org/2000/svg">
<g clip-path="url(#clip0_2387_16045)">
<path d="M10 18.1078C5.59498 18.1145 1.66651 15.3374 0.203536 11.1825C-0.0678452 10.4223 -0.0678452 9.59153 0.203536 8.83131C0.866634 6.95845 2.05422 5.31575 3.62476 4.09887C3.86369 3.93256 4.18985 3.975 4.37834 4.19683C4.57036 4.4376 4.53089 4.78848 4.29007 4.9805C4.28687 4.98305 4.28362 4.98559 4.28037 4.98809C2.89516 6.07987 1.84958 7.54364 1.26608 9.2081C1.08517 9.72524 1.08517 10.2885 1.26608 10.8057C2.94876 15.6183 8.21422 18.1556 13.0268 16.4729C13.7108 16.2338 14.3642 15.915 14.9736 15.5231C15.2312 15.3731 15.561 15.4489 15.7272 15.6964C15.8733 15.9546 15.798 16.2816 15.5538 16.45C13.899 17.522 11.9716 18.0973 10 18.1078Z" fill="#747474"/>
<path d="M17.5358 14.5735C17.4029 14.5729 17.2746 14.5247 17.174 14.4379C16.9364 14.2393 16.9028 13.8865 17.0987 13.6466C17.8033 12.8047 18.3497 11.8422 18.7113 10.8056C18.8922 10.2885 18.8922 9.72521 18.7113 9.20807C17.017 4.39513 11.7419 1.86693 6.92892 3.56125C6.76784 3.61796 6.60836 3.67914 6.45068 3.74465C6.16145 3.86537 5.82912 3.72869 5.70841 3.43946C5.5877 3.15022 5.72437 2.8179 6.01361 2.69719C11.3029 0.491333 17.3791 2.99103 19.5849 8.28037C19.6606 8.46198 19.7312 8.64566 19.7965 8.83128C20.0679 9.59149 20.0679 10.4222 19.7965 11.1824C19.3901 12.3435 18.7802 13.4229 17.9954 14.37C17.8798 14.5024 17.7115 14.5769 17.5358 14.5735Z" fill="#747474"/>
<path d="M3.97143 5.10886C3.89631 5.10848 3.82199 5.09308 3.75289 5.06364C3.68408 5.03798 3.6222 4.99672 3.57204 4.94307C3.46602 4.8372 3.40639 4.69355 3.40625 4.54368C3.40799 4.39414 3.46738 4.2511 3.57204 4.14428C3.79269 3.92391 4.15017 3.92391 4.37083 4.14428C4.47548 4.2511 4.53487 4.39414 4.53661 4.54368C4.53661 4.85585 4.28355 5.10886 3.97143 5.10886Z" fill="#747474"/>
<path d="M9.99998 14.34C7.60691 14.34 5.66693 12.4 5.66693 10.0069C5.66693 9.06939 5.971 8.15714 6.53354 7.4071C6.72066 7.15725 7.07489 7.10638 7.3247 7.2935C7.57456 7.48062 7.62542 7.83485 7.4383 8.08466C7.43816 8.0849 7.43797 8.08508 7.43783 8.08532C7.01856 8.63788 6.79343 9.31336 6.79729 10.0069C6.80144 11.774 8.2329 13.2055 9.99998 13.2096C10.6936 13.2135 11.369 12.9884 11.9216 12.5691C12.1713 12.3818 12.5256 12.4324 12.7129 12.6821C12.9001 12.9318 12.8495 13.2861 12.5998 13.4734C11.851 14.0384 10.9379 14.3427 9.99998 14.34Z" fill="#747474"/>
<path d="M13.6925 11.3256C13.6552 11.3329 13.6168 11.3329 13.5795 11.3256C13.2774 11.2658 13.081 10.9724 13.1408 10.6703C13.1413 10.6677 13.1418 10.6651 13.1424 10.6625C13.1815 10.4512 13.2016 10.2368 13.2027 10.022C13.2068 8.24898 11.773 6.80833 9.99999 6.80419C9.78513 6.80523 9.57074 6.82538 9.35946 6.86448C9.06269 6.96126 8.74369 6.79915 8.64691 6.50238C8.55012 6.20562 8.71223 5.88662 9.009 5.78983C9.04936 5.77664 9.09109 5.76807 9.13338 5.76426C9.41833 5.70397 9.70874 5.67364 9.99999 5.67383C12.3914 5.67797 14.3289 7.61551 14.333 10.0069C14.332 10.2977 14.3042 10.5877 14.2502 10.8735C14.191 11.1349 13.9605 11.3218 13.6925 11.3256Z" fill="#747474"/>
<path d="M19.0429 19.615C18.8929 19.6157 18.7489 19.5559 18.6435 19.4492L0.557743 1.36343C0.329363 1.15064 0.316787 0.79302 0.529578 0.56464C0.742368 0.33626 1.09999 0.323684 1.32837 0.536475C1.33807 0.545518 1.34749 0.554937 1.35653 0.56464L19.4423 18.6504C19.6627 18.8711 19.6627 19.2286 19.4423 19.4492C19.3369 19.5559 19.1929 19.6157 19.0429 19.615Z" fill="#747474"/>
</g>
<defs>
<clipPath id="clip0_2387_16045">
<rect width="20" height="20" fill="white"/>
</clipPath>
</defs>
</svg>
