<svg width="40" height="40" viewBox="0 0 40 40" fill="none" xmlns="http://www.w3.org/2000/svg">
<g clip-path="url(#clip0_2387_14577)">
<path d="M28.3871 18.7095H30.9677V19.9998H28.3871V18.7095Z" fill="#581958"/>
<path d="M33.5484 18.7095H36.129V19.9998H33.5484V18.7095Z" fill="#581958"/>
<path d="M31.6129 20.645H32.9032V23.2257H31.6129V20.645Z" fill="#581958"/>
<path d="M31.6129 15.4839H32.9032V18.0645H31.6129V15.4839Z" fill="#581958"/>
<path d="M36.938 25.5078C38.7941 24.0921 40 21.8646 40 19.3548C40 16.238 38.1445 13.5522 35.4839 12.3258V9.67742C35.4839 9.32145 35.1947 9.03226 34.8387 9.03226H29.6774C29.3214 9.03226 29.0323 9.32145 29.0323 9.67742V12.3258C28.0651 12.7715 27.207 13.4104 26.5039 14.1935H23.871V12.2581C23.871 11.9021 23.5818 11.6129 23.2258 11.6129H20.6452V8.3871C20.6452 8.03175 20.935 7.74194 21.2903 7.74194H30.9677C32.0347 7.74194 32.9032 6.87343 32.9032 5.80645C32.9032 4.73948 32.0347 3.87097 30.9677 3.87097H9.03226C8.67692 3.87097 8.3871 3.58115 8.3871 3.22581C8.3871 2.87046 8.67692 2.58065 9.03226 2.58065H20C20.356 2.58065 20.6452 2.29146 20.6452 1.93548V0H19.3548V1.29032H9.03226C7.96529 1.29032 7.09677 2.15883 7.09677 3.22581C7.09677 4.29278 7.96529 5.16129 9.03226 5.16129H30.9677C31.3231 5.16129 31.6129 5.45111 31.6129 5.80645C31.6129 6.16179 31.3231 6.45161 30.9677 6.45161H21.2903C20.2234 6.45161 19.3548 7.32012 19.3548 8.3871V11.6129H16.7742C16.4182 11.6129 16.129 11.9021 16.129 12.2581V14.1935H13.4961C12.793 13.4104 11.9349 12.7715 10.9677 12.3258V9.67742C10.9677 9.32145 10.6786 9.03226 10.3226 9.03226H5.16129C4.80532 9.03226 4.51613 9.32145 4.51613 9.67742V12.3258C1.85547 13.5522 0 16.238 0 19.3548C0 21.8646 1.2059 24.0921 3.062 25.5078L0.283833 33.2872C0.0954511 33.8143 0 34.3659 0 34.9257V35.127C0 37.8141 2.18593 40 4.87305 40C6.47808 40 7.97946 39.2102 8.88829 37.8878L14.5328 29.6774H16.7742C17.1302 29.6774 17.4194 29.3892 17.4194 29.0323V27.0968H22.5806V29.0323C22.5806 29.3892 22.8698 29.6774 23.2258 29.6774H25.4672L31.1117 37.8878C32.0205 39.2102 33.5219 40 35.127 40C37.8141 40 40 37.8141 40 35.127V34.9257C40 34.3659 39.9046 33.8143 39.7162 33.2872L36.938 25.5078ZM30.3226 10.3226H34.1936V11.8678C33.5736 11.7071 32.9272 11.6129 32.2581 11.6129C31.589 11.6129 30.9425 11.7071 30.3226 11.8678V10.3226ZM32.2581 12.9032C35.8156 12.9032 38.7097 15.7973 38.7097 19.3548C38.7097 22.9124 35.8156 25.8065 32.2581 25.8065C31.1155 25.8065 30.0123 25.4936 29.0323 24.925V23.871C29.0323 23.5141 28.7431 23.2258 28.3871 23.2258H27.104C26.2683 22.1135 25.8065 20.7523 25.8065 19.3548C25.8065 15.7973 28.7005 12.9032 32.2581 12.9032ZM17.4194 12.9032H22.5806V14.1935H17.4194V12.9032ZM5.80645 10.3226H9.67742V11.8678C9.05746 11.7071 8.41104 11.6129 7.74194 11.6129C7.07283 11.6129 6.42641 11.7071 5.80645 11.8678V10.3226ZM1.29032 19.3548C1.29032 15.7973 4.18441 12.9032 7.74194 12.9032C11.2995 12.9032 14.1935 15.7973 14.1935 19.3548C14.1935 20.7523 13.7317 22.1135 12.896 23.2258H11.6129C11.2569 23.2258 10.9677 23.5141 10.9677 23.871V24.925C9.98771 25.4936 8.88451 25.8065 7.74194 25.8065C4.18441 25.8065 1.29032 22.9124 1.29032 19.3548ZM7.82447 37.1566C7.15663 38.1297 6.0528 38.7097 4.87305 38.7097C2.89756 38.7097 1.29032 37.1024 1.29032 35.127V34.9257C1.29032 34.5136 1.36057 34.1085 1.4995 33.7207L4.17811 26.2207C5.24572 26.7773 6.45665 27.0968 7.74194 27.0968C8.86467 27.0968 9.96125 26.8555 10.9677 26.3937V29.0323C10.9677 29.3892 11.2569 29.6774 11.6129 29.6774H12.9672L7.82447 37.1566ZM16.129 28.3871H12.2581V24.5161H16.129V28.3871ZM22.5806 23.871V25.8065H17.4194V23.871C17.4194 23.5141 17.1302 23.2258 16.7742 23.2258H14.444C15.1194 22.0555 15.4839 20.7179 15.4839 19.3548C15.4839 17.9439 15.098 16.6246 14.4361 15.4839H25.5633C24.902 16.6246 24.5161 17.9439 24.5161 19.3548C24.5161 20.7179 24.8806 22.0555 25.556 23.2258H23.2258C22.8698 23.2258 22.5806 23.5141 22.5806 23.871ZM23.871 24.5161H27.7419V28.3871H23.871V24.5161ZM38.7097 35.127C38.7097 37.1024 37.1024 38.7097 35.127 38.7097C33.9472 38.7097 32.8434 38.1297 32.1749 37.1566L27.0328 29.6774H28.3871C28.7431 29.6774 29.0323 29.3892 29.0323 29.0323V26.3937C30.0387 26.8555 31.1353 27.0968 32.2581 27.0968C33.5434 27.0968 34.7543 26.7773 35.8219 26.2207L38.5005 33.7207C38.6394 34.1085 38.7097 34.5136 38.7097 34.9257V35.127Z" fill="#581958"/>
<path d="M17.4194 19.355H18.7097V21.9356H17.4194V19.355Z" fill="#581958"/>
<path d="M21.2903 19.355H22.5807V21.9356H21.2903V19.355Z" fill="#581958"/>
<path d="M4.51613 21.2903H5.80646V22.5807C5.80646 22.9376 6.09564 23.2258 6.45162 23.2258H9.03226C9.38824 23.2258 9.67742 22.9376 9.67742 22.5807V21.2903H10.9677C11.3237 21.2903 11.6129 21.0021 11.6129 20.6452V18.0645C11.6129 17.7086 11.3237 17.4194 10.9677 17.4194H9.67742V16.129C9.67742 15.7731 9.38824 15.4839 9.03226 15.4839H6.45162C6.09564 15.4839 5.80646 15.7731 5.80646 16.129V17.4194H4.51613C4.16016 17.4194 3.87097 17.7086 3.87097 18.0645V20.6452C3.87097 21.0021 4.16016 21.2903 4.51613 21.2903ZM5.16129 18.7097H6.45162C6.80759 18.7097 7.09678 18.4205 7.09678 18.0645V16.7742H8.3871V18.0645C8.3871 18.4205 8.67629 18.7097 9.03226 18.7097H10.3226V20H9.03226C8.67629 20 8.3871 20.2892 8.3871 20.6452V21.9355H7.09678V20.6452C7.09678 20.2892 6.80759 20 6.45162 20H5.16129V18.7097Z" fill="#581958"/>
</g>
<defs>
<clipPath id="clip0_2387_14577">
<rect width="40" height="40" fill="white"/>
</clipPath>
</defs>
</svg>
