<svg width="40" height="40" viewBox="0 0 40 40" fill="none" xmlns="http://www.w3.org/2000/svg">
<g clip-path="url(#clip0_2387_14554)">
<path d="M20.625 13.75H17.5C17.3342 13.75 17.1753 13.8158 17.0581 13.9331C16.9408 14.0503 16.875 14.2092 16.875 14.375V18.75H18.125V17.5H20V18.75H21.25V14.375C21.25 14.2092 21.1842 14.0503 21.0669 13.9331C20.9497 13.8158 20.7908 13.75 20.625 13.75ZM20 15V16.25H18.125V15H20Z" fill="#581958"/>
<path d="M23.125 13.75V15H23.75V17.5H23.125V18.75H25.625V17.5H25V15H25.625V13.75H23.125Z" fill="#581958"/>
<path d="M37.5 20.625C37.1797 20.628 36.8657 20.7141 36.5887 20.875L32.9119 17.6569C32.7982 17.5563 32.6518 17.5005 32.5 17.5H28.75V14.375H34.49C34.6374 14.792 34.9275 15.1435 35.3091 15.3673C35.6906 15.5911 36.1389 15.6728 36.5748 15.598C37.0108 15.5232 37.4062 15.2967 37.6913 14.9585C37.9764 14.6204 38.1328 14.1923 38.1328 13.75C38.1328 13.3077 37.9764 12.8796 37.6913 12.5415C37.4062 12.2033 37.0108 11.9768 36.5748 11.902C36.1389 11.8272 35.6906 11.9089 35.3091 12.1327C34.9275 12.3565 34.6374 12.708 34.49 13.125H28.75V11.875C28.75 11.7092 28.6842 11.5503 28.5669 11.4331C28.4497 11.3158 28.2908 11.25 28.125 11.25H26.25V8.4375L32.0869 4.0625C32.4348 4.29381 32.85 4.4023 33.2665 4.37077C33.6831 4.33923 34.0772 4.16947 34.3863 3.88842C34.6955 3.60738 34.9019 3.23115 34.9728 2.81944C35.0437 2.40773 34.9751 1.98413 34.7779 1.61585C34.5806 1.24757 34.266 0.955717 33.884 0.786604C33.502 0.61749 33.0744 0.580803 32.6692 0.682365C32.2639 0.783927 31.9042 1.01792 31.6471 1.34721C31.39 1.6765 31.2502 2.08223 31.25 2.5C31.2526 2.68866 31.284 2.87581 31.3431 3.055L25.25 7.625C25.1724 7.68322 25.1094 7.75871 25.066 7.84549C25.0226 7.93228 25 8.02797 25 8.125V11.25H21.875V7.5C21.875 7.34846 21.8199 7.20209 21.72 7.08813L18.5031 3.41188C18.6628 3.13435 18.7479 2.82018 18.75 2.5C18.75 2.12916 18.64 1.76665 18.434 1.45831C18.228 1.14996 17.9351 0.909641 17.5925 0.767727C17.2499 0.625812 16.8729 0.588681 16.5092 0.661028C16.1455 0.733376 15.8114 0.911952 15.5492 1.17418C15.287 1.4364 15.1084 1.77049 15.036 2.13421C14.9637 2.49792 15.0008 2.87492 15.1427 3.21753C15.2846 3.56014 15.525 3.85298 15.8333 4.05901C16.1416 4.26503 16.5042 4.375 16.875 4.375C17.112 4.37427 17.3466 4.32823 17.5663 4.23938L20.625 7.735V11.25H17.5V8.75C17.5001 8.60803 17.4518 8.47026 17.3631 8.35938L15.9631 6.60938C16.1493 6.31471 16.2487 5.97356 16.25 5.625C16.25 5.25416 16.14 4.89165 15.934 4.58331C15.728 4.27496 15.4351 4.03464 15.0925 3.89273C14.7499 3.75081 14.3729 3.71368 14.0092 3.78603C13.6455 3.85838 13.3114 4.03695 13.0492 4.29918C12.787 4.5614 12.6084 4.89549 12.536 5.25921C12.4637 5.62292 12.5008 5.99992 12.6427 6.34253C12.7846 6.68514 13.025 6.97798 13.3333 7.18401C13.6416 7.39003 14.0042 7.5 14.375 7.5C14.5835 7.49775 14.7902 7.46035 14.9863 7.38938L16.25 8.96938V11.25H14.375C14.2092 11.25 14.0503 11.3158 13.9331 11.4331C13.8158 11.5503 13.75 11.7092 13.75 11.875V13.125H12.1338L4.1875 5.17813C4.30982 4.928 4.37392 4.65343 4.375 4.375C4.375 4.00416 4.26503 3.64165 4.05901 3.33331C3.85298 3.02496 3.56014 2.78464 3.21753 2.64273C2.87492 2.50081 2.49792 2.46368 2.13421 2.53603C1.77049 2.60838 1.4364 2.78695 1.17418 3.04918C0.911952 3.3114 0.733376 3.64549 0.661028 4.00921C0.588681 4.37292 0.625812 4.74992 0.767727 5.09253C0.909641 5.43514 1.14996 5.72798 1.45831 5.93401C1.76665 6.14003 2.12916 6.25 2.5 6.25C2.77843 6.24892 3.053 6.18482 3.30313 6.0625L11.4331 14.1919C11.5503 14.3091 11.7093 14.375 11.875 14.375H13.75V17.5H9.00875L4.8125 13.3031C4.93482 13.053 4.99892 12.7784 5 12.5C5 12.1292 4.89003 11.7666 4.68401 11.4583C4.47798 11.15 4.18514 10.9096 3.84253 10.7677C3.49992 10.6258 3.12292 10.5887 2.75921 10.661C2.39549 10.7334 2.0614 10.912 1.79918 11.1742C1.53695 11.4364 1.35838 11.7705 1.28603 12.1342C1.21368 12.4979 1.25081 12.8749 1.39273 13.2175C1.53464 13.5601 1.77496 13.853 2.08331 14.059C2.39165 14.265 2.75416 14.375 3.125 14.375C3.40343 14.3739 3.678 14.3098 3.92813 14.1875L8.30813 18.5675C8.42541 18.6845 8.58434 18.7501 8.75 18.75H13.75V20H10.6838C10.6004 20 10.5179 20.0166 10.4411 20.049C10.3642 20.0813 10.2947 20.1287 10.2364 20.1883C10.1782 20.248 10.1325 20.3186 10.102 20.3962C10.0714 20.4738 10.0568 20.5567 10.0588 20.64C10.0725 21.1664 10.2015 21.6833 10.4369 22.1544C10.5984 22.4788 10.6827 22.8363 10.6831 23.1987C10.6846 23.688 10.5889 24.1726 10.4017 24.6246C10.2145 25.0766 9.93945 25.487 9.5925 25.8319C9.56952 25.8548 9.54861 25.8797 9.53 25.9062L8.48563 27.3406C8.31141 27.5799 8.19609 27.8569 8.149 28.1491C8.10192 28.4414 8.12441 28.7406 8.21464 29.0225C8.30487 29.3044 8.46031 29.561 8.66833 29.7716C8.87635 29.9822 9.13109 30.1407 9.41188 30.2344L10.1025 30.465L10.4775 34.2031C10.5218 34.6462 10.6652 35.0735 10.8971 35.4536C11.129 35.8337 11.4435 36.1566 11.8172 36.3986C12.191 36.6406 12.6144 36.7954 13.0561 36.8514C13.4978 36.9075 13.9464 36.8634 14.3688 36.7225L17.2438 35.7644L18.875 39.0294C18.9269 39.1333 19.0068 39.2206 19.1056 39.2817C19.2044 39.3427 19.3182 39.3751 19.4344 39.375H30.0594C30.1561 39.375 30.2515 39.3525 30.3381 39.3093C30.4246 39.2661 30.5 39.2034 30.5582 39.1262C30.6164 39.0489 30.6559 38.9592 30.6736 38.8641C30.6913 38.769 30.6866 38.6711 30.66 38.5781L29.4375 34.2887C29.4523 32.7712 29.8118 31.277 30.4888 29.9187L30.7531 29.3906C31.5141 27.8295 31.8983 26.1116 31.875 24.375C31.875 23.5238 31.8806 20.735 31.875 20.5944C31.8671 20.434 31.7978 20.2828 31.6815 20.1721C31.5651 20.0614 31.4106 19.9998 31.25 20H28.75V18.75H32.2656L35.7606 21.8094C35.6718 22.0288 35.6258 22.2633 35.625 22.5C35.625 22.8708 35.735 23.2334 35.941 23.5417C36.147 23.85 36.4399 24.0904 36.7825 24.2323C37.1251 24.3742 37.5021 24.4113 37.8658 24.339C38.2295 24.2666 38.5636 24.088 38.8258 23.8258C39.088 23.5636 39.2666 23.2295 39.339 22.8658C39.4113 22.5021 39.3742 22.1251 39.2323 21.7825C39.0904 21.4399 38.85 21.147 38.5417 20.941C38.2334 20.735 37.8708 20.625 37.5 20.625ZM36.25 13.125C36.3736 13.125 36.4944 13.1617 36.5972 13.2303C36.7 13.299 36.7801 13.3966 36.8274 13.5108C36.8747 13.625 36.8871 13.7507 36.863 13.8719C36.8389 13.9932 36.7794 14.1045 36.6919 14.1919C36.6045 14.2794 36.4932 14.3389 36.3719 14.363C36.2507 14.3871 36.125 14.3747 36.0108 14.3274C35.8966 14.2801 35.799 14.2 35.7303 14.0972C35.6617 13.9945 35.625 13.8736 35.625 13.75C35.625 13.5842 35.6908 13.4253 35.8081 13.3081C35.9253 13.1908 36.0842 13.125 36.25 13.125ZM33.125 1.875C33.2486 1.875 33.3694 1.91166 33.4722 1.98033C33.575 2.04901 33.6551 2.14662 33.7024 2.26082C33.7497 2.37503 33.7621 2.50069 33.738 2.62193C33.7139 2.74317 33.6544 2.85453 33.5669 2.94194C33.4795 3.02935 33.3682 3.08888 33.2469 3.11299C33.1257 3.13711 33 3.12473 32.8858 3.07743C32.7716 3.03012 32.674 2.95001 32.6053 2.84723C32.5367 2.74445 32.5 2.62361 32.5 2.5C32.5 2.33424 32.5658 2.17527 32.6831 2.05806C32.8003 1.94085 32.9592 1.875 33.125 1.875ZM16.25 2.5C16.25 2.37639 16.2867 2.25555 16.3553 2.15277C16.424 2.04999 16.5216 1.96988 16.6358 1.92258C16.75 1.87527 16.8757 1.86289 16.9969 1.88701C17.1182 1.91113 17.2295 1.97065 17.3169 2.05806C17.4044 2.14547 17.4639 2.25683 17.488 2.37807C17.5121 2.49931 17.4997 2.62497 17.4524 2.73918C17.4051 2.85338 17.325 2.95099 17.2222 3.01967C17.1195 3.08835 16.9986 3.125 16.875 3.125C16.7092 3.125 16.5503 3.05915 16.4331 2.94194C16.3158 2.82473 16.25 2.66576 16.25 2.5ZM13.75 5.625C13.75 5.50139 13.7867 5.38055 13.8553 5.27777C13.924 5.17499 14.0216 5.09488 14.1358 5.04758C14.25 5.00027 14.3757 4.98789 14.4969 5.01201C14.6182 5.03613 14.7295 5.09565 14.8169 5.18306C14.9044 5.27047 14.9639 5.38183 14.988 5.50307C15.0121 5.62431 14.9997 5.74997 14.9524 5.86418C14.9051 5.97838 14.825 6.07599 14.7222 6.14467C14.6195 6.21335 14.4986 6.25 14.375 6.25C14.2092 6.25 14.0503 6.18415 13.9331 6.06694C13.8158 5.94973 13.75 5.79076 13.75 5.625ZM1.875 4.375C1.875 4.25139 1.91166 4.13055 1.98033 4.02777C2.04901 3.92499 2.14662 3.84488 2.26082 3.79758C2.37503 3.75027 2.50069 3.73789 2.62193 3.76201C2.74317 3.78613 2.85453 3.84565 2.94194 3.93306C3.02935 4.02047 3.08888 4.13183 3.11299 4.25307C3.13711 4.37431 3.12473 4.49997 3.07743 4.61418C3.03012 4.72838 2.95001 4.82599 2.84723 4.89467C2.74445 4.96335 2.62361 5 2.5 5C2.33424 5 2.17527 4.93415 2.05806 4.81694C1.94085 4.69973 1.875 4.54076 1.875 4.375ZM3.125 13.125C3.00139 13.125 2.88055 13.0883 2.77777 13.0197C2.67499 12.951 2.59488 12.8534 2.54758 12.7392C2.50027 12.625 2.48789 12.4993 2.51201 12.3781C2.53613 12.2568 2.59565 12.1455 2.68306 12.0581C2.77047 11.9707 2.88183 11.9111 3.00307 11.887C3.12431 11.8629 3.24997 11.8753 3.36418 11.9226C3.47838 11.9699 3.57599 12.05 3.64467 12.1528C3.71335 12.2556 3.75 12.3764 3.75 12.5C3.75 12.6658 3.68415 12.8247 3.56694 12.9419C3.44973 13.0592 3.29076 13.125 3.125 13.125ZM30.625 24.375C30.6467 25.9176 30.3066 27.4438 29.6319 28.8313L29.3675 29.3594C28.591 30.9175 28.1859 32.6342 28.1838 34.375C28.1837 34.4332 28.1919 34.491 28.2081 34.5469L29.23 38.125H19.82L18.3975 35.2794L19.8206 34.5681C20.4556 34.2527 21.0218 33.8145 21.4863 33.2789C21.9508 32.7432 22.3045 32.1208 22.5269 31.4475L21.3394 31.0525C21.1684 31.5698 20.8965 32.048 20.5395 32.4596C20.1825 32.8711 19.7474 33.2077 19.2594 33.45L17.3188 34.4212L13.9719 35.5369C13.7275 35.618 13.4681 35.6431 13.2127 35.6104C12.9573 35.5777 12.7125 35.488 12.4965 35.3479C12.2804 35.2079 12.0987 35.021 11.9646 34.8012C11.8305 34.5814 11.7476 34.3343 11.7219 34.0781L11.3056 29.9375C11.2936 29.8176 11.2473 29.7038 11.1721 29.6096C11.0969 29.5155 10.9961 29.4451 10.8819 29.4069L9.80688 29.0487C9.71239 29.0174 9.62663 28.9643 9.55657 28.8936C9.4865 28.8229 9.43411 28.7366 9.40366 28.6419C9.37321 28.5471 9.36555 28.4465 9.38132 28.3482C9.39708 28.2499 9.43582 28.1567 9.49438 28.0763L10.5106 26.68C11.4246 25.7522 11.9354 24.5011 11.9319 23.1987C11.9312 22.6424 11.8018 22.0937 11.5538 21.5956C11.4986 21.4843 11.4527 21.3687 11.4163 21.25H30.625C30.6281 22.025 30.625 23.3825 30.625 24.375ZM15 20V12.5H27.5V20H15ZM37.5 23.125C37.3764 23.125 37.2556 23.0883 37.1528 23.0197C37.05 22.951 36.9699 22.8534 36.9226 22.7392C36.8753 22.625 36.8629 22.4993 36.887 22.3781C36.9111 22.2568 36.9706 22.1455 37.0581 22.0581C37.1455 21.9706 37.2568 21.9111 37.3781 21.887C37.4993 21.8629 37.625 21.8753 37.7392 21.9226C37.8534 21.9699 37.951 22.05 38.0197 22.1528C38.0883 22.2556 38.125 22.3764 38.125 22.5C38.125 22.6658 38.0592 22.8247 37.9419 22.9419C37.8247 23.0592 37.6658 23.125 37.5 23.125Z" fill="#581958"/>
</g>
<defs>
<clipPath id="clip0_2387_14554">
<rect width="40" height="40" fill="white"/>
</clipPath>
</defs>
</svg>
