<svg width="40" height="40" viewBox="0 0 40 40" fill="none" xmlns="http://www.w3.org/2000/svg">
<g clip-path="url(#clip0_2387_14544)">
<path d="M34.375 28.1287V25.625C34.374 24.7965 34.0444 24.0022 33.4586 23.4164C32.8728 22.8306 32.0785 22.501 31.25 22.5H25.9888C26.5672 21.4328 27.0339 20.3087 27.3813 19.1456L29.7563 17.245C30.1254 16.9503 30.3953 16.5494 30.5295 16.0965C30.6636 15.6436 30.6556 15.1604 30.5066 14.7121C30.3575 14.2639 30.0745 13.8722 29.6958 13.5898C29.3171 13.3074 28.8609 13.1481 28.3888 13.1331L29.7812 9.30438C30.1366 8.32726 30.2511 7.2789 30.1152 6.24811C29.9793 5.21732 29.5969 4.23448 29.0004 3.38286C28.404 2.53124 27.6111 1.83594 26.6888 1.35587C25.7666 0.875791 24.7422 0.625089 23.7025 0.625001H18.3962C14.4258 0.62401 10.5352 1.73984 7.16875 3.845C7.0676 3.90766 6.98644 3.99788 6.9348 4.10507C6.88317 4.21226 6.8632 4.33196 6.87724 4.45011C6.89129 4.56826 6.93877 4.67994 7.0141 4.77203C7.08943 4.86413 7.18948 4.93281 7.3025 4.97L8.80937 5.47C9.01677 5.53919 9.20785 5.65002 9.37088 5.79569C9.53392 5.94137 9.66547 6.11882 9.75747 6.31715C9.84947 6.51549 9.89997 6.73053 9.90589 6.94909C9.91181 7.16764 9.87301 7.3851 9.79187 7.58813C9.64212 7.96241 9.57333 8.36416 9.59003 8.76694C9.60673 9.16972 9.70853 9.5644 9.88875 9.925L11.5 13.1444C11.0391 13.1811 10.5998 13.3555 10.2393 13.645C9.87874 13.9346 9.6136 14.3258 9.47828 14.768C9.34295 15.2101 9.34371 15.6828 9.48044 16.1245C9.61716 16.5662 9.88355 16.9566 10.245 17.245L12.62 19.1456C12.967 20.3087 13.4332 21.4328 14.0112 22.5H8.75C7.9215 22.501 7.12722 22.8306 6.54139 23.4164C5.95555 24.0022 5.62599 24.7965 5.625 25.625V28.1287C4.14578 28.7467 2.88207 29.7878 1.99252 31.1215C1.10296 32.4552 0.627217 34.0219 0.625 35.625V38.75C0.625 38.9158 0.690848 39.0747 0.808058 39.1919C0.925268 39.3092 1.08424 39.375 1.25 39.375H38.75C38.9158 39.375 39.0747 39.3092 39.1919 39.1919C39.3092 39.0747 39.375 38.9158 39.375 38.75V35.625C39.3728 34.0219 38.897 32.4552 38.0075 31.1215C37.1179 29.7878 35.8542 28.7467 34.375 28.1287ZM25 13.125H21.25C21.0842 13.125 20.9253 13.1908 20.8081 13.3081C20.6908 13.4253 20.625 13.5842 20.625 13.75V14.375H19.375V13.75C19.375 13.5842 19.3092 13.4253 19.1919 13.3081C19.0747 13.1908 18.9158 13.125 18.75 13.125H13.125V12.2094L17.0263 9.60875C17.8657 9.04791 18.8529 8.74903 19.8625 8.75C21.3069 8.74831 22.708 8.25674 23.8369 7.35563L24.8581 6.53875L25.93 8.1475C26.5471 9.07092 26.876 10.1568 26.875 11.2675V13.125H25ZM24.375 14.375V16.25C24.375 16.4158 24.3092 16.5747 24.1919 16.6919C24.0747 16.8092 23.9158 16.875 23.75 16.875H22.5C22.3342 16.875 22.1753 16.8092 22.0581 16.6919C21.9408 16.5747 21.875 16.4158 21.875 16.25V14.375H24.375ZM18.125 14.375V16.25C18.125 16.4158 18.0592 16.5747 17.9419 16.6919C17.8247 16.8092 17.6658 16.875 17.5 16.875H16.25C16.0842 16.875 15.9253 16.8092 15.8081 16.6919C15.6908 16.5747 15.625 16.4158 15.625 16.25V14.375H18.125ZM29.375 15.4375C29.3753 15.5969 29.3396 15.7544 29.2706 15.8981C29.2015 16.0418 29.1009 16.1681 28.9762 16.2675L27.8431 17.1738C28.0083 16.2496 28.0992 15.3137 28.115 14.375H28.3125C28.452 14.375 28.5902 14.4025 28.7191 14.4559C28.848 14.5093 28.9651 14.5875 29.0638 14.6862C29.1625 14.7849 29.2407 14.902 29.2941 15.0309C29.3475 15.1598 29.375 15.298 29.375 15.4375ZM10.9519 8.0525C11.0963 7.69139 11.1654 7.30459 11.1549 6.91582C11.1445 6.52704 11.0547 6.14451 10.8912 5.79167C10.7276 5.43883 10.4936 5.12313 10.2037 4.86394C9.91375 4.60474 9.5739 4.40752 9.205 4.28438L9.01375 4.22188C11.9009 2.68048 15.1234 1.87442 18.3962 1.875H23.7025C24.5411 1.87516 25.3672 2.07738 26.1111 2.46455C26.8549 2.85172 27.4945 3.41243 27.9756 4.0992C28.4568 4.78597 28.7654 5.57858 28.8753 6.40991C28.9852 7.24124 28.8931 8.0868 28.6069 8.875L28.0638 10.3688C27.928 9.32518 27.5537 8.32688 26.97 7.45125L25.52 5.27563C25.4719 5.20356 25.4093 5.14229 25.3363 5.09571C25.2632 5.04912 25.1813 5.01823 25.0956 5.005C25.01 4.99207 24.9227 4.99689 24.8391 5.01915C24.7554 5.0414 24.6772 5.08062 24.6094 5.13438L23.0562 6.38C22.1488 7.10356 21.0231 7.49835 19.8625 7.5C18.606 7.49886 17.3774 7.87083 16.3325 8.56875L12.1531 11.355C12.1144 11.3813 12.0787 11.4119 12.0469 11.4463L11.0069 9.36563C10.9055 9.16304 10.8482 8.94128 10.8387 8.71495C10.8293 8.48863 10.8678 8.26286 10.9519 8.0525ZM11.0244 16.2688C10.8519 16.1314 10.7264 15.9438 10.6653 15.732C10.6041 15.5201 10.6105 15.2945 10.6833 15.0864C10.7562 14.8782 10.892 14.698 11.072 14.5705C11.2519 14.443 11.467 14.3747 11.6875 14.375H11.8837C11.8995 15.3141 11.9904 16.2504 12.1556 17.175L11.0244 16.2688ZM13.135 14.375H14.375V16.25C14.375 16.7473 14.5725 17.2242 14.9242 17.5758C15.2758 17.9275 15.7527 18.125 16.25 18.125H17.5C17.9973 18.125 18.4742 17.9275 18.8258 17.5758C19.1775 17.2242 19.375 16.7473 19.375 16.25V15.625H20.625V16.25C20.625 16.7473 20.8225 17.2242 21.1742 17.5758C21.5258 17.9275 22.0027 18.125 22.5 18.125H23.75C24.2473 18.125 24.7242 17.9275 25.0758 17.5758C25.4275 17.2242 25.625 16.7473 25.625 16.25V14.375H26.865C26.8165 17.2397 26.0167 20.0414 24.5456 22.5H15.4544C13.9833 20.0414 13.1835 17.2397 13.135 14.375ZM8.75 23.75H31.25C31.7473 23.75 32.2242 23.9475 32.5758 24.2992C32.9275 24.6508 33.125 25.1277 33.125 25.625V38.125H6.875V25.625C6.875 25.1277 7.07254 24.6508 7.42417 24.2992C7.77581 23.9475 8.25272 23.75 8.75 23.75ZM1.875 35.625C1.8767 34.3586 2.22765 33.1172 2.88926 32.0373C3.55086 30.9575 4.49749 30.081 5.625 29.5044V38.125H1.875V35.625ZM38.125 38.125H34.375V29.5044C35.5025 30.0811 36.4491 30.9575 37.1106 32.0374C37.7723 33.1172 38.1232 34.3586 38.125 35.625V38.125Z" fill="#581958"/>
<path d="M20 36.25C20.4945 36.25 20.9778 36.1034 21.3889 35.8287C21.8 35.554 22.1205 35.1635 22.3097 34.7067C22.4989 34.2499 22.5484 33.7472 22.452 33.2623C22.3555 32.7773 22.1174 32.3319 21.7678 31.9822C21.4181 31.6326 20.9727 31.3945 20.4877 31.298C20.0028 31.2016 19.5001 31.2511 19.0433 31.4403C18.5865 31.6295 18.196 31.95 17.9213 32.3611C17.6466 32.7722 17.5 33.2555 17.5 33.75C17.5 34.413 17.7634 35.0489 18.2322 35.5178C18.7011 35.9866 19.337 36.25 20 36.25ZM20 32.5C20.2472 32.5 20.4889 32.5733 20.6945 32.7107C20.9 32.848 21.0602 33.0432 21.1548 33.2716C21.2495 33.5001 21.2742 33.7514 21.226 33.9939C21.1778 34.2363 21.0587 34.4591 20.8839 34.6339C20.7091 34.8087 20.4863 34.9278 20.2439 34.976C20.0014 35.0242 19.7501 34.9995 19.5216 34.9049C19.2932 34.8102 19.098 34.65 18.9607 34.4445C18.8233 34.2389 18.75 33.9972 18.75 33.75C18.75 33.4185 18.8817 33.1005 19.1161 32.8661C19.3505 32.6317 19.6685 32.5 20 32.5Z" fill="#581958"/>
<path d="M15.8081 30.4419L16.6919 29.5581L14.6337 27.5L16.6919 25.4419L15.8081 24.5581L13.3081 27.0581C13.1909 27.1753 13.1251 27.3343 13.1251 27.5C13.1251 27.6657 13.1909 27.8247 13.3081 27.9419L15.8081 30.4419Z" fill="#581958"/>
<path d="M24.1919 30.4419L26.6919 27.9419C26.809 27.8247 26.8748 27.6657 26.8748 27.5C26.8748 27.3343 26.809 27.1753 26.6919 27.0581L24.1919 24.5581L23.3081 25.4419L25.3662 27.5L23.3081 29.5581L24.1919 30.4419Z" fill="#581958"/>
<path d="M21.3755 24.6248L17.6245 29.624L18.6244 30.3742L22.3753 25.3749L21.3755 24.6248Z" fill="#581958"/>
</g>
<defs>
<clipPath id="clip0_2387_14544">
<rect width="40" height="40" fill="white"/>
</clipPath>
</defs>
</svg>
