<svg width="40" height="40" viewBox="0 0 40 40" fill="none" xmlns="http://www.w3.org/2000/svg">
<path d="M31.25 14.375V15.625C32.4099 15.6263 33.5219 16.0877 34.3421 16.9079C35.1623 17.7281 35.6237 18.8401 35.625 20H36.875C36.8733 18.5087 36.2802 17.0789 35.2256 16.0244C34.1711 14.9698 32.7413 14.3767 31.25 14.375Z" fill="#581958"/>
<path d="M36.25 29.3746C35.8636 29.3762 35.4871 29.4972 35.1721 29.7209C34.857 29.9447 34.6188 30.2603 34.49 30.6246H33.125V27.8977C35.0627 27.4393 36.7645 26.2849 37.9069 24.654C39.0492 23.023 39.5525 21.0291 39.3211 19.0514C39.0896 17.0737 38.1396 15.2499 36.6516 13.9267C35.1636 12.6036 33.2412 11.8733 31.25 11.8746C30.8059 11.8756 30.3627 11.9138 29.925 11.989C29.6482 9.55056 28.4834 7.29938 26.6528 5.66488C24.8223 4.03037 22.4541 3.12695 20 3.12695C17.5459 3.12695 15.1777 4.03037 13.3471 5.66488C11.5166 7.29938 10.3518 9.55056 10.075 11.989C9.63731 11.9138 9.19408 11.8756 8.74999 11.8746C6.75875 11.8733 4.83643 12.6036 3.34839 13.9267C1.86035 15.2499 0.910326 17.0737 0.678894 19.0514C0.447462 21.0291 0.950753 23.023 2.09311 24.654C3.23546 26.2849 4.93724 27.4393 6.87499 27.8977V30.6246H5.50999C5.36255 30.2076 5.07245 29.8561 4.69094 29.6323C4.30943 29.4085 3.86109 29.3268 3.42516 29.4016C2.98922 29.4764 2.59376 29.7029 2.30867 30.0411C2.02358 30.3792 1.86722 30.8073 1.86722 31.2496C1.86722 31.6919 2.02358 32.12 2.30867 32.4581C2.59376 32.7963 2.98922 33.0228 3.42516 33.0976C3.86109 33.1724 4.30943 33.0907 4.69094 32.8669C5.07245 32.6431 5.36255 32.2916 5.50999 31.8746H7.49999C7.66575 31.8746 7.82472 31.8088 7.94193 31.6915C8.05914 31.5743 8.12499 31.4154 8.12499 31.2496V28.0927C8.33186 28.109 8.53874 28.1246 8.74999 28.1246H9.37499V33.2396C8.95798 33.387 8.60652 33.6772 8.38272 34.0587C8.15892 34.4402 8.0772 34.8885 8.15199 35.3244C8.22679 35.7604 8.45328 36.1558 8.79145 36.4409C9.12962 36.726 9.55768 36.8824 9.99999 36.8824C10.4423 36.8824 10.8704 36.726 11.2085 36.4409C11.5467 36.1558 11.7732 35.7604 11.848 35.3244C11.9228 34.8885 11.8411 34.4402 11.6173 34.0587C11.3935 33.6772 11.042 33.387 10.625 33.2396V28.1246H13.125V30.6246C13.125 30.7904 13.1908 30.9493 13.308 31.0665C13.4253 31.1838 13.5842 31.2496 13.75 31.2496H26.25C26.4158 31.2496 26.5747 31.1838 26.6919 31.0665C26.8091 30.9493 26.875 30.7904 26.875 30.6246V28.1246H29.375V33.2396C28.958 33.387 28.6065 33.6772 28.3827 34.0587C28.1589 34.4402 28.0772 34.8885 28.152 35.3244C28.2268 35.7604 28.4533 36.1558 28.7915 36.4409C29.1296 36.726 29.5577 36.8824 30 36.8824C30.4423 36.8824 30.8704 36.726 31.2085 36.4409C31.5467 36.1558 31.7732 35.7604 31.848 35.3244C31.9228 34.8885 31.8411 34.4402 31.6173 34.0587C31.3935 33.6772 31.042 33.387 30.625 33.2396V28.1246H31.25C31.4612 28.1246 31.6681 28.109 31.875 28.0927V31.2496C31.875 31.4154 31.9408 31.5743 32.058 31.6915C32.1753 31.8088 32.3342 31.8746 32.5 31.8746H34.49C34.6051 32.1978 34.8069 32.4832 35.0733 32.6995C35.3396 32.9158 35.6603 33.0548 36.0003 33.1012C36.3403 33.1476 36.6864 33.0996 37.001 32.9625C37.3156 32.8255 37.5864 32.6046 37.7839 32.324C37.9815 32.0435 38.0981 31.714 38.121 31.3716C38.144 31.0293 38.0724 30.6872 37.914 30.3828C37.7557 30.0784 37.5168 29.8233 37.2233 29.6455C36.9298 29.4677 36.5931 29.374 36.25 29.3746ZM3.74999 31.8746C3.62638 31.8746 3.50554 31.838 3.40276 31.7693C3.29998 31.7006 3.21987 31.603 3.17256 31.4888C3.12526 31.3746 3.11288 31.2489 3.137 31.1277C3.16111 31.0064 3.22064 30.8951 3.30805 30.8077C3.39546 30.7203 3.50682 30.6607 3.62806 30.6366C3.7493 30.6125 3.87496 30.6249 3.98917 30.6722C4.10337 30.7195 4.20098 30.7996 4.26966 30.9024C4.33833 31.0052 4.37499 31.126 4.37499 31.2496C4.37499 31.4154 4.30914 31.5743 4.19193 31.6915C4.07472 31.8088 3.91575 31.8746 3.74999 31.8746ZM9.99999 35.6246C9.87638 35.6246 9.75554 35.588 9.65276 35.5193C9.54998 35.4506 9.46987 35.353 9.42256 35.2388C9.37526 35.1246 9.36288 34.9989 9.387 34.8777C9.41111 34.7564 9.47064 34.6451 9.55805 34.5577C9.64546 34.4703 9.75682 34.4107 9.87806 34.3866C9.9993 34.3625 10.125 34.3749 10.2392 34.4222C10.3534 34.4695 10.451 34.5496 10.5197 34.6524C10.5883 34.7552 10.625 34.876 10.625 34.9996C10.625 35.1654 10.5591 35.3243 10.4419 35.4416C10.3247 35.5588 10.1657 35.6246 9.99999 35.6246ZM30 35.6246C29.8764 35.6246 29.7555 35.588 29.6528 35.5193C29.55 35.4506 29.4699 35.353 29.4226 35.2388C29.3753 35.1246 29.3629 34.9989 29.387 34.8777C29.4111 34.7564 29.4706 34.6451 29.558 34.5577C29.6455 34.4703 29.7568 34.4107 29.8781 34.3866C29.9993 34.3625 30.125 34.3749 30.2392 34.4222C30.3534 34.4695 30.451 34.5496 30.5197 34.6524C30.5883 34.7552 30.625 34.876 30.625 34.9996C30.625 35.1654 30.5591 35.3243 30.4419 35.4416C30.3247 35.5588 30.1658 35.6246 30 35.6246ZM25.625 29.9996H14.375V26.2496H25.625V29.9996ZM14.375 22.4996V18.7496H25.625V22.4996H14.375ZM24.375 23.7496V24.9996H15.625V23.7496H24.375ZM26.875 26.8746V25.6246C26.875 25.4588 26.8091 25.2999 26.6919 25.1827C26.5747 25.0655 26.4158 24.9996 26.25 24.9996H25.625V23.7496H26.25C26.4158 23.7496 26.5747 23.6838 26.6919 23.5665C26.8091 23.4493 26.875 23.2904 26.875 23.1246V18.1246C26.875 17.9588 26.8091 17.7999 26.6919 17.6827C26.5747 17.5655 26.4158 17.4996 26.25 17.4996H13.75C13.5842 17.4996 13.4253 17.5655 13.308 17.6827C13.1908 17.7999 13.125 17.9588 13.125 18.1246V23.1246C13.125 23.2904 13.1908 23.4493 13.308 23.5665C13.4253 23.6838 13.5842 23.7496 13.75 23.7496H14.375V24.9996H13.75C13.5842 24.9996 13.4253 25.0655 13.308 25.1827C13.1908 25.2999 13.125 25.4588 13.125 25.6246V26.8746H8.74999C7.77075 26.8788 6.80191 26.6737 5.90834 26.2731C5.01477 25.8725 4.21709 25.2857 3.56869 24.5518C2.9203 23.818 2.43615 22.9541 2.14866 22.018C1.86117 21.0819 1.77698 20.0952 1.90172 19.1239C2.02646 18.1527 2.35725 17.2192 2.87194 16.3862C3.38664 15.5531 4.07337 14.8396 4.88615 14.2934C5.69894 13.7472 6.61903 13.3809 7.58482 13.2192C8.55061 13.0574 9.53983 13.1038 10.4862 13.3552C10.5766 13.3787 10.6711 13.3817 10.7628 13.3639C10.8545 13.3461 10.941 13.308 11.016 13.2523C11.091 13.1967 11.1526 13.125 11.1962 13.0424C11.2398 12.9598 11.2644 12.8685 11.2681 12.7752C11.3536 10.5166 12.311 8.37889 13.9392 6.81114C15.5674 5.24339 17.7397 4.36754 20 4.36754C22.2603 4.36754 24.4326 5.24339 26.0608 6.81114C27.689 8.37889 28.6464 10.5166 28.7319 12.7752C28.7356 12.8685 28.7602 12.9598 28.8038 13.0424C28.8474 13.125 28.909 13.1967 28.984 13.2523C29.059 13.308 29.1455 13.3461 29.2372 13.3639C29.3289 13.3817 29.4234 13.3787 29.5137 13.3552C30.4586 13.1077 31.4455 13.0644 32.4084 13.2283C33.3714 13.3922 34.2883 13.7595 35.0981 14.3057C35.9079 14.8519 36.592 15.5645 37.1046 16.3959C37.6173 17.2274 37.9469 18.1586 38.0713 19.1274C38.1957 20.0962 38.1122 21.0805 37.8262 22.0145C37.5403 22.9485 37.0585 23.8108 36.413 24.5439C35.7675 25.277 34.9731 25.8641 34.0828 26.266C33.1925 26.6679 32.2268 26.8754 31.25 26.8746H26.875ZM36.25 31.8746C36.1264 31.8746 36.0055 31.838 35.9028 31.7693C35.8 31.7006 35.7199 31.603 35.6726 31.4888C35.6253 31.3746 35.6129 31.2489 35.637 31.1277C35.6611 31.0064 35.7206 30.8951 35.808 30.8077C35.8955 30.7203 36.0068 30.6607 36.1281 30.6366C36.2493 30.6125 36.375 30.6249 36.4892 30.6722C36.6034 30.7195 36.701 30.7996 36.7697 30.9024C36.8383 31.0052 36.875 31.126 36.875 31.2496C36.875 31.4154 36.8091 31.5743 36.6919 31.6915C36.5747 31.8088 36.4157 31.8746 36.25 31.8746Z" fill="#581958"/>
<path d="M15.625 20H16.875V21.25H15.625V20Z" fill="#581958"/>
<path d="M20.625 20H21.875V21.25H20.625V20Z" fill="#581958"/>
<path d="M23.125 20H24.375V21.25H23.125V20Z" fill="#581958"/>
<path d="M15.625 27.5H16.875V28.75H15.625V27.5Z" fill="#581958"/>
<path d="M20.625 27.5H21.875V28.75H20.625V27.5Z" fill="#581958"/>
<path d="M23.125 27.5H24.375V28.75H23.125V27.5Z" fill="#581958"/>
</svg>
