<svg width="40" height="40" viewBox="0 0 40 40" fill="none" xmlns="http://www.w3.org/2000/svg">
<path d="M19.9865 22.2038C15.1114 22.0449 13.9422 17.8708 13.6919 16.5232C13.2226 16.4145 12.8044 16.1489 12.5065 15.7703C12.1664 15.3016 12.0086 14.7252 12.0627 14.1486C12.0241 13.838 12.0511 13.5227 12.1419 13.2232C12.2328 12.9237 12.3856 12.6465 12.5903 12.4097C12.7058 12.2913 12.8387 12.191 12.9843 12.1124C12.0782 10.6496 11.632 8.94845 11.7032 7.22918C12.2676 3.19675 15.5173 2.80432 16.5351 2.78161C17.0036 2.23676 17.5892 1.80491 18.2481 1.51837C19.4824 1.02049 20.8467 0.944478 22.1287 1.30215C24.6487 1.95999 26.3292 3.22161 27.1265 5.05242C28.2616 7.65459 27.2659 10.6497 26.6941 11.9946C26.9122 12.0655 27.1132 12.1809 27.2843 12.3335C27.5172 12.57 27.6927 12.8567 27.7973 13.1717C27.9019 13.4867 27.9328 13.8215 27.8876 14.1503C27.9422 14.7267 27.7846 15.3033 27.4443 15.7719C27.1461 16.1504 26.7278 16.416 26.2584 16.5249C26.0081 17.8708 24.8416 22.0449 19.9865 22.2038ZM13.8876 12.9767C13.6959 12.9678 13.5083 13.0346 13.3654 13.1627C13.2665 13.3013 13.196 13.4581 13.158 13.6241C13.1201 13.7901 13.1154 13.9619 13.1443 14.1297C13.1466 14.1658 13.1453 14.202 13.1405 14.2378C13.1112 14.5481 13.1913 14.8588 13.367 15.1162C13.4766 15.2387 13.6096 15.338 13.7581 15.4083C13.9066 15.4787 14.0677 15.5187 14.2319 15.5259C14.3555 15.5405 14.4703 15.5974 14.5568 15.6868C14.6434 15.7762 14.6964 15.8927 14.707 16.0167C14.7249 16.2178 15.2043 20.9665 19.9876 21.1232C24.7443 20.9665 25.2259 16.2178 25.2438 16.0157C25.2546 15.8919 25.3078 15.7756 25.3943 15.6864C25.4809 15.5972 25.5955 15.5405 25.7189 15.5259C25.8831 15.5187 26.0442 15.4788 26.1927 15.4084C26.3413 15.338 26.4742 15.2387 26.5838 15.1162C26.7603 14.8576 26.8405 14.5452 26.8103 14.2335C26.8058 14.1987 26.8045 14.1636 26.8065 14.1286C26.8357 13.9553 26.8292 13.7779 26.7872 13.6072C26.7453 13.4365 26.6689 13.2762 26.5627 13.1362C26.3939 13.0119 26.1838 12.9569 25.9757 12.9827C25.8756 13.0004 25.7726 12.9896 25.6785 12.9515C25.5843 12.9134 25.5028 12.8495 25.4432 12.7672C25.3837 12.6849 25.3486 12.5874 25.3419 12.4861C25.3352 12.3847 25.3572 12.2835 25.4054 12.194C25.4254 12.1562 27.4054 8.39837 26.133 5.47783C25.4741 3.96864 24.0357 2.91513 21.8568 2.34648C20.8095 2.05011 19.6938 2.10711 18.6822 2.50864C18.1067 2.75659 17.605 3.14911 17.2259 3.6481C17.1714 3.72233 17.0986 3.78123 17.0146 3.8191C16.9306 3.85698 16.8383 3.87255 16.7465 3.86432C16.6065 3.85296 13.2968 3.63891 12.7778 7.33891C12.7778 7.33891 12.6281 10.2822 14.333 12.0659C14.4073 12.1436 14.4567 12.2417 14.475 12.3476C14.4933 12.4535 14.4796 12.5624 14.4357 12.6605C14.3952 12.7611 14.3238 12.8463 14.2318 12.9037C14.1398 12.9611 14.0319 12.9878 13.9238 12.98L13.8876 12.9767Z" fill="#581958"/>
<path d="M25.8816 12.9894C25.7421 12.9895 25.608 12.9357 25.5072 12.8391C25.4065 12.7426 25.3469 12.6109 25.3411 12.4715C25.3346 12.3315 25.167 9.06612 22.7292 8.75206C21.6142 8.89367 20.4819 8.80539 19.4023 8.49265C18.3227 8.17991 17.3186 7.64935 16.4519 6.93368C15.7627 7.45206 14.1746 9.02774 14.48 12.3883C14.484 12.5258 14.4355 12.6597 14.3442 12.7627C14.2529 12.8657 14.1258 12.93 13.9887 12.9424C13.8517 12.9549 13.715 12.9147 13.6066 12.8299C13.4982 12.7451 13.4263 12.6221 13.4054 12.4861C12.9573 7.55585 16.1232 5.84449 16.2578 5.77422C16.358 5.72194 16.4721 5.70237 16.584 5.71827C16.6959 5.73417 16.8 5.78474 16.8816 5.86287C17.6521 6.56071 18.5641 7.08392 19.5555 7.39673C20.5468 7.70953 21.594 7.80456 22.6254 7.67531C22.6749 7.6673 22.7252 7.66548 22.7751 7.6699C25.5232 7.95585 26.3627 10.9083 26.4222 12.4267C26.4277 12.5697 26.3763 12.7091 26.2793 12.8143C26.1822 12.9194 26.0473 12.9818 25.9043 12.9877L25.8816 12.9894Z" fill="#581958"/>
<path d="M35.1833 38.9192H4.81679C4.67343 38.9192 4.53594 38.8623 4.43457 38.7609C4.3332 38.6595 4.27625 38.5221 4.27625 38.3787V32.3527C4.28011 30.4482 5.03911 28.6229 6.3868 27.2771C7.73449 25.9314 9.56087 25.175 11.4654 25.1738H12.5033C12.6466 25.1738 12.7841 25.2308 12.8855 25.3321C12.9869 25.4335 13.0438 25.571 13.0438 25.7144C13.0438 25.8577 12.9869 25.9952 12.8855 26.0966C12.7841 26.198 12.6466 26.2549 12.5033 26.2549H11.4654C9.8475 26.2558 8.29593 26.8982 7.15092 28.0412C6.00591 29.1843 5.3609 30.7348 5.35733 32.3527V37.8382H34.6427V32.3527C34.6409 30.7361 33.9978 29.1861 32.8547 28.043C31.7115 26.8998 30.1616 26.2568 28.5449 26.2549H27.4325C27.2891 26.2549 27.1516 26.198 27.0502 26.0966C26.9489 25.9952 26.8919 25.8577 26.8919 25.7144C26.8919 25.571 26.9489 25.4335 27.0502 25.3321C27.1516 25.2308 27.2891 25.1738 27.4325 25.1738H28.5449C30.448 25.1765 32.2724 25.9338 33.6182 27.2795C34.9639 28.6252 35.7211 30.4496 35.7238 32.3527V38.3787C35.7238 38.5221 35.6669 38.6595 35.5655 38.7609C35.4641 38.8623 35.3266 38.9192 35.1833 38.9192Z" fill="#581958"/>
<path d="M21.8065 38.9194C21.7287 38.9194 21.6518 38.9026 21.5811 38.8702C21.5104 38.8378 21.4475 38.7905 21.3967 38.7315C21.346 38.6725 21.3085 38.6033 21.287 38.5285C21.2655 38.4538 21.2603 38.3753 21.2719 38.2983L23.4595 23.821C23.4711 23.7444 23.499 23.6712 23.5413 23.6064C23.5837 23.5415 23.6395 23.4865 23.7049 23.4451C23.7704 23.4037 23.844 23.3768 23.9207 23.3663C23.9975 23.3558 24.0756 23.3619 24.1497 23.3843L27.9249 24.5221C28.0001 24.5448 28.0694 24.5836 28.1281 24.6357C28.1867 24.6879 28.2333 24.7523 28.2646 24.8243C28.2959 24.8963 28.3111 24.9743 28.3092 25.0528C28.3073 25.1313 28.2883 25.2085 28.2535 25.2789L26.753 28.2897L27.6233 29.2664C27.7004 29.3536 27.7473 29.4634 27.757 29.5794C27.7668 29.6954 27.7388 29.8114 27.6773 29.9102L22.266 38.6632C22.2175 38.7415 22.1499 38.8061 22.0695 38.851C21.9891 38.8958 21.8986 38.9194 21.8065 38.9194ZM24.4357 24.5994L22.7357 35.8497L26.5481 29.6875L25.7033 28.7389C25.6314 28.6583 25.5853 28.558 25.5709 28.4509C25.5566 28.3439 25.5746 28.235 25.6227 28.1383L27 25.374L24.4357 24.5994Z" fill="#581958"/>
<path d="M18.1314 38.9186C18.0392 38.9187 17.9486 38.8951 17.868 38.8503C17.7875 38.8055 17.7198 38.7408 17.6714 38.6624L12.2584 29.911C12.1969 29.8122 12.1689 29.6962 12.1787 29.5802C12.1884 29.4642 12.2353 29.3544 12.3124 29.2673L13.1827 28.2905L11.6822 25.2797C11.6474 25.2093 11.6284 25.1321 11.6265 25.0536C11.6246 24.9751 11.6398 24.8972 11.6711 24.8251C11.7024 24.7531 11.749 24.6888 11.8076 24.6366C11.8663 24.5844 11.9356 24.5456 12.0108 24.5229L15.786 23.3851C15.8601 23.3629 15.9381 23.3568 16.0148 23.3673C16.0915 23.3779 16.165 23.4048 16.2304 23.4462C16.2958 23.4876 16.3516 23.5425 16.3939 23.6074C16.4362 23.6722 16.4641 23.7453 16.4757 23.8218L18.6643 38.2991C18.6756 38.3758 18.6703 38.454 18.6488 38.5285C18.6272 38.6029 18.5899 38.6719 18.5393 38.7306C18.4888 38.7894 18.4262 38.8366 18.3558 38.869C18.2854 38.9014 18.2089 38.9184 18.1314 38.9186ZM13.3897 29.6851L17.2022 35.8473L15.5022 24.5986L12.9378 25.3716L14.3146 28.1359C14.3628 28.2325 14.3809 28.3414 14.3666 28.4484C14.3524 28.5555 14.3064 28.6558 14.2346 28.7364L13.3897 29.6851Z" fill="#581958"/>
<path d="M20.0092 28.8405C18.8404 28.8397 17.6727 28.7689 16.5124 28.6286C16.4405 28.622 16.3706 28.6011 16.3068 28.567C16.2431 28.5329 16.1869 28.4864 16.1414 28.4303C16.096 28.3741 16.0623 28.3094 16.0423 28.2399C16.0223 28.1705 16.0164 28.0977 16.025 28.026C16.0336 27.9543 16.0565 27.885 16.0924 27.8222C16.1282 27.7595 16.1763 27.7046 16.2337 27.6607C16.2911 27.6169 16.3568 27.585 16.4267 27.5669C16.4967 27.5489 16.5696 27.5451 16.6411 27.5557C18.8502 27.8273 21.0843 27.8273 23.2935 27.5557C23.4344 27.5404 23.5756 27.5811 23.6868 27.669C23.798 27.7569 23.8702 27.8849 23.8879 28.0255C23.9056 28.1661 23.8674 28.308 23.7815 28.4207C23.6956 28.5334 23.5689 28.6079 23.4286 28.6281C22.2944 28.7704 21.1523 28.8414 20.0092 28.8405Z" fill="#581958"/>
<path d="M23.9951 24.4412C23.911 24.4409 23.8281 24.421 23.753 24.383C23.6779 24.3449 23.6127 24.2899 23.5627 24.2223C22.7594 23.1364 22.614 20.9839 22.6005 20.7423C22.5922 20.5992 22.6411 20.4588 22.7364 20.3517C22.8317 20.2447 22.9656 20.1799 23.1086 20.1715C23.2513 20.1648 23.3909 20.2142 23.4976 20.3092C23.6043 20.4042 23.6696 20.5371 23.6794 20.6796C23.7124 21.2483 23.9124 22.878 24.4313 23.5796C24.4906 23.6599 24.5265 23.7551 24.535 23.8546C24.5436 23.954 24.5244 24.0539 24.4796 24.1432C24.4348 24.2324 24.3662 24.3075 24.2813 24.3601C24.1965 24.4127 24.0987 24.4408 23.9989 24.4412H23.9951Z" fill="#581958"/>
<path d="M15.9427 24.4416C15.8428 24.4412 15.7451 24.4131 15.6602 24.3605C15.5754 24.3079 15.5068 24.2328 15.462 24.1436C15.4172 24.0543 15.398 23.9545 15.4065 23.855C15.415 23.7555 15.4509 23.6603 15.5102 23.58C16.0302 22.8773 16.2297 21.2481 16.2627 20.68C16.2668 20.609 16.2848 20.5396 16.3158 20.4756C16.3468 20.4115 16.3901 20.3543 16.4432 20.307C16.4963 20.2597 16.5582 20.2233 16.6253 20.2C16.6925 20.1766 16.7636 20.1667 16.8346 20.1708C16.9055 20.1749 16.975 20.193 17.039 20.224C17.103 20.2549 17.1603 20.2982 17.2076 20.3513C17.2549 20.4044 17.2912 20.4663 17.3146 20.5335C17.338 20.6006 17.3479 20.6717 17.3438 20.7427C17.3302 20.9843 17.1816 23.1368 16.3816 24.2227C16.3309 24.2912 16.2647 24.3468 16.1884 24.3848C16.1121 24.4229 16.0279 24.4423 15.9427 24.4416Z" fill="#581958"/>
<path d="M30.8946 31.3428C30.7539 31.3428 30.6188 31.288 30.5178 31.19C30.4169 31.092 30.3582 30.9585 30.3541 30.8179C30.253 27.2979 28.9146 26.1904 28.9017 26.1795C28.79 26.0909 28.7175 25.9619 28.7 25.8204C28.6824 25.6789 28.721 25.5361 28.8076 25.4228C28.8936 25.3104 29.0204 25.2364 29.1606 25.217C29.3008 25.1976 29.4429 25.2342 29.5562 25.319C29.6276 25.3731 31.3168 26.6849 31.4352 30.7866C31.4392 30.9298 31.3863 31.0687 31.288 31.1729C31.1897 31.2771 31.054 31.338 30.9108 31.3422L30.8946 31.3428Z" fill="#581958"/>
<path d="M30.8973 34.5343C30.4747 34.5344 30.0615 34.4091 29.71 34.1744C29.3586 33.9397 29.0846 33.606 28.9228 33.2156C28.761 32.8251 28.7186 32.3955 28.801 31.981C28.8834 31.5664 29.0869 31.1857 29.3857 30.8868C29.6845 30.5879 30.0652 30.3843 30.4797 30.3018C30.8942 30.2193 31.3239 30.2616 31.7143 30.4233C32.1048 30.5851 32.4386 30.8589 32.6734 31.2103C32.9082 31.5617 33.0335 31.9749 33.0335 32.3975C33.033 32.9639 32.8077 33.507 32.4072 33.9076C32.0068 34.3082 31.4637 34.5335 30.8973 34.5343ZM30.8973 31.3418C30.6885 31.3417 30.4843 31.4035 30.3107 31.5195C30.137 31.6354 30.0016 31.8002 29.9216 31.9931C29.8416 32.186 29.8206 32.3983 29.8613 32.6031C29.902 32.8079 30.0025 32.9961 30.1501 33.1438C30.2977 33.2915 30.4858 33.3921 30.6906 33.4329C30.8954 33.4736 31.1077 33.4528 31.3006 33.3729C31.4936 33.293 31.6585 33.1577 31.7745 32.9841C31.8905 32.8104 31.9524 32.6063 31.9524 32.3975C31.9522 32.1177 31.8409 31.8494 31.6431 31.6515C31.4453 31.4536 31.1771 31.3423 30.8973 31.3418Z" fill="#581958"/>
<path d="M8.69295 31.3424C8.556 31.3427 8.42402 31.291 8.32368 31.1978C8.22335 31.1046 8.16213 30.9768 8.15241 30.8402C7.85781 26.6915 10.1438 25.3656 10.2411 25.311C10.3659 25.2405 10.5137 25.2226 10.6518 25.261C10.7899 25.2995 10.9071 25.3913 10.9775 25.5161C11.048 25.641 11.066 25.7887 11.0275 25.9269C10.989 26.065 10.8973 26.1822 10.7724 26.2526C10.6902 26.3013 8.98863 27.3515 9.23025 30.764C9.24035 30.907 9.19324 31.0481 9.09927 31.1564C9.0053 31.2647 8.87217 31.3312 8.72917 31.3413L8.69295 31.3424Z" fill="#581958"/>
<path d="M7.59944 35.6706C7.5158 35.671 7.43321 35.6519 7.35817 35.615C7.28314 35.578 7.2177 35.5242 7.16701 35.4576C6.90315 35.1111 6.70878 34.7168 6.59458 34.2965C6.34365 33.4779 6.42597 32.5932 6.82366 31.8349C7.22134 31.0766 7.90223 30.5059 8.71836 30.2468C9.10547 30.138 9.51039 30.1073 9.90946 30.1567C10.3085 30.2061 10.6938 30.3345 11.0427 30.5344C11.6542 30.8877 12.1432 31.4191 12.4446 32.0578C12.746 32.6964 12.8452 33.4119 12.7292 34.1084C12.7057 34.2499 12.6269 34.3762 12.5103 34.4595C12.3937 34.5429 12.2487 34.5765 12.1073 34.553C11.9659 34.5295 11.8396 34.4508 11.7562 34.3342C11.6728 34.2175 11.6392 34.0726 11.6627 33.9311C11.742 33.4538 11.6746 32.9637 11.4694 32.5255C11.2643 32.0873 10.9309 31.7218 10.5135 31.4771C10.2884 31.3471 10.0397 31.2633 9.78189 31.2305C9.52407 31.1978 9.2623 31.2167 9.01188 31.2863C8.47024 31.4674 8.02187 31.8548 7.76403 32.3644C7.50619 32.874 7.45968 33.4647 7.63458 34.0084C7.7128 34.2962 7.84607 34.566 8.02701 34.803C8.08788 34.8831 8.12519 34.9787 8.13473 35.0788C8.14426 35.179 8.12566 35.2798 8.081 35.37C8.03634 35.4601 7.9674 35.536 7.88194 35.5892C7.79648 35.6423 7.6979 35.6705 7.59728 35.6706H7.59944Z" fill="#581958"/>
<path d="M12.2033 34.5612C12.1822 34.5612 12.1606 34.5612 12.1389 34.5579L11.5298 34.486C11.4592 34.4777 11.391 34.4555 11.3291 34.4207C11.2671 34.386 11.2126 34.3394 11.1687 34.2836C11.1248 34.2278 11.0922 34.164 11.073 34.0956C11.0537 34.0272 11.0481 33.9557 11.0565 33.8852C11.0649 33.8147 11.0871 33.7465 11.1218 33.6846C11.1565 33.6226 11.2031 33.5681 11.2589 33.5242C11.3716 33.4354 11.5149 33.3951 11.6573 33.412L12.2665 33.4844C12.4033 33.5007 12.5287 33.5686 12.6172 33.6742C12.7056 33.7799 12.7504 33.9153 12.7423 34.0528C12.7342 34.1904 12.6739 34.3196 12.5737 34.4142C12.4736 34.5088 12.341 34.561 12.2033 34.5612Z" fill="#581958"/>
<path d="M7.59945 35.6757C7.47253 35.6759 7.3496 35.6314 7.25219 35.55C7.15478 35.4686 7.08911 35.3556 7.06668 35.2307C7.04425 35.1058 7.06649 34.9769 7.1295 34.8668C7.19252 34.7566 7.29229 34.6721 7.41134 34.6281L8.05999 34.3887C8.12654 34.3638 8.19733 34.3523 8.26832 34.3548C8.33931 34.3573 8.40911 34.3738 8.47373 34.4033C8.53836 34.4328 8.59654 34.4747 8.64496 34.5267C8.69338 34.5787 8.73109 34.6397 8.75593 34.7062C8.78078 34.7728 8.79227 34.8436 8.78976 34.9146C8.78725 34.9855 8.77077 35.0553 8.74129 35.12C8.7118 35.1846 8.66987 35.2428 8.61789 35.2912C8.56592 35.3396 8.50491 35.3773 8.43837 35.4022L7.78972 35.6422C7.72882 35.6647 7.66437 35.676 7.59945 35.6757Z" fill="#581958"/>
</svg>
