<svg width="40" height="40" viewBox="0 0 40 40" fill="none" xmlns="http://www.w3.org/2000/svg">
<g clip-path="url(#clip0_2387_14569)">
<path d="M37.5 35.6249H36.875V34.9999C36.875 33.9743 36.0356 33.1405 35 33.1274V33.1249C35 32.3043 34.4669 31.613 33.7313 31.3593L33.1438 15.5036C33.86 15.2399 34.375 14.5568 34.375 13.7499H37.8513C38.5394 13.7499 39.1113 13.283 39.3081 12.5605C39.5206 11.7793 39.2169 10.968 38.5694 10.5868L23.0931 1.49613C21.115 0.337384 18.8013 0.338634 16.9019 1.49926L1.43063 10.588C0.783125 10.9686 0.48 11.7799 0.6925 12.5605C0.88875 13.283 1.46 13.7499 2.14813 13.7499H5.625C5.625 14.5568 6.14 15.2399 6.85563 15.5036L6.26813 31.3593C5.53313 31.613 5 32.3043 5 33.1249V33.1274C3.96438 33.1405 3.125 33.9743 3.125 34.9999V35.6249H2.5C1.46625 35.6249 0.625 36.4661 0.625 37.4999C0.625 38.5336 1.46625 39.3749 2.5 39.3749H37.5C38.5338 39.3749 39.375 38.5336 39.375 37.4999C39.375 36.4661 38.5338 35.6249 37.5 35.6249ZM27.5 33.1249C27.5 32.7805 27.7806 32.4999 28.125 32.4999H33.125C33.4694 32.4999 33.75 32.7805 33.75 33.1249H27.5ZM12.4813 31.3593L11.8938 15.5036C12.61 15.2399 13.125 14.5568 13.125 13.7499H16.25C16.25 14.5568 16.765 15.2399 17.4806 15.5036L16.8931 31.3593C16.1581 31.613 15.625 32.3043 15.625 33.1249H13.75C13.75 32.3043 13.2169 31.613 12.4813 31.3593ZM10.6475 15.6249L11.2263 31.2499H7.52375L8.1025 15.6249H10.6475ZM18.7275 15.6249H21.2725L21.8513 31.2499H18.1488L18.7275 15.6249ZM21.875 14.3749H18.125C17.7806 14.3749 17.5 14.0943 17.5 13.7499H22.5C22.5 14.0943 22.2194 14.3749 21.875 14.3749ZM17.5 32.4999H22.5C22.8444 32.4999 23.125 32.7805 23.125 33.1249H16.875C16.875 32.7805 17.1556 32.4999 17.5 32.4999ZM23.1063 31.3593L22.5188 15.5036C23.235 15.2399 23.75 14.5568 23.75 13.7499H26.875C26.875 14.5568 27.39 15.2399 28.1056 15.5036L27.5181 31.3593C26.7831 31.613 26.25 32.3043 26.25 33.1249H24.375C24.375 32.3043 23.8419 31.613 23.1063 31.3593ZM31.8975 15.6249L32.4763 31.2499H28.7738L29.3525 15.6249H31.8975ZM32.5 14.3749H28.75C28.4056 14.3749 28.125 14.0943 28.125 13.7499H33.125C33.125 14.0943 32.8444 14.3749 32.5 14.3749ZM2.14813 12.4999C1.98875 12.4999 1.92063 12.313 1.89875 12.2324C1.84625 12.0374 1.875 11.7768 2.06438 11.6661L17.5394 2.57426C17.5425 2.57238 17.5463 2.57051 17.5494 2.56863C18.3088 2.10301 19.135 1.87051 19.9713 1.87051C20.8106 1.87051 21.66 2.10488 22.4606 2.57426L37.9356 11.6643C38.1256 11.7761 38.155 12.0368 38.1019 12.2318C38.08 12.3124 38.0113 12.4999 37.8513 12.4999H2.14813ZM11.875 13.7499C11.875 14.0943 11.5944 14.3749 11.25 14.3749H7.5C7.15563 14.3749 6.875 14.0943 6.875 13.7499H11.875ZM6.875 32.4999H11.875C12.2194 32.4999 12.5 32.7805 12.5 33.1249H6.25C6.25 32.7805 6.53063 32.4999 6.875 32.4999ZM4.375 34.9999C4.375 34.6555 4.66625 34.3749 5.02437 34.3749H34.9756C35.3338 34.3749 35.625 34.6555 35.625 34.9999V35.6249H4.375V34.9999ZM37.5 38.1249H2.5C2.15563 38.1249 1.875 37.8443 1.875 37.4999C1.875 37.1555 2.15563 36.8749 2.5 36.8749H37.5C37.8444 36.8749 38.125 37.1555 38.125 37.4999C38.125 37.8443 37.8444 38.1249 37.5 38.1249Z" fill="#581958"/>
<path d="M20 4.375C18.2769 4.375 16.875 5.77688 16.875 7.5C16.875 9.22312 18.2769 10.625 20 10.625C21.7231 10.625 23.125 9.22312 23.125 7.5C23.125 5.77688 21.7231 4.375 20 4.375ZM20 9.375C18.9662 9.375 18.125 8.53375 18.125 7.5C18.125 6.46625 18.9662 5.625 20 5.625C21.0338 5.625 21.875 6.46625 21.875 7.5C21.875 8.53375 21.0338 9.375 20 9.375Z" fill="#581958"/>
</g>
<defs>
<clipPath id="clip0_2387_14569">
<rect width="40" height="40" fill="white"/>
</clipPath>
</defs>
</svg>
