<svg width="40" height="40" viewBox="0 0 40 40" fill="none" xmlns="http://www.w3.org/2000/svg">
<g clip-path="url(#clip0_2387_14562)">
<path d="M38.75 0.625H32.5C32.3342 0.625 32.1753 0.690848 32.0581 0.808058C31.9408 0.925268 31.875 1.08424 31.875 1.25V3.75H23.6938C23.5469 2.87657 23.0952 2.08345 22.419 1.51145C21.7427 0.939457 20.8857 0.625598 20 0.625598C19.1143 0.625598 18.2573 0.939457 17.581 1.51145C16.9048 2.08345 16.4531 2.87657 16.3062 3.75H8.125V1.25C8.125 1.08424 8.05915 0.925268 7.94194 0.808058C7.82473 0.690848 7.66576 0.625 7.5 0.625H1.25C1.08424 0.625 0.925268 0.690848 0.808058 0.808058C0.690848 0.925268 0.625 1.08424 0.625 1.25V7.5C0.625 7.66576 0.690848 7.82473 0.808058 7.94194C0.925268 8.05915 1.08424 8.125 1.25 8.125H7.5C7.66576 8.125 7.82473 8.05915 7.94194 7.94194C8.05915 7.82473 8.125 7.66576 8.125 7.5V5H14.135C11.6855 6.08565 9.59082 7.83846 8.09029 10.0581C6.58975 12.2778 5.7439 14.8749 5.64937 17.5525C4.72133 17.7036 3.88393 18.1979 3.30313 18.9374C2.72232 19.6768 2.4405 20.6075 2.51351 21.5449C2.58652 22.4823 3.00903 23.3581 3.69732 23.9988C4.38561 24.6394 5.28943 24.998 6.22969 25.0037C7.16995 25.0093 8.07801 24.6615 8.77394 24.0292C9.46986 23.3969 9.90285 22.5262 9.98711 21.5898C10.0714 20.6533 9.80072 19.7193 9.22884 18.9729C8.65695 18.2266 7.82554 17.7223 6.89937 17.56C7.00607 14.8009 7.98597 12.1468 9.69788 9.98034C11.4098 7.81386 13.7653 6.24681 16.425 5.505C16.6655 6.26452 17.1417 6.92769 17.7845 7.39838C18.4273 7.86907 19.2033 8.1228 20 8.1228C20.7967 8.1228 21.5727 7.86907 22.2155 7.39838C22.8583 6.92769 23.3345 6.26452 23.575 5.505C26.2352 6.24683 28.5911 7.81421 30.3032 9.9812C32.0153 12.1482 32.995 14.8028 33.1012 17.5625C32.1751 17.7248 31.3437 18.2291 30.7718 18.9754C30.1999 19.7218 29.9293 20.6558 30.0135 21.5923C30.0978 22.5287 30.5308 23.3994 31.2267 24.0317C31.9226 24.664 32.8307 25.0118 33.7709 25.0062C34.7112 25.0005 35.615 24.6419 36.3033 24.0013C36.9916 23.3606 37.4141 22.4848 37.4871 21.5474C37.5601 20.61 37.2783 19.6793 36.6975 18.9399C36.1167 18.2004 35.2793 17.7062 34.3512 17.555C34.2571 14.8769 33.4114 12.2793 31.9107 10.0591C30.41 7.8389 28.315 6.08574 25.865 5H31.875V7.5C31.875 7.66576 31.9408 7.82473 32.0581 7.94194C32.1753 8.05915 32.3342 8.125 32.5 8.125H38.75C38.9158 8.125 39.0747 8.05915 39.1919 7.94194C39.3092 7.82473 39.375 7.66576 39.375 7.5V1.25C39.375 1.08424 39.3092 0.925268 39.1919 0.808058C39.0747 0.690848 38.9158 0.625 38.75 0.625ZM6.875 6.875H1.875V1.875H6.875V6.875ZM8.75 21.25C8.75 21.7445 8.60338 22.2278 8.32867 22.6389C8.05397 23.05 7.66352 23.3705 7.20671 23.5597C6.74989 23.7489 6.24723 23.7984 5.76227 23.702C5.27732 23.6055 4.83186 23.3674 4.48223 23.0178C4.1326 22.6681 3.8945 22.2227 3.79804 21.7377C3.70157 21.2528 3.75108 20.7501 3.9403 20.2933C4.12952 19.8365 4.44995 19.446 4.86107 19.1713C5.2722 18.8966 5.75555 18.75 6.25 18.75C6.91304 18.75 7.54893 19.0134 8.01777 19.4822C8.48661 19.9511 8.75 20.587 8.75 21.25ZM20 6.875C19.5055 6.875 19.0222 6.72838 18.6111 6.45367C18.2 6.17897 17.8795 5.78852 17.6903 5.33171C17.5011 4.87489 17.4516 4.37223 17.548 3.88727C17.6445 3.40232 17.8826 2.95686 18.2322 2.60723C18.5819 2.2576 19.0273 2.0195 19.5123 1.92304C19.9972 1.82657 20.4999 1.87608 20.9567 2.0653C21.4135 2.25452 21.804 2.57495 22.0787 2.98607C22.3534 3.3972 22.5 3.88055 22.5 4.375C22.5 5.03804 22.2366 5.67393 21.7678 6.14277C21.2989 6.61161 20.663 6.875 20 6.875ZM36.25 21.25C36.25 21.7445 36.1034 22.2278 35.8287 22.6389C35.554 23.05 35.1635 23.3705 34.7067 23.5597C34.2499 23.7489 33.7472 23.7984 33.2623 23.702C32.7773 23.6055 32.3319 23.3674 31.9822 23.0178C31.6326 22.6681 31.3945 22.2227 31.298 21.7377C31.2016 21.2528 31.2511 20.7501 31.4403 20.2933C31.6295 19.8365 31.95 19.446 32.3611 19.1713C32.7722 18.8966 33.2555 18.75 33.75 18.75C34.413 18.75 35.0489 19.0134 35.5178 19.4822C35.9866 19.9511 36.25 20.587 36.25 21.25ZM38.125 6.875H33.125V1.875H38.125V6.875Z" fill="#581958"/>
<path d="M25 34.1035H25.625C25.7908 34.1035 25.9497 34.0376 26.0669 33.9204C26.1842 33.8032 26.25 33.6442 26.25 33.4785V30.9785C26.25 30.8127 26.1842 30.6537 26.0669 30.5365C25.9497 30.4193 25.7908 30.3535 25.625 30.3535H24.25C23.9805 29.1629 23.9883 27.9263 24.273 26.7393C24.5577 25.5523 25.1116 24.4466 25.8919 23.5078L26.1037 23.2535C26.1816 23.1602 26.2305 23.0463 26.2446 22.9256C26.2587 22.8049 26.2374 22.6828 26.1831 22.5741L20.5581 11.3241C20.5004 11.2272 20.4185 11.147 20.3204 11.0913C20.2224 11.0356 20.1115 11.0063 19.9987 11.0063C19.886 11.0063 19.7751 11.0356 19.6771 11.0913C19.579 11.147 19.4971 11.2272 19.4394 11.3241L13.8144 22.5741C13.7602 22.6828 13.7388 22.8049 13.7529 22.9256C13.767 23.0463 13.8159 23.1602 13.8937 23.2535L14.1056 23.5078C14.8863 24.4464 15.4407 25.5519 15.7258 26.739C16.0109 27.926 16.0192 29.1627 15.75 30.3535H14.375C14.2092 30.3535 14.0503 30.4193 13.9331 30.5365C13.8158 30.6537 13.75 30.8127 13.75 30.9785V33.4785C13.75 33.6442 13.8158 33.8032 13.9331 33.9204C14.0503 34.0376 14.2092 34.1035 14.375 34.1035H15V37.8535H8.125V39.1035H31.875V37.8535H25V34.1035ZM20 20.9785C20.2472 20.9785 20.4889 21.0518 20.6945 21.1891C20.9 21.3265 21.0602 21.5217 21.1549 21.7501C21.2495 21.9785 21.2742 22.2299 21.226 22.4723C21.1778 22.7148 21.0587 22.9375 20.8839 23.1124C20.7091 23.2872 20.4863 23.4062 20.2439 23.4544C20.0014 23.5027 19.7501 23.4779 19.5216 23.3833C19.2932 23.2887 19.098 23.1285 18.9607 22.9229C18.8233 22.7174 18.75 22.4757 18.75 22.2285C18.75 21.8969 18.8817 21.579 19.1161 21.3446C19.3505 21.1102 19.6685 20.9785 20 20.9785ZM15.1169 22.7678L19.375 14.251V19.8172C18.7858 19.9693 18.2724 20.3311 17.9309 20.8347C17.5894 21.3383 17.4433 21.9492 17.5199 22.5528C17.5966 23.1565 17.8908 23.7114 18.3474 24.1137C18.8039 24.5159 19.3915 24.7378 20 24.7378C20.6085 24.7378 21.1961 24.5159 21.6526 24.1137C22.1092 23.7114 22.4034 23.1565 22.4801 22.5528C22.5567 21.9492 22.4106 21.3383 22.0691 20.8347C21.7276 20.3311 21.2142 19.9693 20.625 19.8172V14.251L24.8831 22.7678C24.0275 23.8145 23.4127 25.0368 23.0826 26.3478C22.7525 27.6588 22.7152 29.0264 22.9731 30.3535H17.0269C17.2848 29.0264 17.2475 27.6588 16.9174 26.3478C16.5873 25.0368 15.9725 23.8145 15.1169 22.7678ZM15 31.6035H25V32.8535H15V31.6035ZM16.25 34.1035H23.75V37.8535H16.25V34.1035Z" fill="#581958"/>
</g>
<defs>
<clipPath id="clip0_2387_14562">
<rect width="40" height="40" fill="white"/>
</clipPath>
</defs>
</svg>
