<svg width="40" height="40" viewBox="0 0 40 40" fill="none" xmlns="http://www.w3.org/2000/svg">
<path d="M8.40625 36.7969L5.82812 7.85938H34.1719L31.5938 36.7812L19.9766 40" fill="#FF4C1E"/>
<path d="M20 37.5391V10.2344H31.5859L29.375 34.9219L20 37.5391Z" fill="#FF651E"/>
<path d="M11.0938 13.7734H20L21.3243 15.5469L20 17.3203H14.9844L15.3125 20.9531H20L21.3243 22.7929L20 24.4922H12.0625L11.0938 13.7734ZM12.2187 26.2734H15.7812L16.0312 29.1094L20 30.1719L21.4943 31.9422L20 33.875L12.7188 31.8438L12.2187 26.2734Z" fill="#EBEBEB"/>
<path d="M28.875 13.7734H19.9844V17.3203H28.5469L28.875 13.7734ZM28.2266 20.9531H19.9844V24.5H24.3594L23.9453 29.1094L19.9844 30.1719V33.8594L27.25 31.8438L28.2266 20.9531Z" fill="white"/>
</svg>
