<svg width="424" height="424" viewBox="0 0 424 424" fill="none" xmlns="http://www.w3.org/2000/svg">
<path d="M104.593 132.225H104.132C103.997 132.23 103.862 132.204 103.738 132.149C103.614 132.094 103.504 132.011 103.417 131.908C100.795 128.784 97.5025 126.29 93.7847 124.613C90.067 122.935 86.0191 122.116 81.9416 122.217C77.864 122.318 73.8616 123.336 70.2312 125.195C66.6009 127.054 63.4359 129.707 60.9712 132.957C60.8742 133.085 60.7445 133.185 60.5956 133.247C60.4467 133.308 60.2841 133.327 60.1249 133.304C57.4301 132.99 54.6995 133.359 52.1851 134.378C49.6707 135.397 47.4535 137.033 45.7379 139.135C45.6451 139.253 45.5236 139.345 45.3851 139.403C45.2467 139.461 45.0957 139.482 44.9466 139.465C44.5368 139.412 44.1241 139.386 43.711 139.385C41.892 139.385 40.1076 139.882 38.55 140.822C36.9924 141.761 35.7205 143.108 34.8715 144.716C34.6165 145.211 34.1889 145.595 33.6697 145.795L28.7739 147.678C28.5778 147.751 28.4135 147.89 28.3099 148.071C28.2063 148.253 28.17 148.465 28.2074 148.671C28.2448 148.877 28.3535 149.062 28.5144 149.196C28.6752 149.329 28.878 149.402 29.087 149.401H120.838C120.959 149.401 121.078 149.376 121.189 149.329C121.3 149.281 121.4 149.212 121.483 149.124C121.567 149.037 121.631 148.933 121.673 148.82C121.715 148.707 121.733 148.586 121.727 148.465C121.492 144.08 119.584 139.952 116.397 136.931C113.209 133.909 108.985 132.225 104.593 132.225V132.225Z" fill="#CCF2EA"/>
<path d="M60.9711 132.961C60.8741 133.09 60.7444 133.19 60.5955 133.251C60.4466 133.312 60.284 133.332 60.1248 133.308C57.43 132.994 54.6995 133.363 52.1851 134.383C49.6707 135.402 47.4534 137.038 45.7378 139.139C45.645 139.257 45.5236 139.349 45.3851 139.407C45.2466 139.465 45.0956 139.486 44.9465 139.469C44.5367 139.417 44.1241 139.39 43.7109 139.389" stroke="#152272" stroke-width="1.94386" stroke-miterlimit="10"/>
<path d="M104.594 132.225H104.132C103.997 132.23 103.862 132.204 103.738 132.149C103.614 132.094 103.505 132.011 103.417 131.908C100.87 128.868 97.6863 126.423 94.0913 124.748C90.4963 123.072 86.5774 122.205 82.6111 122.209" stroke="#152272" stroke-width="1.94386" stroke-miterlimit="10"/>
<path d="M28.774 147.678C28.5779 147.751 28.4137 147.89 28.31 148.071C28.2064 148.253 28.1701 148.465 28.2075 148.671C28.2449 148.877 28.3536 149.062 28.5145 149.196C28.6754 149.329 28.8781 149.402 29.0872 149.401H120.838C120.959 149.401 121.078 149.376 121.189 149.329C121.3 149.281 121.4 149.212 121.484 149.124C121.567 149.037 121.631 148.933 121.673 148.82C121.715 148.707 121.733 148.586 121.727 148.465" stroke="#152272" stroke-width="1.94386" stroke-miterlimit="10"/>
<path d="M237.106 51.624H237.572C237.707 51.628 237.842 51.6011 237.966 51.5454C238.09 51.4897 238.2 51.4066 238.287 51.3024C240.909 48.1783 244.201 45.6849 247.919 44.0073C251.637 42.3297 255.685 41.5109 259.762 41.6117C263.84 41.7125 267.842 42.7303 271.473 44.5896C275.103 46.4489 278.268 49.1019 280.733 52.3518C280.827 52.4761 280.953 52.5736 281.097 52.6344C281.241 52.6953 281.398 52.7175 281.554 52.6988C282.176 52.6293 282.802 52.594 283.428 52.593C285.825 52.5893 288.193 53.119 290.36 54.1436C292.527 55.1682 294.439 56.6621 295.957 58.517C296.05 58.6349 296.172 58.7271 296.31 58.7849C296.449 58.8427 296.6 58.8641 296.749 58.8471C297.159 58.7959 297.571 58.7705 297.984 58.7709C299.806 58.7712 301.593 59.2692 303.153 60.211C304.712 61.1529 305.984 62.5029 306.832 64.1153C307.087 64.6076 307.513 64.9898 308.03 65.1901L312.934 67.0392C313.131 67.1117 313.295 67.2513 313.399 67.4332C313.502 67.6152 313.538 67.828 313.5 68.0339C313.462 68.2398 313.353 68.4258 313.191 68.5589C313.03 68.692 312.826 68.7637 312.617 68.7614H220.883C220.762 68.7616 220.643 68.7371 220.532 68.6896C220.421 68.6421 220.321 68.5724 220.237 68.4849C220.154 68.3974 220.09 68.2939 220.048 68.1806C220.006 68.0674 219.988 67.9468 219.994 67.8263C220.237 63.4509 222.146 59.3346 225.328 56.3217C228.51 53.3089 232.724 51.628 237.106 51.624V51.624Z" fill="white"/>
<path d="M280.733 52.3433C280.827 52.4677 280.953 52.5651 281.097 52.626C281.241 52.6868 281.398 52.709 281.554 52.6903C282.176 52.6208 282.802 52.5855 283.428 52.5845C285.825 52.5809 288.193 53.1105 290.36 54.1352C292.527 55.1598 294.439 56.6537 295.958 58.5086C296.05 58.6265 296.172 58.7187 296.31 58.7765C296.449 58.8342 296.6 58.8556 296.749 58.8386C297.159 58.7874 297.571 58.762 297.984 58.7624" stroke="#152272" stroke-width="1.94386" stroke-miterlimit="10"/>
<path d="M237.106 51.624H237.572C237.707 51.628 237.842 51.6011 237.966 51.5454C238.09 51.4897 238.2 51.4066 238.287 51.3024C240.833 48.2607 244.017 45.8149 247.612 44.1377C251.207 42.4604 255.126 41.5926 259.093 41.5954" stroke="#152272" stroke-width="1.94386" stroke-miterlimit="10"/>
<path d="M312.934 67.0434C313.131 67.1159 313.295 67.2555 313.399 67.4375C313.502 67.6195 313.538 67.8322 313.5 68.0381C313.462 68.2441 313.353 68.43 313.191 68.5631C313.03 68.6962 312.826 68.7679 312.617 68.7656H220.883C220.762 68.7658 220.643 68.7414 220.532 68.6938C220.421 68.6463 220.321 68.5767 220.237 68.4891C220.154 68.4016 220.09 68.2981 220.048 68.1849C220.006 68.0716 219.988 67.951 219.994 67.8305" stroke="#152272" stroke-width="1.94386" stroke-miterlimit="10"/>
<path d="M378.678 341.806L366.75 329.877V271.237H324.296V295.886H303.506L274.271 325.121V370.025H257.895V361.042H232.011V374.248H206.356V338.628L162.81 295.086H43.4275V263.621H32.3326V243.657H9.54187V244.414C9.54187 315.13 79.395 372.458 165.56 372.458C167.899 372.458 170.225 372.417 172.538 372.336C179.016 372.108 185.454 373.44 191.309 376.22C262.918 410.085 342.77 394.25 378.678 341.806V341.806Z" fill="#CCF2EA"/>
<path d="M32.3326 243.657H9.54187V244.414" stroke="#152272" stroke-width="1.94386" stroke-linecap="round" stroke-linejoin="round"/>
<path d="M43.4275 263.621H32.3326" stroke="#152272" stroke-width="1.94386" stroke-linecap="round" stroke-linejoin="round"/>
<path d="M232.012 374.248H206.356V338.628L162.81 295.086H43.4276" stroke="#152272" stroke-width="1.94386" stroke-linecap="round" stroke-linejoin="round"/>
<path d="M257.895 370.025V361.042H232.012" stroke="#152272" stroke-width="1.94386" stroke-linecap="round" stroke-linejoin="round"/>
<path d="M303.506 295.886L274.271 325.121V370.025" stroke="#152272" stroke-width="1.94386" stroke-linecap="round" stroke-linejoin="round"/>
<path d="M324.296 271.237V295.886" stroke="#152272" stroke-width="1.94386" stroke-linecap="round" stroke-linejoin="round"/>
<path d="M378.679 341.806L366.75 329.877V271.237" stroke="#152272" stroke-width="1.94386" stroke-linecap="round" stroke-linejoin="round"/>
<path d="M165.556 372.458C167.895 372.458 170.221 372.417 172.534 372.336C179.012 372.108 185.449 373.44 191.305 376.22" stroke="#152272" stroke-width="1.94386" stroke-linecap="round" stroke-linejoin="round"/>
<path d="M244.968 252.839C235.46 254.599 214.857 270.611 214.857 270.611L211.345 276.328L222.96 289.805C251.658 288.218 238.418 262.889 238.418 262.889C238.418 262.889 254.476 251.079 244.968 252.839Z" fill="#409DE2"/>
<path d="M352.003 174.197H233.399C229.716 174.197 226.731 177.183 226.731 180.866V251.163C226.731 254.846 229.716 257.832 233.399 257.832H352.003C355.686 257.832 358.672 254.846 358.672 251.163V180.866C358.672 177.183 355.686 174.197 352.003 174.197Z" fill="#CCF2EA"/>
<path d="M226.731 191.766H358.672V211.574H226.731V191.766Z" fill="white"/>
<path d="M285.417 190.865C287.181 190.865 288.612 189.434 288.612 187.67C288.612 185.906 287.181 184.475 285.417 184.475C283.653 184.475 282.222 185.906 282.222 187.67C282.222 189.434 283.653 190.865 285.417 190.865Z" fill="#3DE8CF"/>
<path d="M297.438 190.865C299.203 190.865 300.633 189.434 300.633 187.67C300.633 185.906 299.203 184.475 297.438 184.475C295.674 184.475 294.244 185.906 294.244 187.67C294.244 189.434 295.674 190.865 297.438 190.865Z" fill="#3DE8CF"/>
<path d="M309.46 190.865C311.225 190.865 312.655 189.434 312.655 187.67C312.655 185.906 311.225 184.475 309.46 184.475C307.696 184.475 306.265 185.906 306.265 187.67C306.265 189.434 307.696 190.865 309.46 190.865Z" fill="#3DE8CF"/>
<path d="M321.482 190.865C323.246 190.865 324.676 189.434 324.676 187.67C324.676 185.906 323.246 184.475 321.482 184.475C319.717 184.475 318.287 185.906 318.287 187.67C318.287 189.434 319.717 190.865 321.482 190.865Z" fill="#3DE8CF"/>
<path d="M333.503 190.865C335.268 190.865 336.698 189.434 336.698 187.67C336.698 185.906 335.268 184.475 333.503 184.475C331.739 184.475 330.309 185.906 330.309 187.67C330.309 189.434 331.739 190.865 333.503 190.865Z" fill="#3DE8CF"/>
<path d="M345.525 190.865C347.289 190.865 348.72 189.434 348.72 187.67C348.72 185.906 347.289 184.475 345.525 184.475C343.761 184.475 342.33 185.906 342.33 187.67C342.33 189.434 343.761 190.865 345.525 190.865Z" fill="#3DE8CF"/>
<path d="M357.547 190.865C359.311 190.865 360.741 189.434 360.741 187.67C360.741 185.906 359.311 184.475 357.547 184.475C355.782 184.475 354.352 185.906 354.352 187.67C354.352 189.434 355.782 190.865 357.547 190.865Z" fill="#3DE8CF"/>
<path d="M369.568 190.865C371.333 190.865 372.763 189.434 372.763 187.67C372.763 185.906 371.333 184.475 369.568 184.475C367.804 184.475 366.373 185.906 366.373 187.67C366.373 189.434 367.804 190.865 369.568 190.865Z" fill="#3DE8CF"/>
<path d="M291.426 201.266C293.19 201.266 294.62 199.835 294.62 198.071C294.62 196.307 293.19 194.876 291.426 194.876C289.661 194.876 288.231 196.307 288.231 198.071C288.231 199.835 289.661 201.266 291.426 201.266Z" fill="#3DE8CF"/>
<path d="M303.447 201.266C305.212 201.266 306.642 199.835 306.642 198.071C306.642 196.307 305.212 194.876 303.447 194.876C301.683 194.876 300.253 196.307 300.253 198.071C300.253 199.835 301.683 201.266 303.447 201.266Z" fill="#3DE8CF"/>
<path d="M315.469 201.266C317.233 201.266 318.664 199.835 318.664 198.071C318.664 196.307 317.233 194.876 315.469 194.876C313.705 194.876 312.274 196.307 312.274 198.071C312.274 199.835 313.705 201.266 315.469 201.266Z" fill="#3DE8CF"/>
<path d="M327.49 201.266C329.255 201.266 330.685 199.835 330.685 198.071C330.685 196.307 329.255 194.876 327.49 194.876C325.726 194.876 324.296 196.307 324.296 198.071C324.296 199.835 325.726 201.266 327.49 201.266Z" fill="#3DE8CF"/>
<path d="M339.512 201.266C341.276 201.266 342.707 199.835 342.707 198.071C342.707 196.307 341.276 194.876 339.512 194.876C337.748 194.876 336.317 196.307 336.317 198.071C336.317 199.835 337.748 201.266 339.512 201.266Z" fill="#3DE8CF"/>
<path d="M351.534 201.266C353.298 201.266 354.728 199.835 354.728 198.071C354.728 196.307 353.298 194.876 351.534 194.876C349.769 194.876 348.339 196.307 348.339 198.071C348.339 199.835 349.769 201.266 351.534 201.266Z" fill="#3DE8CF"/>
<path d="M363.555 201.266C365.32 201.266 366.75 199.835 366.75 198.071C366.75 196.307 365.32 194.876 363.555 194.876C361.791 194.876 360.361 196.307 360.361 198.071C360.361 199.835 361.791 201.266 363.555 201.266Z" fill="#3DE8CF"/>
<path d="M285.417 211.662C287.181 211.662 288.612 210.232 288.612 208.468C288.612 206.703 287.181 205.273 285.417 205.273C283.653 205.273 282.222 206.703 282.222 208.468C282.222 210.232 283.653 211.662 285.417 211.662Z" fill="#3DE8CF"/>
<path d="M297.439 211.662C299.203 211.662 300.633 210.232 300.633 208.468C300.633 206.703 299.203 205.273 297.439 205.273C295.674 205.273 294.244 206.703 294.244 208.468C294.244 210.232 295.674 211.662 297.439 211.662Z" fill="#3DE8CF"/>
<path d="M309.46 211.662C311.225 211.662 312.655 210.232 312.655 208.468C312.655 206.703 311.225 205.273 309.46 205.273C307.696 205.273 306.265 206.703 306.265 208.468C306.265 210.232 307.696 211.662 309.46 211.662Z" fill="#3DE8CF"/>
<path d="M321.482 211.662C323.246 211.662 324.676 210.232 324.676 208.468C324.676 206.703 323.246 205.273 321.482 205.273C319.717 205.273 318.287 206.703 318.287 208.468C318.287 210.232 319.717 211.662 321.482 211.662Z" fill="#3DE8CF"/>
<path d="M333.503 211.662C335.268 211.662 336.698 210.232 336.698 208.468C336.698 206.703 335.268 205.273 333.503 205.273C331.739 205.273 330.309 206.703 330.309 208.468C330.309 210.232 331.739 211.662 333.503 211.662Z" fill="#3DE8CF"/>
<path d="M345.525 211.662C347.289 211.662 348.72 210.232 348.72 208.468C348.72 206.703 347.289 205.273 345.525 205.273C343.761 205.273 342.33 206.703 342.33 208.468C342.33 210.232 343.761 211.662 345.525 211.662Z" fill="#3DE8CF"/>
<path d="M357.547 211.662C359.311 211.662 360.741 210.232 360.741 208.468C360.741 206.703 359.311 205.273 357.547 205.273C355.782 205.273 354.352 206.703 354.352 208.468C354.352 210.232 355.782 211.662 357.547 211.662Z" fill="#3DE8CF"/>
<path d="M369.568 211.662C371.333 211.662 372.763 210.232 372.763 208.468C372.763 206.703 371.333 205.273 369.568 205.273C367.804 205.273 366.373 206.703 366.373 208.468C366.373 210.232 367.804 211.662 369.568 211.662Z" fill="#3DE8CF"/>
<path d="M291.426 222.063C293.19 222.063 294.62 220.633 294.62 218.869C294.62 217.104 293.19 215.674 291.426 215.674C289.661 215.674 288.231 217.104 288.231 218.869C288.231 220.633 289.661 222.063 291.426 222.063Z" fill="#3DE8CF"/>
<path d="M303.447 222.063C305.212 222.063 306.642 220.633 306.642 218.869C306.642 217.104 305.212 215.674 303.447 215.674C301.683 215.674 300.253 217.104 300.253 218.869C300.253 220.633 301.683 222.063 303.447 222.063Z" fill="#3DE8CF"/>
<path d="M315.469 222.063C317.233 222.063 318.664 220.633 318.664 218.869C318.664 217.104 317.233 215.674 315.469 215.674C313.705 215.674 312.274 217.104 312.274 218.869C312.274 220.633 313.705 222.063 315.469 222.063Z" fill="#3DE8CF"/>
<path d="M327.49 222.063C329.255 222.063 330.685 220.633 330.685 218.869C330.685 217.104 329.255 215.674 327.49 215.674C325.726 215.674 324.296 217.104 324.296 218.869C324.296 220.633 325.726 222.063 327.49 222.063Z" fill="#3DE8CF"/>
<path d="M339.512 222.063C341.276 222.063 342.707 220.633 342.707 218.869C342.707 217.104 341.276 215.674 339.512 215.674C337.748 215.674 336.317 217.104 336.317 218.869C336.317 220.633 337.748 222.063 339.512 222.063Z" fill="#3DE8CF"/>
<path d="M351.534 222.063C353.298 222.063 354.728 220.633 354.728 218.869C354.728 217.104 353.298 215.674 351.534 215.674C349.769 215.674 348.339 217.104 348.339 218.869C348.339 220.633 349.769 222.063 351.534 222.063Z" fill="#3DE8CF"/>
<path d="M363.555 222.063C365.32 222.063 366.75 220.633 366.75 218.869C366.75 217.104 365.32 215.674 363.555 215.674C361.791 215.674 360.361 217.104 360.361 218.869C360.361 220.633 361.791 222.063 363.555 222.063Z" fill="#3DE8CF"/>
<path d="M285.417 232.464C287.181 232.464 288.612 231.034 288.612 229.27C288.612 227.505 287.181 226.075 285.417 226.075C283.653 226.075 282.222 227.505 282.222 229.27C282.222 231.034 283.653 232.464 285.417 232.464Z" fill="#3DE8CF"/>
<path d="M297.439 232.464C299.203 232.464 300.633 231.034 300.633 229.27C300.633 227.505 299.203 226.075 297.439 226.075C295.674 226.075 294.244 227.505 294.244 229.27C294.244 231.034 295.674 232.464 297.439 232.464Z" fill="#3DE8CF"/>
<path d="M309.46 232.464C311.225 232.464 312.655 231.034 312.655 229.27C312.655 227.505 311.225 226.075 309.46 226.075C307.696 226.075 306.265 227.505 306.265 229.27C306.265 231.034 307.696 232.464 309.46 232.464Z" fill="#3DE8CF"/>
<path d="M321.482 232.464C323.246 232.464 324.676 231.034 324.676 229.27C324.676 227.505 323.246 226.075 321.482 226.075C319.717 226.075 318.287 227.505 318.287 229.27C318.287 231.034 319.717 232.464 321.482 232.464Z" fill="#3DE8CF"/>
<path d="M333.503 232.464C335.268 232.464 336.698 231.034 336.698 229.27C336.698 227.505 335.268 226.075 333.503 226.075C331.739 226.075 330.309 227.505 330.309 229.27C330.309 231.034 331.739 232.464 333.503 232.464Z" fill="#3DE8CF"/>
<path d="M345.525 232.464C347.289 232.464 348.72 231.034 348.72 229.27C348.72 227.505 347.289 226.075 345.525 226.075C343.761 226.075 342.33 227.505 342.33 229.27C342.33 231.034 343.761 232.464 345.525 232.464Z" fill="#3DE8CF"/>
<path d="M357.547 232.464C359.311 232.464 360.741 231.034 360.741 229.27C360.741 227.505 359.311 226.075 357.547 226.075C355.782 226.075 354.352 227.505 354.352 229.27C354.352 231.034 355.782 232.464 357.547 232.464Z" fill="#3DE8CF"/>
<path d="M369.568 232.464C371.333 232.464 372.763 231.034 372.763 229.27C372.763 227.505 371.333 226.075 369.568 226.075C367.804 226.075 366.373 227.505 366.373 229.27C366.373 231.034 367.804 232.464 369.568 232.464Z" fill="#3DE8CF"/>
<path d="M291.426 242.861C293.19 242.861 294.62 241.431 294.62 239.666C294.62 237.902 293.19 236.472 291.426 236.472C289.661 236.472 288.231 237.902 288.231 239.666C288.231 241.431 289.661 242.861 291.426 242.861Z" fill="#3DE8CF"/>
<path d="M303.447 242.861C305.212 242.861 306.642 241.431 306.642 239.666C306.642 237.902 305.212 236.472 303.447 236.472C301.683 236.472 300.253 237.902 300.253 239.666C300.253 241.431 301.683 242.861 303.447 242.861Z" fill="#3DE8CF"/>
<path d="M315.469 242.861C317.233 242.861 318.664 241.431 318.664 239.666C318.664 237.902 317.233 236.472 315.469 236.472C313.705 236.472 312.274 237.902 312.274 239.666C312.274 241.431 313.705 242.861 315.469 242.861Z" fill="#3DE8CF"/>
<path d="M327.49 242.861C329.255 242.861 330.685 241.431 330.685 239.666C330.685 237.902 329.255 236.472 327.49 236.472C325.726 236.472 324.296 237.902 324.296 239.666C324.296 241.431 325.726 242.861 327.49 242.861Z" fill="#3DE8CF"/>
<path d="M339.512 242.861C341.276 242.861 342.707 241.431 342.707 239.666C342.707 237.902 341.276 236.472 339.512 236.472C337.748 236.472 336.317 237.902 336.317 239.666C336.317 241.431 337.748 242.861 339.512 242.861Z" fill="#3DE8CF"/>
<path d="M351.534 242.861C353.298 242.861 354.728 241.431 354.728 239.666C354.728 237.902 353.298 236.472 351.534 236.472C349.769 236.472 348.339 237.902 348.339 239.666C348.339 241.431 349.769 242.861 351.534 242.861Z" fill="#3DE8CF"/>
<path d="M363.555 242.861C365.32 242.861 366.75 241.431 366.75 239.666C366.75 237.902 365.32 236.472 363.555 236.472C361.791 236.472 360.361 237.902 360.361 239.666C360.361 241.431 361.791 242.861 363.555 242.861Z" fill="#3DE8CF"/>
<path d="M285.417 253.262C287.181 253.262 288.612 251.832 288.612 250.067C288.612 248.303 287.181 246.872 285.417 246.872C283.653 246.872 282.222 248.303 282.222 250.067C282.222 251.832 283.653 253.262 285.417 253.262Z" fill="#3DE8CF"/>
<path d="M297.439 253.262C299.203 253.262 300.633 251.832 300.633 250.067C300.633 248.303 299.203 246.872 297.439 246.872C295.674 246.872 294.244 248.303 294.244 250.067C294.244 251.832 295.674 253.262 297.439 253.262Z" fill="#3DE8CF"/>
<path d="M309.46 253.262C311.225 253.262 312.655 251.832 312.655 250.067C312.655 248.303 311.225 246.872 309.46 246.872C307.696 246.872 306.265 248.303 306.265 250.067C306.265 251.832 307.696 253.262 309.46 253.262Z" fill="#3DE8CF"/>
<path d="M321.482 253.262C323.246 253.262 324.676 251.832 324.676 250.067C324.676 248.303 323.246 246.872 321.482 246.872C319.717 246.872 318.287 248.303 318.287 250.067C318.287 251.832 319.717 253.262 321.482 253.262Z" fill="#3DE8CF"/>
<path d="M333.503 253.262C335.268 253.262 336.698 251.832 336.698 250.067C336.698 248.303 335.268 246.872 333.503 246.872C331.739 246.872 330.309 248.303 330.309 250.067C330.309 251.832 331.739 253.262 333.503 253.262Z" fill="#3DE8CF"/>
<path d="M345.525 253.262C347.289 253.262 348.72 251.832 348.72 250.067C348.72 248.303 347.289 246.872 345.525 246.872C343.761 246.872 342.33 248.303 342.33 250.067C342.33 251.832 343.761 253.262 345.525 253.262Z" fill="#3DE8CF"/>
<path d="M357.547 253.262C359.311 253.262 360.741 251.832 360.741 250.067C360.741 248.303 359.311 246.872 357.547 246.872C355.782 246.872 354.352 248.303 354.352 250.067C354.352 251.832 355.782 253.262 357.547 253.262Z" fill="#3DE8CF"/>
<path d="M369.568 253.262C371.333 253.262 372.763 251.832 372.763 250.067C372.763 248.303 371.333 246.872 369.568 246.872C367.804 246.872 366.373 248.303 366.373 250.067C366.373 251.832 367.804 253.262 369.568 253.262Z" fill="#3DE8CF"/>
<path d="M291.426 263.663C293.19 263.663 294.62 262.233 294.62 260.468C294.62 258.704 293.19 257.273 291.426 257.273C289.661 257.273 288.231 258.704 288.231 260.468C288.231 262.233 289.661 263.663 291.426 263.663Z" fill="#3DE8CF"/>
<path d="M303.447 263.663C305.212 263.663 306.642 262.233 306.642 260.468C306.642 258.704 305.212 257.273 303.447 257.273C301.683 257.273 300.253 258.704 300.253 260.468C300.253 262.233 301.683 263.663 303.447 263.663Z" fill="#3DE8CF"/>
<path d="M315.469 263.663C317.233 263.663 318.664 262.233 318.664 260.468C318.664 258.704 317.233 257.273 315.469 257.273C313.705 257.273 312.274 258.704 312.274 260.468C312.274 262.233 313.705 263.663 315.469 263.663Z" fill="#3DE8CF"/>
<path d="M327.49 263.663C329.255 263.663 330.685 262.233 330.685 260.468C330.685 258.704 329.255 257.273 327.49 257.273C325.726 257.273 324.296 258.704 324.296 260.468C324.296 262.233 325.726 263.663 327.49 263.663Z" fill="#3DE8CF"/>
<path d="M339.512 263.663C341.276 263.663 342.707 262.233 342.707 260.468C342.707 258.704 341.276 257.273 339.512 257.273C337.748 257.273 336.317 258.704 336.317 260.468C336.317 262.233 337.748 263.663 339.512 263.663Z" fill="#3DE8CF"/>
<path d="M351.534 263.663C353.298 263.663 354.728 262.233 354.728 260.468C354.728 258.704 353.298 257.273 351.534 257.273C349.769 257.273 348.339 258.704 348.339 260.468C348.339 262.233 349.769 263.663 351.534 263.663Z" fill="#3DE8CF"/>
<path d="M363.555 263.663C365.32 263.663 366.75 262.233 366.75 260.468C366.75 258.704 365.32 257.273 363.555 257.273C361.791 257.273 360.361 258.704 360.361 260.468C360.361 262.233 361.791 263.663 363.555 263.663Z" fill="#3DE8CF"/>
<path d="M406.941 102.423H288.337C284.654 102.423 281.668 105.408 281.668 109.092V179.389C281.668 183.072 284.654 186.058 288.337 186.058H406.941C410.624 186.058 413.609 183.072 413.609 179.389V109.092C413.609 105.408 410.624 102.423 406.941 102.423Z" fill="#152272"/>
<path d="M215.107 267.543C209.335 268.665 184.492 269.122 184.492 269.122L118.058 186.062C118.058 186.062 39.2002 241.659 54.5224 313.501C69.8445 385.343 213.524 304.239 226.743 283.107C226.731 283.107 220.883 266.418 215.107 267.543V267.543Z" fill="#CCF2EA"/>
<path d="M303.68 243.068C294.168 244.829 273.569 260.841 273.569 260.841L270.052 266.583L281.668 280.056C310.37 278.473 297.13 253.139 297.13 253.139C297.13 253.139 313.188 241.308 303.68 243.068V243.068Z" fill="#409DE2"/>
<path d="M198.608 145.071L198.608 145.07C198.582 144.297 198.75 143.53 199.096 142.839C199.441 142.147 199.954 141.553 200.588 141.11L200.588 141.11C201.298 140.615 201.797 139.872 201.986 139.028C202.176 138.184 202.043 137.299 201.613 136.548L201.613 136.547L189.301 114.991C188.111 117.215 186.266 118.395 184.086 118.905C181.627 119.481 178.751 119.208 175.921 118.726C174.673 118.513 173.418 118.257 172.199 118.009C172.029 117.974 171.859 117.939 171.691 117.905C170.308 117.624 168.982 117.362 167.749 117.187C166.513 117.012 165.395 116.928 164.427 116.993C163.459 117.059 162.683 117.272 162.1 117.657L198.608 145.071ZM198.608 145.071L198.938 154.642C198.98 155.864 198.781 157.082 198.351 158.227C197.921 159.371 197.269 160.419 196.433 161.311C195.598 162.204 194.594 162.922 193.48 163.425C192.366 163.928 191.163 164.207 189.941 164.244L189.94 164.244L183.191 164.469C182.063 164.506 180.987 164.954 180.165 165.727C179.344 166.501 178.832 167.547 178.727 168.671C178.727 168.671 178.727 168.671 178.727 168.671L177.14 185.567L177.14 185.568M198.608 145.071L177.14 185.568M153.254 135.247L153.254 135.247C151.213 133.894 149.142 133.571 147.434 134.033C145.732 134.493 144.323 135.748 143.611 137.694L143.611 137.694C142.763 140.006 143.276 142.161 144.402 144.063C145.537 145.978 147.273 147.596 148.776 148.76C149.66 149.44 150.269 150.416 150.492 151.508C150.715 152.601 150.537 153.738 149.99 154.71L149.99 154.71L142.302 168.373C142.302 168.373 142.302 168.373 142.302 168.373C139.12 174.03 136.626 180.047 134.874 186.296L153.254 135.247ZM153.254 135.247C154.056 135.777 154.822 136.036 155.533 135.875M153.254 135.247L155.533 135.875M177.14 185.568C176.623 191.146 174.884 196.542 172.047 201.372C170.222 204.471 167.387 206.848 164.017 208.104C160.647 209.36 156.948 209.418 153.54 208.269C153.54 208.269 153.54 208.269 153.539 208.269L144.941 205.367C137.201 202.754 132.673 194.164 134.874 186.296L177.14 185.568ZM155.533 135.875C156.259 135.71 156.738 135.152 157.064 134.504M155.533 135.875L157.064 134.504M157.064 134.504C157.392 133.854 157.618 133.014 157.796 132.092M157.064 134.504L157.796 132.092M157.796 132.092C157.977 131.163 158.116 130.108 158.254 129.009M157.796 132.092L158.254 129.009M158.254 129.009C158.276 128.832 158.299 128.653 158.321 128.473M158.254 129.009L158.321 128.473M158.321 128.473C158.577 126.411 158.848 124.227 159.372 122.299M158.321 128.473L159.372 122.299M159.372 122.299C159.944 120.19 160.784 118.526 162.099 117.657L159.372 122.299Z" fill="white" stroke="black" stroke-width="1.16891"/>
<path d="M200.923 141.589C200.923 141.589 189.075 143.316 185.245 150.331C181.416 157.347 159.044 125.027 176.258 121.735C193.471 118.443 205.387 113.848 195.375 102.897C186.155 92.8131 163.373 97.8951 155.011 104.031C153.662 105.028 152.172 105.818 150.59 106.375C145.512 108.135 134.76 113.425 133.516 126.847C131.882 144.471 145.563 161.409 145.563 161.409L156.281 148.03C156.281 148.03 149.159 141.479 153.602 136.605C158.045 131.73 165.7 134.387 164.79 148.525C163.881 162.662 166.204 191.203 193.044 184.776C232.012 175.454 200.995 142.203 200.995 142.203" fill="#152272"/>
<path d="M173.448 187.454C167.834 183.126 163.419 177.435 160.622 170.922C157.559 163.618 151.817 155.562 141.416 155.562C127.685 155.562 123.741 169.919 122.611 177.895C122.157 181.087 120.534 183.997 118.058 186.062C106.709 195.528 74.5585 230.526 58.1996 332.518C45.0439 414.566 192.375 389.57 192.375 389.57C192.375 389.57 217.269 221.729 173.448 187.454Z" fill="white"/>
<path d="M80.0678 247.118C71.8842 268.326 64.0475 296.165 58.2165 332.518" stroke="#152272" stroke-width="1.94386" stroke-linecap="round" stroke-linejoin="round"/>
<path d="M146.451 198.816L189.109 211.574C189.109 211.574 205.061 255.467 204.278 295.086L271.952 260.511C273.971 259.463 276.272 259.092 278.518 259.452C280.763 259.813 282.833 260.885 284.422 262.512C287.249 265.474 289.242 270.366 287.088 278.444C287.088 278.444 239.848 378.416 185.275 366.395C130.702 354.373 120.927 241.52 146.451 198.816Z" fill="white"/>
<path d="M287.088 278.431C287.088 278.431 239.848 378.416 185.275 366.395C146.532 357.86 130.367 298.522 133.38 249.53" stroke="#152272" stroke-width="1.94386" stroke-linecap="round" stroke-linejoin="round"/>
<path d="M364.181 148.415C364.181 146.173 364.661 143.958 365.591 141.918C366.52 139.878 367.876 138.062 369.568 136.592C367.298 134.611 364.506 133.326 361.525 132.89C358.545 132.453 355.501 132.884 352.759 134.131C350.017 135.378 347.691 137.388 346.06 139.921C344.43 142.453 343.562 145.402 343.562 148.415C343.562 151.427 344.43 154.376 346.06 156.909C347.691 159.442 350.017 161.451 352.759 162.698C355.501 163.945 358.545 164.376 361.525 163.939C364.506 163.503 367.298 162.218 369.568 160.237C367.876 158.767 366.52 156.951 365.591 154.911C364.661 152.871 364.181 150.656 364.181 148.415V148.415Z" fill="#3DE8CF"/>
<path d="M379.872 132.729C376.082 132.724 372.421 134.097 369.568 136.592C371.261 138.062 372.619 139.878 373.549 141.917C374.479 143.957 374.961 146.173 374.961 148.415C374.961 150.656 374.479 152.872 373.549 154.912C372.619 156.952 371.261 158.768 369.568 160.237C371.478 161.904 373.764 163.083 376.229 163.674C378.694 164.264 381.266 164.248 383.724 163.627C386.181 163.006 388.452 161.799 390.341 160.109C392.231 158.419 393.682 156.296 394.571 153.922C395.461 151.548 395.761 148.994 395.448 146.478C395.134 143.963 394.215 141.561 392.77 139.478C391.325 137.395 389.397 135.693 387.151 134.519C384.904 133.344 382.407 132.731 379.872 132.733V132.729Z" fill="#409DE2"/>
<path d="M374.951 148.415C374.952 146.174 374.472 143.958 373.543 141.919C372.615 139.879 371.259 138.063 369.568 136.592C367.875 138.062 366.518 139.878 365.587 141.917C364.657 143.957 364.176 146.173 364.176 148.415C364.176 150.656 364.657 152.872 365.587 154.912C366.518 156.952 367.875 158.768 369.568 160.237C371.259 158.767 372.615 156.95 373.543 154.911C374.472 152.871 374.952 150.656 374.951 148.415V148.415Z" fill="#CCF2EA"/>
</svg>
