<svg width="30" height="40" viewBox="0 0 30 40" fill="none" xmlns="http://www.w3.org/2000/svg">
<path d="M4.27626 23.7927C4.27626 22.6854 8.47735 22.0642 10.4337 21.9132L10.6208 22.0213C9.86931 22.1581 6.85384 22.6899 6.85384 23.3837C6.85384 24.1388 11.4788 24.6337 14.1629 24.6337C18.722 24.6337 21.8211 23.9436 22.6546 23.7166L23.821 24.3949C23.0222 24.7861 19.594 25.8105 14.1629 25.8105C8.12751 25.8104 4.27626 24.6299 4.27626 23.7927ZM13.475 39.3398C11.086 39.3605 8.16962 39.163 5.71626 38.751L5.48845 38.8812C7.9329 39.5979 11.3359 40.0306 15.0749 39.9981C22.4179 39.9345 28.3713 38.1135 28.4888 35.922L28.4045 35.8724C27.912 36.473 24.7359 39.2414 13.475 39.3398ZM14.1 37.9286C20.1102 37.8761 26.8343 36.7001 26.8173 34.7231C26.8136 34.3643 26.5806 34.1188 26.3779 33.9709L26.2788 34.0278C25.7233 35.5588 21.0281 36.6905 14.0903 36.7504C9.61407 36.7896 3.41298 35.7171 3.40188 34.4782C3.39149 33.2356 6.3397 32.553 6.3397 32.553L6.1311 32.4339C4.15556 32.7061 0.515087 33.6521 0.526884 35.0182C0.544072 36.9929 8.91079 37.9737 14.1 37.9286ZM27.6398 24.3216C27.5185 26.6403 25.3765 28.0841 23.2352 29.3038L23.4291 29.4162C25.7138 28.7728 29.7906 26.9014 29.4534 24.0242C29.2855 22.5901 27.9741 21.5649 26.2648 21.5649C25.7323 21.5649 25.2589 21.6588 24.875 21.7757L24.8735 21.7794L24.7921 21.9835C26.3217 21.684 27.7189 22.8009 27.6398 24.3216ZM9.98548 31.2112C9.28798 31.3503 7.76806 31.6994 7.76806 32.4382C7.76806 33.4619 11.0195 34.2467 14.1592 34.2467C18.4795 34.2467 20.2494 33.135 20.3292 33.0773L18.5327 32.0381C17.7686 32.22 16.4816 32.5055 14.1637 32.5055C11.5772 32.5055 9.89157 32.0632 9.89157 31.578C9.89157 31.4752 9.95595 31.3524 10.0757 31.2637L9.98548 31.2112ZM20.5984 27.7601C19.6051 28.0412 17.367 28.4997 14.1666 28.4997C11.0261 28.4997 8.46032 27.9628 8.45212 27.3296C8.44618 26.908 8.95579 26.7246 8.95579 26.7246L8.86556 26.6721C7.36118 26.9377 5.9647 27.3489 5.97212 27.9642C5.98618 29.0803 10.2553 29.9184 14.1606 29.9184C17.4809 29.9184 20.6694 29.3614 22.108 28.6314L20.5984 27.7601Z" fill="#427595"/>
<path d="M19.742 2.86094C19.742 9.01547 11.3079 11.3704 11.3079 15.7461C11.3079 18.8178 13.3448 20.7438 14.472 21.962L14.3803 22.0152C12.9573 21.1247 9.21399 18.888 9.21399 15.1936C9.21399 10.0066 18.9017 7.52805 18.9017 1.63687C18.9017 0.912031 18.7945 0.355859 18.7191 0.05625L18.8167 0C19.1236 0.385391 19.742 1.34984 19.742 2.86094ZM22.5156 8.31125L22.4143 8.25359C20.5793 8.8682 14.9284 11.0989 14.9284 15.2572C14.9284 17.6084 17.225 18.9117 17.225 21.1166C17.225 21.9035 16.7805 22.6409 16.4195 23.0817L16.6007 23.1867C17.557 22.5655 19.2493 21.2201 19.2493 19.4834C19.2493 18.0123 17.2138 16.2446 17.2138 14.3541C17.2139 11.3748 21.1413 9.03758 22.5156 8.31125Z" fill="#DE8E2F"/>
</svg>
