<svg xmlns="http://www.w3.org/2000/svg" xmlns:xlink="http://www.w3.org/1999/xlink" viewBox="0 0 204.32 11.14"><defs><style>.cls-1{fill:url(#linear-gradient);}.cls-2{fill:url(#linear-gradient-2);}.cls-3{fill:url(#linear-gradient-3);}.cls-4{fill:url(#linear-gradient-4);}.cls-5{fill:url(#linear-gradient-5);}.cls-6{fill:url(#linear-gradient-6);}.cls-7{fill:url(#linear-gradient-7);}.cls-8{fill:url(#linear-gradient-8);}.cls-9{fill:url(#linear-gradient-9);}.cls-10{fill:url(#linear-gradient-10);}.cls-11{fill:url(#linear-gradient-11);}.cls-12{fill:url(#linear-gradient-12);}</style><linearGradient id="linear-gradient" x1="45.69" y1="6.09" x2="45.69" y2="5.05" gradientUnits="userSpaceOnUse"><stop offset="0" stop-color="#c4995d"/><stop offset="1" stop-color="#f9f3db"/></linearGradient><linearGradient id="linear-gradient-2" x1="5.78" y1="8.6" x2="5.78" y2="2.54" xlink:href="#linear-gradient"/><linearGradient id="linear-gradient-3" x1="0.52" y1="8.6" x2="0.52" y2="2.54" xlink:href="#linear-gradient"/><linearGradient id="linear-gradient-4" x1="93.37" y1="7.36" x2="93.37" y2="3.78" xlink:href="#linear-gradient"/><linearGradient id="linear-gradient-5" x1="91.88" y1="4.3" x2="91.88" y2="0" xlink:href="#linear-gradient"/><linearGradient id="linear-gradient-6" x1="91.88" y1="11.14" x2="91.88" y2="6.84" xlink:href="#linear-gradient"/><linearGradient id="linear-gradient-7" x1="158.64" y1="6.09" x2="158.64" y2="5.05" xlink:href="#linear-gradient"/><linearGradient id="linear-gradient-8" x1="198.54" y1="8.6" x2="198.54" y2="2.54" xlink:href="#linear-gradient"/><linearGradient id="linear-gradient-9" x1="203.8" y1="8.6" x2="203.8" y2="2.54" xlink:href="#linear-gradient"/><linearGradient id="linear-gradient-10" x1="110.95" y1="7.36" x2="110.95" y2="3.78" xlink:href="#linear-gradient"/><linearGradient id="linear-gradient-11" x1="112.45" y1="11.14" x2="112.45" y2="6.84" xlink:href="#linear-gradient"/><linearGradient id="linear-gradient-12" x1="112.45" y1="4.3" x2="112.45" y2="0" xlink:href="#linear-gradient"/></defs><g id="Layer_2" data-name="Layer 2"><g id="PRINT"><path class="cls-1" d="M83.38,6.09H8a.52.52,0,1,1,0-1H83.38a.52.52,0,1,1,0,1Z"/><path class="cls-2" d="M3.58,8.6a.5.5,0,0,1-.27-.07.54.54,0,0,1-.26-.45v-5a.52.52,0,0,1,.78-.45L8.25,5.12a.52.52,0,0,1,0,.9L3.83,8.53A.47.47,0,0,1,3.58,8.6ZM4.1,4V7.18L6.93,5.57Z"/><path class="cls-3" d="M.52,8.6A.52.52,0,0,1,0,8.08v-5a.52.52,0,0,1,.52-.52.53.53,0,0,1,.53.52v5A.53.53,0,0,1,.52,8.6Z"/><polygon class="cls-4" points="97.69 3.78 86.79 5.57 97.69 7.36 99.95 5.57 97.69 3.78"/><polygon class="cls-5" points="94.73 0 86.79 4.3 95.69 2.77 96.96 0.78 94.73 0"/><polygon class="cls-6" points="94.73 11.14 86.79 6.84 95.69 8.37 96.96 10.36 94.73 11.14"/><path class="cls-7" d="M196.33,6.09H120.94a.52.52,0,1,1,0-1h75.39a.52.52,0,1,1,0,1Z"/><path class="cls-8" d="M200.75,8.6a.48.48,0,0,1-.26-.07L196.08,6a.51.51,0,0,1,0-.9l4.41-2.51a.52.52,0,0,1,.78.45v5a.54.54,0,0,1-.26.45A.48.48,0,0,1,200.75,8.6Zm-3.36-3,2.84,1.61V4Z"/><path class="cls-9" d="M203.8,8.6a.52.52,0,0,1-.52-.52v-5a.52.52,0,0,1,1,0v5A.52.52,0,0,1,203.8,8.6Z"/><polygon class="cls-10" points="106.63 7.36 117.53 5.57 106.63 3.78 104.37 5.57 106.63 7.36"/><polygon class="cls-11" points="109.59 11.14 117.53 6.84 108.63 8.37 107.36 10.36 109.59 11.14"/><polygon class="cls-12" points="109.59 0 117.53 4.3 108.63 2.77 107.36 0.78 109.59 0"/></g></g></svg>