<svg width="22" height="29" viewBox="0 0 22 29" fill="none" xmlns="http://www.w3.org/2000/svg">
<path d="M9.58577 27.9152C1.50073 16.1943 0 14.9914 0 10.6837C0 4.78326 4.78326 0 10.6837 0C16.5842 0 21.3675 4.78326 21.3675 10.6837C21.3675 14.9914 19.8668 16.1943 11.7817 27.9152C11.2512 28.6816 10.1163 28.6816 9.58577 27.9152ZM10.6837 15.1353C13.1423 15.1353 15.1353 13.1423 15.1353 10.6837C15.1353 8.22521 13.1423 6.23219 10.6837 6.23219C8.22521 6.23219 6.23219 8.22521 6.23219 10.6837C6.23219 13.1423 8.22521 15.1353 10.6837 15.1353Z" fill="#800020"/>
</svg>
