<svg width="510" height="715" viewBox="0 0 510 715" fill="none" xmlns="http://www.w3.org/2000/svg">
<g clip-path="url(#clip0_3169_1356)">
<path d="M436.117 250.094H416.057V161.025C416.197 139.787 412.134 118.732 404.103 99.0702C396.072 79.4088 384.231 61.5299 369.262 46.4629C354.293 31.3959 336.491 19.4383 316.882 11.2785C297.273 3.11877 276.243 -1.08203 255.003 -1.08203C233.764 -1.08203 212.734 3.11877 193.125 11.2785C173.516 19.4383 155.714 31.3959 140.745 46.4629C125.776 61.5299 113.935 79.4088 105.904 99.0702C97.8727 118.732 93.81 139.787 93.9496 161.025V250.094H73.8478C54.2615 250.096 35.4781 257.878 21.6291 271.727C7.78015 285.577 -8.68634e-08 304.36 0 323.945L0 641.139C0.00184443 660.723 7.78281 679.505 21.6316 693.353C35.4803 707.201 54.2627 714.981 73.8478 714.983H436.117C445.818 714.987 455.424 713.08 464.387 709.37C473.351 705.661 481.495 700.223 488.356 693.365C495.217 686.508 500.66 678.366 504.374 669.405C508.087 660.444 509.999 650.839 510 641.139V323.945C510 314.245 508.089 304.639 504.376 295.677C500.662 286.715 495.22 278.573 488.359 271.715C481.498 264.857 473.353 259.418 464.389 255.708C455.425 251.998 445.819 250.091 436.117 250.094ZM278.753 504.719V559.499C278.647 565.727 276.098 571.664 271.655 576.031C267.213 580.397 261.233 582.844 255.003 582.844C248.774 582.844 242.794 580.397 238.352 576.031C233.909 571.664 231.36 565.727 231.254 559.499V504.719C217.515 499.203 206.126 489.076 199.041 476.077C191.956 463.078 189.618 448.019 192.427 433.484C195.237 418.949 203.019 405.846 214.437 396.423C225.856 387.001 240.199 381.847 255.003 381.847C269.808 381.847 284.151 387.001 295.57 396.423C306.988 405.846 314.77 418.949 317.58 433.484C320.389 448.019 318.051 463.078 310.966 476.077C303.881 489.076 292.492 499.203 278.753 504.719ZM346.835 250.094H163.165V161.025C163.165 136.67 172.84 113.313 190.063 96.0915C207.285 78.8699 230.644 69.195 255 69.195C279.356 69.195 302.715 78.8699 319.937 96.0915C337.16 113.313 346.835 136.67 346.835 161.025V250.094Z" fill="#BC1313"/>
</g>
<defs>
<clipPath id="clip0_3169_1356">
<rect width="510" height="715" fill="white"/>
</clipPath>
</defs>
</svg>
