<?xml version="1.0" encoding="UTF-8"?>
<svg xmlns="http://www.w3.org/2000/svg" xmlns:xlink="http://www.w3.org/1999/xlink" xmlns:svgjs="http://svgjs.com/svgjs" version="1.1" width="512" height="512" x="0" y="0" viewBox="0 0 512 512" style="enable-background:new 0 0 512 512" xml:space="preserve" class="">
  <g>
    <g data-name="Layer 16">
      <path d="M359.49 282.11A19 19 0 0 0 339 299.44c-1.68 19.82-3.76 37.06-5.58 46.12v.11c-5.37 27.7-31.61 55.08-58.52 61.1-2.33.48-4.67.94-7 1.38 2-25.73 3.49-58.63 3.29-84 .3-38.76-3.41-98.44-6.7-122.19-5.91-43.73-32.8-92.23-62.55-112.84l-.18-.12a338.2 338.2 0 0 0-66.1-34.71q-6.22-2.41-12.29-4.5a426.08 426.08 0 0 1 66.7-5c30.4 0 58.15 2.77 84.83 8.31 26.91 6 53.15 33.4 58.52 61.1v.11c1.81 9 3.89 26.24 5.57 46a19 19 0 0 0 37.87-3.22c-1.82-21.39-4.06-39.68-6.16-50.2-8.29-42.61-46-81.7-87.72-90.94l-.24-.05C253.42 9.82 223.12 6.84 190 6.78s-63.3 3-92.62 9.13l-.25.05C78.51 20.09 60.7 30.17 45.94 43.84a47.24 47.24 0 0 0-10.33 10.73C22.57 69.79 13.1 88 9.42 106.89 4.81 130-.4 189.93 0 229.93c-.22 21.46 1.17 48.66 3.23 72.83 1.1 15.5 2.35 29 3.55 37.66 5.91 43.73 32.8 92.23 62.56 112.84l.17.12a338.62 338.62 0 0 0 66.11 34.71c23.54 9.14 45.14 14.68 66.05 16.94h.18c28.1 2.51 53.64-21.88 61.37-57.54q9.81-1.56 19.45-3.55l.24-.05c41.73-9.24 79.43-48.33 87.72-90.94 2.1-10.54 4.35-28.87 6.17-50.31a19 19 0 0 0-17.31-20.53z" fill="#0773bb" data-original="#000000" class=""/>
      <path d="M512.09 229.9c0-.63 0-1.26-.1-1.89a.5.5 0 0 0 0-.12 17.39 17.39 0 0 0-.27-1.76V226a18.9 18.9 0 0 0-5.15-9.53l-68-68.06a19 19 0 0 0-26.88 26.87l35.67 35.66H316.19a19 19 0 0 0 0 38h131l-35.64 35.64a19 19 0 0 0 26.87 26.87l67.69-67.69a18.86 18.86 0 0 0 5.2-8.44 16.53 16.53 0 0 0 .42-1.75 2.17 2.17 0 0 0 0-.25c.09-.51.18-1 .23-1.54s0-.78 0-1.16v-.66z" fill="#0773bb" data-original="#000000" class=""/>
    </g>
  </g>
</svg>
