<svg width="42" height="28" viewBox="0 0 42 28" fill="none" xmlns="http://www.w3.org/2000/svg">
<path d="M41.0026 15.3324V7.8291L39.8569 8.21744V15.3324H41.0026Z" fill="#AB5934"/>
<path d="M34.113 12.293L21.2775 16.6453C21.1597 16.6859 21.0354 16.706 20.9118 16.706C20.7878 16.706 20.6626 16.6859 20.5448 16.6453L7.7099 12.293V23.0571H7.72348L7.69434 23.205C7.69434 24.4856 13.6127 27.3447 20.904 27.3447C28.195 27.3447 34.0978 24.4856 34.0978 23.205L34.0677 23.0571H34.113V12.293Z" fill="#AB5934"/>
<path d="M7.71001 10.1658L20.9119 14.6423L34.1132 10.1658L39.8571 8.21736L41.0028 7.82902L41.606 7.62447L20.9119 0.655273L0.216797 7.62447L7.71001 10.1658Z" fill="#AB5934"/>
<path d="M39.0767 17.0904V21.471C39.0767 22.2184 39.6818 22.8241 40.4301 22.8241C41.1777 22.8241 41.7833 22.2184 41.7833 21.471V17.0904C41.7833 16.7203 41.6341 16.3852 41.3939 16.1411H39.4669C39.2265 16.3852 39.0767 16.7203 39.0767 17.0904Z" fill="#AB5934"/>
<path d="M39.2939 15.3325V16.1413H39.4667H41.3937H41.5652V15.3325H41.0027H39.857H39.2939Z" fill="#AB5934"/>
</svg>
