<svg width="28" height="30" viewBox="0 0 28 30" fill="none" xmlns="http://www.w3.org/2000/svg">
<path d="M8.87787 0.25H18.9343L27.7564 9.07372V26.1956C27.7564 28.1493 26.1572 29.75 24.202 29.75H8.87793C6.92447 29.75 5.3252 28.1493 5.3252 26.1956V3.80443C5.3252 1.85068 6.92447 0.25 8.87787 0.25Z" fill="white" stroke="black" stroke-width="0.5"/>
<path fill-rule="evenodd" clip-rule="evenodd" d="M19.0381 0L28.0066 8.97018H20.0051C19.4719 8.97018 19.0381 8.53471 19.0381 8.0015V0Z" fill="#4DC364"/>
<path fill-rule="evenodd" clip-rule="evenodd" d="M0.828125 12.7744H21.4893C21.9488 12.7744 22.3243 13.1499 22.3243 13.6094V21.1891C22.3243 21.6486 21.9488 22.024 21.4893 22.024H0.828125C0.368633 22.024 -0.00683594 21.6486 -0.00683594 21.1891V13.6094C-0.00683594 13.1499 0.368691 12.7744 0.828125 12.7744Z" fill="#4DC364"/>
<path d="M5.89926 14.3203H4.34078C4.0733 14.3203 3.85645 14.5372 3.85645 14.8046V17.3592V17.9884V19.9927C3.85645 20.2601 4.0733 20.477 4.34078 20.477C4.60826 20.477 4.82512 20.2601 4.82512 19.9927V18.4727H5.8992C7.02561 18.4727 7.94201 17.5563 7.94201 16.43V16.3631C7.94207 15.2367 7.02566 14.3203 5.89926 14.3203ZM6.9734 16.4299C6.9734 17.0222 6.49152 17.504 5.89926 17.504H4.82512V17.3592V15.2889H5.8992C6.49147 15.2889 6.97334 15.7708 6.97334 16.363V16.4299H6.9734ZM11.1113 14.3203H9.55287C9.28539 14.3203 9.06854 14.5372 9.06854 14.8046V19.9927C9.06854 20.2601 9.28539 20.477 9.55287 20.477H11.1113C12.2377 20.477 13.1541 19.5606 13.1541 18.4342V16.3631C13.1541 15.2367 12.2377 14.3203 11.1113 14.3203ZM12.1854 18.4342C12.1854 19.0264 11.7036 19.5083 11.1113 19.5083H10.0372V15.2889H11.1113C11.7036 15.2889 12.1854 15.7708 12.1854 16.363V18.4342ZM15.3435 15.289V16.6297H17.5886C17.8561 16.6297 18.0729 16.8466 18.0729 17.1141C18.0729 17.3815 17.8561 17.5984 17.5886 17.5984H15.3435V19.9927C15.3435 20.2601 15.1266 20.477 14.8591 20.477C14.5916 20.477 14.3748 20.2601 14.3748 19.9927V14.8046C14.3748 14.5372 14.5916 14.3203 14.8591 14.3203H17.976C18.2435 14.3203 18.4604 14.5372 18.4604 14.8046C18.4604 15.0721 18.2435 15.289 17.976 15.289H15.3435Z" fill="white"/>
</svg>
