<svg width="30" height="30" viewBox="0 0 30 30" fill="none" xmlns="http://www.w3.org/2000/svg">
<g clip-path="url(#clip0_3057_1553)">
<path d="M9.87787 0.25H19.9343L28.7564 9.07372V26.1956C28.7564 28.1493 27.1572 29.75 25.202 29.75H9.87793C7.92447 29.75 6.3252 28.1493 6.3252 26.1956V3.80443C6.3252 1.85068 7.92447 0.25 9.87787 0.25Z" fill="white" stroke="black" stroke-width="0.5"/>
<path fill-rule="evenodd" clip-rule="evenodd" d="M20.0381 0L29.0066 8.97018H21.0051C20.4719 8.97018 20.0381 8.53471 20.0381 8.0015V0Z" fill="#C93336"/>
<path fill-rule="evenodd" clip-rule="evenodd" d="M1.82812 12.7744H22.4893C22.9488 12.7744 23.3243 13.1499 23.3243 13.6094V21.1891C23.3243 21.6486 22.9488 22.024 22.4893 22.024H1.82812C1.36863 22.024 0.993164 21.6486 0.993164 21.1891V13.6094C0.993164 13.1499 1.36869 12.7744 1.82812 12.7744Z" fill="#C93336"/>
<path d="M6.89926 14.3203H5.34078C5.0733 14.3203 4.85645 14.5372 4.85645 14.8046V17.3592V17.9884V19.9927C4.85645 20.2601 5.0733 20.477 5.34078 20.477C5.60826 20.477 5.82512 20.2601 5.82512 19.9927V18.4727H6.8992C8.02561 18.4727 8.94201 17.5563 8.94201 16.43V16.3631C8.94207 15.2367 8.02566 14.3203 6.89926 14.3203ZM7.9734 16.4299C7.9734 17.0222 7.49152 17.504 6.89926 17.504H5.82512V17.3592V15.2889H6.8992C7.49147 15.2889 7.97334 15.7708 7.97334 16.363V16.4299H7.9734ZM12.1113 14.3203H10.5529C10.2854 14.3203 10.0685 14.5372 10.0685 14.8046V19.9927C10.0685 20.2601 10.2854 20.477 10.5529 20.477H12.1113C13.2377 20.477 14.1541 19.5606 14.1541 18.4342V16.3631C14.1541 15.2367 13.2377 14.3203 12.1113 14.3203ZM13.1854 18.4342C13.1854 19.0264 12.7036 19.5083 12.1113 19.5083H11.0372V15.2889H12.1113C12.7036 15.2889 13.1854 15.7708 13.1854 16.363V18.4342ZM16.3435 15.289V16.6297H18.5886C18.8561 16.6297 19.0729 16.8466 19.0729 17.1141C19.0729 17.3815 18.8561 17.5984 18.5886 17.5984H16.3435V19.9927C16.3435 20.2601 16.1266 20.477 15.8591 20.477C15.5916 20.477 15.3748 20.2601 15.3748 19.9927V14.8046C15.3748 14.5372 15.5916 14.3203 15.8591 14.3203H18.976C19.2435 14.3203 19.4604 14.5372 19.4604 14.8046C19.4604 15.0721 19.2435 15.289 18.976 15.289H16.3435Z" fill="white"/>
</g>
<defs>
<clipPath id="clip0_3057_1553">
<rect width="30" height="30" fill="white"/>
</clipPath>
</defs>
</svg>
