<svg width="510" height="730" viewBox="0 0 510 730" fill="none" xmlns="http://www.w3.org/2000/svg">
<path d="M436.123 255.944H163.167V165.184C163.167 140.373 172.841 116.577 190.059 99.033C207.278 81.4886 230.632 71.6322 254.983 71.6322C279.334 71.6322 302.687 81.4886 319.906 99.033C337.125 116.577 346.798 140.373 346.798 165.184V213.619H416.021V165.184C416.161 143.543 412.098 122.088 404.067 102.053C396.036 82.0186 384.194 63.8004 369.225 48.4474C354.256 33.0944 336.454 20.9098 316.844 12.5952C297.235 4.28054 276.205 0 254.965 0C233.725 0 212.696 4.28054 193.086 12.5952C173.476 20.9098 155.675 33.0944 140.705 48.4474C125.736 63.8004 113.895 82.0186 105.864 102.053C97.8323 122.088 93.7695 143.543 93.9091 165.184V255.944H73.8488C64.1503 255.944 54.5467 257.89 45.5865 261.672C36.6263 265.454 28.4849 270.997 21.6274 277.985C14.7698 284.973 9.33025 293.269 5.61941 302.399C1.90857 311.529 -0.000913165 321.314 3.27605e-07 331.196V654.411C3.27605e-07 674.368 7.78048 693.507 21.6298 707.618C35.4792 721.729 54.2629 729.657 73.8488 729.657H436.123C445.823 729.66 455.429 727.716 464.392 723.935C473.354 720.155 481.498 714.613 488.358 707.626C495.219 700.639 500.661 692.343 504.374 683.212C508.087 674.081 509.999 664.295 510 654.411V331.196C510 321.312 508.089 311.525 504.376 302.394C500.663 293.262 495.221 284.965 488.361 277.977C481.5 270.989 473.356 265.447 464.393 261.666C455.43 257.885 445.824 255.941 436.123 255.944ZM278.75 515.402V571.221C278.644 577.567 276.095 583.617 271.652 588.067C267.21 592.516 261.229 595.01 255 595.01C248.77 595.01 242.79 592.516 238.348 588.067C233.905 583.617 231.356 577.567 231.25 571.221V515.402C217.511 509.78 206.122 499.461 199.037 486.216C191.952 472.971 189.613 457.625 192.423 442.815C195.232 428.004 203.015 414.652 214.433 405.05C225.852 395.449 240.195 390.198 255 390.198C269.805 390.198 284.148 395.449 295.567 405.05C306.985 414.652 314.768 428.004 317.577 442.815C320.387 457.625 318.048 472.971 310.963 486.216C303.878 499.461 292.489 509.78 278.75 515.402Z" fill="#4FBD45"/>
</svg>
