<?xml version="1.0" encoding="UTF-8"?>
<svg xmlns="http://www.w3.org/2000/svg" xmlns:xlink="http://www.w3.org/1999/xlink" xmlns:svgjs="http://svgjs.com/svgjs" version="1.1" width="512" height="512" x="0" y="0" viewBox="0 0 510.822 510.822" style="enable-background:new 0 0 512 512" xml:space="preserve" class="">
  <g>
    <path d="M257.119 456.961c-86.662 0-162.209-55.315-189.585-135.11l22.305 9.732 11.997-27.496-62.124-27.105L0 336.564l24.963 16.639 14.266-21.404c31.534 91.648 118.334 155.162 217.891 155.162 111.233 0 206.546-79.273 226.632-188.495l-29.506-5.426c-17.468 94.982-100.371 163.921-197.127 163.921zM257.119 53.861c85.802 0 161.146 54.728 188.986 133.652l-26.48-10.883-11.404 27.748 66.23 27.22 36.371-57.193-25.314-16.1L474 176.401c-32.332-90.14-118.649-152.54-216.881-152.54-110.099 0-205.238 78.319-226.218 186.225l29.448 5.727c18.246-93.841 101-161.952 196.77-161.952z" fill="#000000" data-original="#000000" opacity="1" class=""/>
    <path d="M152.014 396.857h210.132V150.584l-35.831-35.313H152.014zm70.78-125.794v-30h68.64v30zm68.641 33.368v30h-68.64v-30zm-68.641-96.735v-30h68.64v30z" fill="#000000" data-original="#000000" opacity="1" class=""/>
  </g>
</svg>
