<svg width="10" height="13" viewBox="0 0 10 13" fill="none" xmlns="http://www.w3.org/2000/svg">
<path d="M3.84794 12.1251L3.22085 11.498L4.0521 10.6667H0.916687V9.79175H4.08127L3.22085 8.93133L3.84794 8.30425L5.75835 10.2147L3.84794 12.1251ZM0.916687 9.03341V1.04175C0.916687 0.808415 1.00419 0.604248 1.17919 0.429248C1.35419 0.254248 1.55835 0.166748 1.79169 0.166748H8.20835C8.44169 0.166748 8.64585 0.254248 8.82085 0.429248C8.99585 0.604248 9.08335 0.808415 9.08335 1.04175V9.03341H8.20835V7.85216C7.78058 7.59939 7.30662 7.40737 6.78648 7.27612C6.26634 7.14487 5.67085 7.07925 5.00002 7.07925C4.32919 7.07925 3.73613 7.14487 3.22085 7.27612C2.70558 7.40737 2.22919 7.59939 1.79169 7.85216V9.03341H0.916687ZM1.79169 6.84591C2.29724 6.6223 2.81981 6.45459 3.3594 6.34279C3.89898 6.23098 4.44585 6.17508 5.00002 6.17508C5.55419 6.17508 6.09863 6.23098 6.63335 6.34279C7.16808 6.45459 7.69308 6.6223 8.20835 6.84591V1.04175H1.79169V6.84591ZM6.16669 10.6667V9.79175H9.08335V10.6667H6.16669ZM5.00002 5.32925C4.54308 5.32925 4.15662 5.17126 3.84065 4.85529C3.52467 4.53932 3.36669 4.15286 3.36669 3.69591C3.36669 3.23897 3.52467 2.85251 3.84065 2.53654C4.15662 2.22057 4.54308 2.06258 5.00002 2.06258C5.45696 2.06258 5.84342 2.22057 6.1594 2.53654C6.47537 2.85251 6.63335 3.23897 6.63335 3.69591C6.63335 4.15286 6.47537 4.53932 6.1594 4.85529C5.84342 5.17126 5.45696 5.32925 5.00002 5.32925ZM5.00002 4.45425C5.21391 4.45425 5.39377 4.38133 5.5396 4.2355C5.68544 4.08966 5.75835 3.9098 5.75835 3.69591C5.75835 3.48203 5.68544 3.30216 5.5396 3.15633C5.39377 3.0105 5.21391 2.93758 5.00002 2.93758C4.78613 2.93758 4.60627 3.0105 4.46044 3.15633C4.3146 3.30216 4.24169 3.48203 4.24169 3.69591C4.24169 3.9098 4.3146 4.08966 4.46044 4.2355C4.60627 4.38133 4.78613 4.45425 5.00002 4.45425Z" fill="white"/>
</svg>
