<?xml version="1.0" encoding="UTF-8"?>
<svg xmlns="http://www.w3.org/2000/svg" xmlns:xlink="http://www.w3.org/1999/xlink" xmlns:svgjs="http://svgjs.com/svgjs" version="1.1" width="512" height="512" x="0" y="0" viewBox="0 0 512 512.001" style="enable-background:new 0 0 512 512" xml:space="preserve" class="">
  <g>
    <path d="M266.438 104.96h56.519l-86.508-91.003v60.898c0 16.497 13.38 30.106 29.988 30.106Zm0 0" style="stroke:none;fill-rule:nonzero;fill-opacity:1;" fill="#0773bb" data-original="#000000" class=""/>
    <path d="M172.668 334.488H72.434c-5.075 0-9.227-4.148-9.227-9.226 0-5.075 4.152-9.227 9.227-9.227H178.78c5.88-14.992 13.723-27.683 23.414-40.37H72.434c-5.075 0-9.227-4.15-9.227-9.228 0-5.074 4.152-9.226 9.227-9.226h147.293c27.68-24.223 64.359-39.676 104.382-39.676 3.805 0 6.922.344 11.536.692v-94.813h-69.207c-26.758 0-48.442-21.914-48.442-48.559V0H41.062C18.223 0 0 18.684 0 41.637V393.66c0 22.953 18.223 41.176 41.063 41.176h138.984c-7.957-18.453-12.34-39.215-12.34-60.899-.117-13.609 1.73-26.761 4.961-39.449ZM72.434 199.54h116.843c5.075 0 9.227 4.152 9.227 9.23 0 5.075-4.152 9.227-9.227 9.227H72.434c-5.075 0-9.227-4.152-9.227-9.226 0-5.079 4.152-9.23 9.227-9.23Zm0 0" style="stroke:none;fill-rule:nonzero;fill-opacity:1;" fill="#0773bb" data-original="#000000" class=""/>
    <path d="M323.992 236.336c-76.008 0-137.832 61.82-137.832 137.832C186.16 450.176 247.984 512 323.992 512c76.012 0 137.836-61.824 137.836-137.832 0-76.012-61.824-137.832-137.836-137.832ZM397.7 376.242c-1.73 1.617-4.039 2.426-6.23 2.426-2.422 0-4.844-1.04-6.692-2.887l-51.441-55.363v131.719c0 5.078-4.152 9.23-9.227 9.23-5.074 0-9.226-4.152-9.226-9.23V320.305l-51.672 55.363c-3.461 3.691-9.461 3.922-13.152.46-3.688-3.46-3.922-9.343-.461-13.034l67.59-72.551c1.73-1.844 4.152-2.883 6.804-2.883 2.656 0 4.961 1.04 6.809 2.883l67.59 72.55c3.23 3.81 2.996 9.692-.692 13.15Zm0 0" style="stroke:none;fill-rule:nonzero;fill-opacity:1;" fill="#0773bb" data-original="#000000" class=""/>
  </g>
</svg>
